M48
;Layer_Color=9474304
;FILE_FORMAT=2:4
INCH,TZ
;TYPE=PLATED
T01F00S00C0.0120
T02F00S00C0.0350
T03F00S00C0.0394
T04F00S00C0.0402
T05F00S00C0.0469
T06F00S00C0.0512
T07F00S00C0.1417
T08F00S00C0.2559
;TYPE=NON_PLATED
T09F00S00C0.0433
%
T01
X65258Y43005
X64916Y43597
X64797Y44270
X64916Y44943
X65258Y45535
X65782Y45975
X66424Y46209
X67108
X67750Y45975
X68274Y45535
X68616Y44943
X68734Y44270
X68616Y43597
X68274Y43005
X67750Y42565
X67108Y42331
X66424
X65782Y42565
X73132Y43005
X72790Y43597
X72671Y44270
X72790Y44943
X73132Y45535
X73656Y45975
X74298Y46209
X74982
X75624Y45975
X76148Y45535
X76490Y44943
X76609Y44270
X76490Y43597
X76148Y43005
X75624Y42565
X74982Y42331
X74298
X73656Y42565
X78540Y43120
X79290
X80124
X88486Y43005
X88145Y43597
X88026Y44270
X88145Y44943
X88486Y45535
X89010Y45975
X89653Y46209
X90336
X90979Y45975
X91502Y45535
X91844Y44943
X91963Y44270
X91844Y43597
X91502Y43005
X90979Y42565
X90336Y42331
X89653
X89010Y42565
X103841Y43005
X103499Y43597
X103380Y44270
X103499Y44943
X103841Y45535
X104364Y45975
X105007Y46209
X105690
X106333Y45975
X106857Y45535
X107198Y44943
X107317Y44270
X107198Y43597
X106857Y43005
X106333Y42565
X105690Y42331
X105007
X104364Y42565
X113740Y44257
X116490
X118734Y44270
X118853Y43597
X119195Y43005
X119719Y42565
X120361Y42331
X121045
X121687Y42565
X122211Y43005
X122553Y43597
X122671Y44270
X122553Y44943
X122211Y45535
X121687Y45975
X121045Y46209
X120361
X119719Y45975
X119195Y45535
X118853Y44943
X127678
X127560Y44270
X127678Y43597
X128020Y43005
X128544Y42565
X129186Y42331
X129870
X130512Y42565
X131036Y43005
X131378Y43597
X131497Y44270
X131378Y44943
X131036Y45535
X130512Y45975
X129870Y46209
X129186
X128544Y45975
X128020Y45535
X123920Y49277
X123009Y50413
X121274Y52020
X121688Y57043
X122105Y57486
X122965Y59082
X123590Y59008
X124490Y57966
X122105Y60289
X119378Y59368
X119366Y58109
X119158Y57043
X119353Y56100
X116459
X112859Y57097
X111557Y59493
X109703Y60014
X110294Y61142
X110284Y61973
X112973Y61088
X111012Y53820
Y53111
X110284Y53820
X110550Y49870
X113190
X107390Y53987
X105240Y53820
X104512
X102140Y52920
X101190Y53160
X100409Y51565
X99128Y52556
X98095Y53500
X98291Y50798
X97141Y50870
X94734Y52249
X94818Y48520
X95806Y56639
X97549Y59137
X100729Y60188
X101895Y58601
X101890Y58097
X101387Y56279
X100290Y57020
X104104Y59975
X105506Y61973
X106371Y62478
X107390Y58101
Y57101
Y56482
X108660Y55599
X90760Y56163
X89630Y56515
X89383Y58024
Y58536
X90125Y58143
X90868Y58157
X91492Y59811
X89619Y62396
X88993Y62249
X87973Y60765
X85845Y60756
X85964Y61550
Y62318
X82500Y62279
X80485Y61160
X79450Y60352
Y59831
X80540Y58836
X80526Y58379
X80540Y57906
X80526Y57517
X79790
X82634Y57470
X83167Y57760
X83178Y58416
X83853Y58397
X84289Y59230
X82634Y58855
X83159Y57020
X82831Y55052
X83519
X84264
X84332Y52253
X84552Y49978
X88265Y51093
X88386Y53199
X89336
X89868Y52087
X90379Y51405
X92318Y52091
X93140Y50631
X90479Y54370
X90475Y54950
X88265Y55067
X87446Y53229
X88190Y57903
X88675Y57814
X81394Y52253
X79125Y53161
X77440
X72540Y53868
X66766Y53570
X67750Y52239
X68353Y49689
X74493Y48620
X73656Y62347
X62690Y61373
X61904Y69932
X61957Y72392
X63807Y70811
X63683Y70339
X66469Y71603
X72790Y71321
X72671Y70648
X72790Y69975
X73132Y69383
X73656Y68943
X74298Y68709
X74982
X75624Y68943
X76148Y69383
X76490Y69975
X76609Y70648
X76490Y71321
X76148Y71913
X75624Y72353
X74982Y72587
X74298
X73656Y72353
X73132Y71913
X74052Y64049
X74760Y63765
X73656Y62884
X67463Y65970
X64802Y64064
X62690Y63877
X78181Y64379
X80090Y63889
X82083Y64201
Y63353
X82663Y63169
X84978Y63618
X87112Y64270
X88701Y64039
X89653Y63662
X89619Y63163
X90534Y62864
X90336Y68709
X89653
X89010Y68943
X88486Y69383
X88145Y69975
X88026Y70648
X88145Y71321
X88486Y71913
X89010Y72353
X89653Y72587
X90336
X90979Y72353
X91502Y71913
X91844Y71321
X91963Y70648
X91844Y69975
X91502Y69383
X90979Y68943
X81359Y69870
X81040Y70648
X97887Y72070
X96809Y67620
X96081Y65220
X95446Y64748
X94190Y64113
X99525Y64637
X100727Y64637
X105506Y62772
X109172Y62748
X108040Y64205
X106857Y69383
X107198Y69975
X107317Y70648
X107198Y71321
X106857Y71913
X106333Y72353
X105690Y72587
X105007
X104364Y72353
X103841Y71913
X103499Y71321
X103380Y70648
X103499Y69975
X103841Y69383
X104364Y68943
X105007Y68709
X105690
X106333Y68943
X111140Y63420
X110615Y62748
X112504Y62772
X112947Y64226
X118380Y64352
X119195Y69383
X118853Y69975
X118734Y70648
X118853Y71321
X119195Y71913
X119719Y72353
X120361Y72587
X121045
X121687Y72353
X122211Y71913
X122553Y71321
X122671Y70648
X122553Y69975
X122211Y69383
X121687Y68943
X121045Y68709
X120361
X119719Y68943
X124477Y62950
X126004Y62960
X128360
X129622Y70770
X130112Y71261
X130893Y70420
X132892Y68243
X133621Y68704
X134325Y68000
X133765Y67370
T02
X85089Y51722
X86089
X87089
T03
X113393Y59256
X114393
X115393
X116393
X117393
T04
X92889Y57434
Y58434
Y59434
Y60434
T05
X63390Y50873
Y51873
T06
X125596Y56234
Y57100
Y57966
Y58833
X70703Y58754
Y57888
Y57021
Y56155
T07
X127946Y55933
X127997Y59108
X68353Y59055
X68301Y55880
T08
X66766Y44270
X74640
X89994
X105349
X120703
X129528
X74640Y70648
X89994
X105349Y70648
X120703
T09
X129876Y73240
X131608
M30
