G04*
G04 #@! TF.GenerationSoftware,Altium Limited,Altium Designer,24.2.2 (26)*
G04*
G04 Layer_Color=128*
%FSLAX25Y25*%
%MOIN*%
G70*
G04*
G04 #@! TF.SameCoordinates,E85AF581-5EDA-4222-B011-A7CF2EBE2122*
G04*
G04*
G04 #@! TF.FilePolarity,Positive*
G04*
G01*
G75*
%ADD16C,0.00500*%
%ADD20C,0.00197*%
D16*
X1253400Y571003D02*
X1258518D01*
X1255959Y568444D02*
Y573562D01*
X1272373Y559326D02*
X1286546D01*
X1279459Y552239D02*
Y566413D01*
X1272888Y591082D02*
X1287062D01*
X1279975Y583995D02*
Y598169D01*
X1253400Y562342D02*
X1258518D01*
X1255959Y559783D02*
Y564901D01*
X1253400Y579665D02*
X1258518D01*
X1255959Y577106D02*
Y582224D01*
X1253400Y588326D02*
X1258518D01*
X1255959Y585767D02*
Y590885D01*
X1171963Y592560D02*
X1175900D01*
X1173932Y590591D02*
Y594528D01*
X1161963Y592560D02*
X1165900D01*
X1163932Y590591D02*
Y594528D01*
X1151963Y592560D02*
X1155900D01*
X1153932Y590591D02*
Y594528D01*
X1141963Y592560D02*
X1145900D01*
X1143932Y590591D02*
Y594528D01*
X1131963Y592560D02*
X1135900D01*
X1133932Y590591D02*
Y594528D01*
X869140Y517224D02*
X872640D01*
X870890Y515474D02*
Y518974D01*
X859140Y517224D02*
X862640D01*
X860890Y515474D02*
Y518974D01*
X849140Y517224D02*
X852640D01*
X850890Y515474D02*
Y518974D01*
X654865Y442700D02*
X680455D01*
X667660Y429905D02*
Y455495D01*
X631558Y508732D02*
X636243D01*
X633900Y506389D02*
Y511074D01*
X631558Y518731D02*
X636243D01*
X633900Y516389D02*
Y521074D01*
X704471Y561553D02*
X709589D01*
X707030Y558994D02*
Y564112D01*
X704471Y570215D02*
X709589D01*
X707030Y567656D02*
Y572774D01*
X704471Y587537D02*
X709589D01*
X707030Y584978D02*
Y590097D01*
X675928Y558797D02*
X690101D01*
X683014Y551711D02*
Y565884D01*
X676443Y590553D02*
X690617D01*
X683530Y583467D02*
Y597640D01*
X704471Y578876D02*
X709589D01*
X707030Y576317D02*
Y581435D01*
X1282487Y442700D02*
X1308077D01*
X1295282Y429905D02*
Y455495D01*
X733605Y442700D02*
X759195D01*
X746400Y429905D02*
Y455495D01*
X733605Y706480D02*
X759195D01*
X746400Y693684D02*
Y719275D01*
X887148Y706480D02*
X912739D01*
X899943Y693684D02*
Y719275D01*
X887148Y442700D02*
X912739D01*
X899943Y429905D02*
Y455495D01*
X1040691Y442700D02*
X1066282D01*
X1053487Y429905D02*
Y455495D01*
X1040691Y706480D02*
X1066282D01*
X1053487Y693684D02*
Y719275D01*
X1194235Y706480D02*
X1219825D01*
X1207030Y693684D02*
Y719275D01*
X1194235Y442700D02*
X1219825D01*
X1207030Y429905D02*
Y455495D01*
X926882Y604339D02*
X930897D01*
X928889Y602331D02*
Y606346D01*
X926882Y594339D02*
X930897D01*
X928889Y592331D02*
Y596346D01*
X926882Y584339D02*
X930897D01*
X928889Y582331D02*
Y586346D01*
X926882Y574338D02*
X930897D01*
X928889Y572331D02*
Y576346D01*
X1296593Y732401D02*
X1300924D01*
X1298758Y730235D02*
Y734566D01*
X1313916Y732401D02*
X1318246D01*
X1316081Y730235D02*
Y734566D01*
X686744Y442700D02*
X687945D01*
X687345Y442100D02*
Y443300D01*
X685557Y449433D02*
X686758D01*
X686158Y448832D02*
Y450033D01*
X682139Y455353D02*
X683340D01*
X682739Y454753D02*
Y455954D01*
X676902Y459748D02*
X678103D01*
X677502Y459147D02*
Y460348D01*
X670478Y462086D02*
X671678D01*
X671078Y461486D02*
Y462686D01*
X663641Y462086D02*
X664842D01*
X664242Y461486D02*
Y462686D01*
X657217Y459748D02*
X658418D01*
X657817Y459147D02*
Y460348D01*
X651980Y455353D02*
X653181D01*
X652580Y454753D02*
Y455954D01*
X648562Y449433D02*
X649762D01*
X649162Y448832D02*
Y450033D01*
X647374Y442700D02*
X648575D01*
X647975Y442100D02*
Y443300D01*
X648562Y435967D02*
X649762D01*
X649162Y435367D02*
Y436568D01*
X651980Y430047D02*
X653181D01*
X652580Y429446D02*
Y430647D01*
X657217Y425652D02*
X658418D01*
X657817Y425052D02*
Y426253D01*
X663641Y423314D02*
X664842D01*
X664242Y422714D02*
Y423914D01*
X670478Y423314D02*
X671678D01*
X671078Y422714D02*
Y423914D01*
X676902Y425652D02*
X678103D01*
X677502Y425052D02*
Y426253D01*
X682139Y430047D02*
X683340D01*
X682739Y429446D02*
Y430647D01*
X685557Y435967D02*
X686758D01*
X686158Y435367D02*
Y436568D01*
X647418Y640638D02*
X648619D01*
X648018Y640038D02*
Y641239D01*
X1054457Y627718D02*
X1055658D01*
X1055058Y627118D02*
Y628319D01*
X1054457Y619728D02*
X1055658D01*
X1055058Y619127D02*
Y620328D01*
X1086000Y555992D02*
X1087201D01*
X1086601Y555392D02*
Y556592D01*
X1040435Y599750D02*
X1041636D01*
X1041035Y599150D02*
Y600350D01*
X1006689Y601876D02*
X1007890D01*
X1007290Y601276D02*
Y602477D01*
X1018300Y580968D02*
X1019500D01*
X1018900Y580368D02*
Y581569D01*
X1018345Y586014D02*
X1019546D01*
X1018946Y585413D02*
Y586614D01*
X1128872Y642264D02*
X1130073D01*
X1129472Y641663D02*
Y642864D01*
X1063115Y624783D02*
X1064315D01*
X1063715Y624182D02*
Y625383D01*
X1110800Y634200D02*
X1112000D01*
X1111400Y633600D02*
Y634800D01*
X982314Y507981D02*
X983515D01*
X982914Y507381D02*
Y508582D01*
X1003486Y515648D02*
X1004687D01*
X1004086Y515048D02*
Y516248D01*
X1109524Y538200D02*
X1110725D01*
X1110124Y537600D02*
Y538800D01*
X1127986Y570968D02*
X1129187D01*
X1128587Y570368D02*
Y571569D01*
X1102241Y538200D02*
X1103441D01*
X1102841Y537600D02*
Y538800D01*
X1044516Y538200D02*
X1045717D01*
X1045117Y537600D02*
Y538800D01*
X1073297Y539868D02*
X1074497D01*
X1073897Y539268D02*
Y540469D01*
X1051800Y538200D02*
X1053000D01*
X1052400Y537600D02*
Y538800D01*
X1104900Y498700D02*
X1106100D01*
X1105500Y498100D02*
Y499300D01*
X1163993Y561000D02*
X1165194D01*
X1164593Y560400D02*
Y561600D01*
X1020800Y529200D02*
X1022000D01*
X1021400Y528600D02*
Y529800D01*
X1313179Y435967D02*
X1314380D01*
X1313780Y435367D02*
Y436568D01*
X1309761Y430047D02*
X1310962D01*
X1310362Y429446D02*
Y430647D01*
X1304524Y425652D02*
X1305725D01*
X1305124Y425052D02*
Y426253D01*
X1298100Y423314D02*
X1299301D01*
X1298700Y422714D02*
Y423914D01*
X1291263Y423314D02*
X1292464D01*
X1291864Y422714D02*
Y423914D01*
X1284839Y425652D02*
X1286040D01*
X1285439Y425052D02*
Y426253D01*
X1279602Y430047D02*
X1280803D01*
X1280202Y429446D02*
Y430647D01*
X1276184Y435967D02*
X1277384D01*
X1276784Y435367D02*
Y436568D01*
X1274996Y442700D02*
X1276197D01*
X1275597Y442100D02*
Y443300D01*
X1276184Y449433D02*
X1277384D01*
X1276784Y448832D02*
Y450033D01*
X1279602Y455353D02*
X1280803D01*
X1280202Y454753D02*
Y455954D01*
X1284839Y459748D02*
X1286040D01*
X1285439Y459147D02*
Y460348D01*
X1291263Y462086D02*
X1292464D01*
X1291864Y461486D02*
Y462686D01*
X1298100Y462086D02*
X1299301D01*
X1298700Y461486D02*
Y462686D01*
X1304524Y459748D02*
X1305725D01*
X1305124Y459147D02*
Y460348D01*
X1309761Y455353D02*
X1310962D01*
X1310362Y454753D02*
Y455954D01*
X1313179Y449433D02*
X1314380D01*
X1313780Y448832D02*
Y450033D01*
X1314367Y442700D02*
X1315567D01*
X1314967Y442100D02*
Y443300D01*
X764297Y435967D02*
X765498D01*
X764898Y435367D02*
Y436568D01*
X760879Y430047D02*
X762080D01*
X761480Y429446D02*
Y430647D01*
X755642Y425652D02*
X756843D01*
X756243Y425052D02*
Y426253D01*
X749218Y423314D02*
X750419D01*
X749818Y422714D02*
Y423914D01*
X742381Y423314D02*
X743582D01*
X742982Y422714D02*
Y423914D01*
X735957Y425652D02*
X737158D01*
X736557Y425052D02*
Y426253D01*
X730720Y430047D02*
X731921D01*
X731320Y429446D02*
Y430647D01*
X727302Y435967D02*
X728503D01*
X727902Y435367D02*
Y436568D01*
X726115Y442700D02*
X727315D01*
X726715Y442100D02*
Y443300D01*
X727302Y449433D02*
X728503D01*
X727902Y448832D02*
Y450033D01*
X730720Y455353D02*
X731921D01*
X731320Y454753D02*
Y455954D01*
X735957Y459748D02*
X737158D01*
X736557Y459147D02*
Y460348D01*
X742381Y462086D02*
X743582D01*
X742982Y461486D02*
Y462686D01*
X749218Y462086D02*
X750419D01*
X749818Y461486D02*
Y462686D01*
X755642Y459748D02*
X756843D01*
X756243Y459147D02*
Y460348D01*
X760879Y455353D02*
X762080D01*
X761480Y454753D02*
Y455954D01*
X764297Y449433D02*
X765498D01*
X764898Y448832D02*
Y450033D01*
X765485Y442700D02*
X766685D01*
X766085Y442100D02*
Y443300D01*
X764297Y699747D02*
X765498D01*
X764898Y699147D02*
Y700347D01*
X760879Y693826D02*
X762080D01*
X761480Y693226D02*
Y694427D01*
X755642Y689432D02*
X756843D01*
X756243Y688832D02*
Y690032D01*
X749218Y687094D02*
X750419D01*
X749818Y686493D02*
Y687694D01*
X742381Y687094D02*
X743582D01*
X742982Y686493D02*
Y687694D01*
X735957Y689432D02*
X737158D01*
X736557Y688832D02*
Y690032D01*
X730720Y693826D02*
X731921D01*
X731320Y693226D02*
Y694427D01*
X727302Y699747D02*
X728503D01*
X727902Y699147D02*
Y700347D01*
X726115Y706480D02*
X727315D01*
X726715Y705879D02*
Y707080D01*
X727302Y713212D02*
X728503D01*
X727902Y712612D02*
Y713813D01*
X730720Y719133D02*
X731921D01*
X731320Y718533D02*
Y719733D01*
X735957Y723527D02*
X737158D01*
X736557Y722927D02*
Y724128D01*
X742381Y725866D02*
X743582D01*
X742982Y725265D02*
Y726466D01*
X749218Y725866D02*
X750419D01*
X749818Y725265D02*
Y726466D01*
X755642Y723527D02*
X756843D01*
X756243Y722927D02*
Y724128D01*
X760879Y719133D02*
X762080D01*
X761480Y718533D02*
Y719733D01*
X764297Y713212D02*
X765498D01*
X764898Y712612D02*
Y713813D01*
X765485Y706480D02*
X766685D01*
X766085Y705879D02*
Y707080D01*
X917841Y699747D02*
X919042D01*
X918441Y699147D02*
Y700347D01*
X914423Y693826D02*
X915623D01*
X915023Y693226D02*
Y694427D01*
X909186Y689432D02*
X910386D01*
X909786Y688832D02*
Y690032D01*
X902761Y687094D02*
X903962D01*
X903362Y686493D02*
Y687694D01*
X895925Y687094D02*
X897126D01*
X896525Y686493D02*
Y687694D01*
X889500Y689432D02*
X890701D01*
X890101Y688832D02*
Y690032D01*
X884263Y693826D02*
X885464D01*
X884864Y693226D02*
Y694427D01*
X880845Y699747D02*
X882046D01*
X881446Y699147D02*
Y700347D01*
X879658Y706480D02*
X880859D01*
X880258Y705879D02*
Y707080D01*
X880845Y713212D02*
X882046D01*
X881446Y712612D02*
Y713813D01*
X884263Y719133D02*
X885464D01*
X884864Y718533D02*
Y719733D01*
X889500Y723527D02*
X890701D01*
X890101Y722927D02*
Y724128D01*
X895925Y725866D02*
X897126D01*
X896525Y725265D02*
Y726466D01*
X902761Y725866D02*
X903962D01*
X903362Y725265D02*
Y726466D01*
X909186Y723527D02*
X910386D01*
X909786Y722927D02*
Y724128D01*
X914423Y719133D02*
X915623D01*
X915023Y718533D02*
Y719733D01*
X917841Y713212D02*
X919042D01*
X918441Y712612D02*
Y713813D01*
X919028Y706480D02*
X920229D01*
X919628Y705879D02*
Y707080D01*
X917841Y435967D02*
X919042D01*
X918441Y435367D02*
Y436568D01*
X914423Y430047D02*
X915623D01*
X915023Y429446D02*
Y430647D01*
X909186Y425652D02*
X910386D01*
X909786Y425052D02*
Y426253D01*
X902761Y423314D02*
X903962D01*
X903362Y422714D02*
Y423914D01*
X895925Y423314D02*
X897126D01*
X896525Y422714D02*
Y423914D01*
X889500Y425652D02*
X890701D01*
X890101Y425052D02*
Y426253D01*
X884263Y430047D02*
X885464D01*
X884864Y429446D02*
Y430647D01*
X880845Y435967D02*
X882046D01*
X881446Y435367D02*
Y436568D01*
X879658Y442700D02*
X880859D01*
X880258Y442100D02*
Y443300D01*
X880845Y449433D02*
X882046D01*
X881446Y448832D02*
Y450033D01*
X884263Y455353D02*
X885464D01*
X884864Y454753D02*
Y455954D01*
X889500Y459748D02*
X890701D01*
X890101Y459147D02*
Y460348D01*
X895925Y462086D02*
X897126D01*
X896525Y461486D02*
Y462686D01*
X902761Y462086D02*
X903962D01*
X903362Y461486D02*
Y462686D01*
X909186Y459748D02*
X910386D01*
X909786Y459147D02*
Y460348D01*
X914423Y455353D02*
X915623D01*
X915023Y454753D02*
Y455954D01*
X917841Y449433D02*
X919042D01*
X918441Y448832D02*
Y450033D01*
X919028Y442700D02*
X920229D01*
X919628Y442100D02*
Y443300D01*
X1071384Y435967D02*
X1072585D01*
X1071984Y435367D02*
Y436568D01*
X1067966Y430047D02*
X1069167D01*
X1068566Y429446D02*
Y430647D01*
X1062729Y425652D02*
X1063930D01*
X1063329Y425052D02*
Y426253D01*
X1056304Y423314D02*
X1057505D01*
X1056905Y422714D02*
Y423914D01*
X1049468Y423314D02*
X1050669D01*
X1050068Y422714D02*
Y423914D01*
X1043044Y425652D02*
X1044244D01*
X1043644Y425052D02*
Y426253D01*
X1037807Y430047D02*
X1039007D01*
X1038407Y429446D02*
Y430647D01*
X1034388Y435967D02*
X1035589D01*
X1034989Y435367D02*
Y436568D01*
X1033201Y442700D02*
X1034402D01*
X1033802Y442100D02*
Y443300D01*
X1034388Y449433D02*
X1035589D01*
X1034989Y448832D02*
Y450033D01*
X1037807Y455353D02*
X1039007D01*
X1038407Y454753D02*
Y455954D01*
X1043044Y459748D02*
X1044244D01*
X1043644Y459147D02*
Y460348D01*
X1049468Y462086D02*
X1050669D01*
X1050068Y461486D02*
Y462686D01*
X1056304Y462086D02*
X1057505D01*
X1056905Y461486D02*
Y462686D01*
X1062729Y459748D02*
X1063930D01*
X1063329Y459147D02*
Y460348D01*
X1067966Y455353D02*
X1069167D01*
X1068566Y454753D02*
Y455954D01*
X1071384Y449433D02*
X1072585D01*
X1071984Y448832D02*
Y450033D01*
X1072571Y442700D02*
X1073772D01*
X1073172Y442100D02*
Y443300D01*
X1071384Y699747D02*
X1072585D01*
X1071984Y699147D02*
Y700347D01*
X1067966Y693826D02*
X1069167D01*
X1068566Y693226D02*
Y694427D01*
X1062729Y689432D02*
X1063930D01*
X1063329Y688831D02*
Y690032D01*
X1056304Y687094D02*
X1057505D01*
X1056905Y686493D02*
Y687694D01*
X1049468Y687094D02*
X1050669D01*
X1050068Y686493D02*
Y687694D01*
X1043044Y689432D02*
X1044244D01*
X1043644Y688831D02*
Y690032D01*
X1037807Y693826D02*
X1039007D01*
X1038407Y693226D02*
Y694427D01*
X1034388Y699747D02*
X1035589D01*
X1034989Y699147D02*
Y700347D01*
X1033201Y706480D02*
X1034402D01*
X1033802Y705879D02*
Y707080D01*
X1034388Y713212D02*
X1035589D01*
X1034989Y712612D02*
Y713813D01*
X1037807Y719133D02*
X1039007D01*
X1038407Y718533D02*
Y719733D01*
X1043044Y723527D02*
X1044244D01*
X1043644Y722927D02*
Y724128D01*
X1049468Y725866D02*
X1050669D01*
X1050068Y725265D02*
Y726466D01*
X1056304Y725866D02*
X1057505D01*
X1056905Y725265D02*
Y726466D01*
X1062729Y723527D02*
X1063930D01*
X1063329Y722927D02*
Y724128D01*
X1067966Y719133D02*
X1069167D01*
X1068566Y718533D02*
Y719733D01*
X1071384Y713212D02*
X1072585D01*
X1071984Y712612D02*
Y713813D01*
X1072571Y706480D02*
X1073772D01*
X1073172Y705879D02*
Y707080D01*
X1224928Y699747D02*
X1226128D01*
X1225528Y699147D02*
Y700347D01*
X1221509Y693826D02*
X1222710D01*
X1222110Y693226D02*
Y694427D01*
X1216272Y689432D02*
X1217473D01*
X1216873Y688831D02*
Y690032D01*
X1209848Y687094D02*
X1211049D01*
X1210448Y686493D02*
Y687694D01*
X1203011Y687094D02*
X1204212D01*
X1203612Y686493D02*
Y687694D01*
X1196587Y689432D02*
X1197788D01*
X1197187Y688831D02*
Y690032D01*
X1191350Y693826D02*
X1192551D01*
X1191950Y693226D02*
Y694427D01*
X1187932Y699747D02*
X1189132D01*
X1188532Y699147D02*
Y700347D01*
X1186744Y706480D02*
X1187945D01*
X1187345Y705879D02*
Y707080D01*
X1187932Y713212D02*
X1189132D01*
X1188532Y712612D02*
Y713813D01*
X1191350Y719133D02*
X1192551D01*
X1191950Y718533D02*
Y719733D01*
X1196587Y723527D02*
X1197788D01*
X1197187Y722927D02*
Y724128D01*
X1203011Y725866D02*
X1204212D01*
X1203612Y725265D02*
Y726466D01*
X1209848Y725866D02*
X1211049D01*
X1210448Y725265D02*
Y726466D01*
X1216272Y723527D02*
X1217473D01*
X1216873Y722927D02*
Y724128D01*
X1221509Y719133D02*
X1222710D01*
X1222110Y718533D02*
Y719733D01*
X1224928Y713212D02*
X1226128D01*
X1225528Y712612D02*
Y713813D01*
X1226115Y706480D02*
X1227315D01*
X1226715Y705879D02*
Y707080D01*
X1224928Y435967D02*
X1226128D01*
X1225528Y435367D02*
Y436568D01*
X1221509Y430047D02*
X1222710D01*
X1222110Y429446D02*
Y430647D01*
X1216272Y425652D02*
X1217473D01*
X1216873Y425052D02*
Y426253D01*
X1209848Y423314D02*
X1211049D01*
X1210448Y422714D02*
Y423914D01*
X1203011Y423314D02*
X1204212D01*
X1203612Y422714D02*
Y423914D01*
X1196587Y425652D02*
X1197788D01*
X1197187Y425052D02*
Y426253D01*
X1191350Y430047D02*
X1192551D01*
X1191950Y429446D02*
Y430647D01*
X1187932Y435967D02*
X1189132D01*
X1188532Y435367D02*
Y436568D01*
X1186744Y442700D02*
X1187945D01*
X1187345Y442100D02*
Y443300D01*
X1187932Y449433D02*
X1189132D01*
X1188532Y448832D02*
Y450033D01*
X1191350Y455353D02*
X1192551D01*
X1191950Y454753D02*
Y455954D01*
X1196587Y459748D02*
X1197788D01*
X1197187Y459147D02*
Y460348D01*
X1203011Y462086D02*
X1204212D01*
X1203612Y461486D02*
Y462686D01*
X1209848Y462086D02*
X1211049D01*
X1210448Y461486D02*
Y462686D01*
X1216272Y459748D02*
X1217473D01*
X1216873Y459147D02*
Y460348D01*
X1221509Y455353D02*
X1222710D01*
X1222110Y454753D02*
Y455954D01*
X1224928Y449433D02*
X1226128D01*
X1225528Y448832D02*
Y450033D01*
X1226115Y442700D02*
X1227315D01*
X1226715Y442100D02*
Y443300D01*
X1244166Y629500D02*
X1245366D01*
X1244766Y628900D02*
Y630100D01*
X990680Y525564D02*
X991881D01*
X991280Y524964D02*
Y526164D01*
X1235300Y590080D02*
X1236500D01*
X1235900Y589479D02*
Y590680D01*
X747004Y637651D02*
X748205D01*
X747605Y637050D02*
Y638251D01*
X857845Y607558D02*
X859046D01*
X858445Y606958D02*
Y608159D01*
X842290Y592303D02*
X843491D01*
X842890Y591702D02*
Y592903D01*
X618440Y699322D02*
X619640D01*
X619040Y698722D02*
Y699922D01*
X637471Y708110D02*
X638672D01*
X638072Y707509D02*
Y708710D01*
X947577Y485200D02*
X948778D01*
X948178Y484600D02*
Y485800D01*
X1129126Y610879D02*
X1130327D01*
X1129726Y610279D02*
Y611480D01*
X1102241Y619728D02*
X1103441D01*
X1102841Y619127D02*
Y620328D01*
X1105552Y627483D02*
X1106753D01*
X1106152Y626883D02*
Y628084D01*
X1220451Y574857D02*
X1221651D01*
X1221051Y574257D02*
Y575457D01*
X1220450Y602893D02*
X1221651D01*
X1221051Y602293D02*
Y603493D01*
X1193175Y593683D02*
X1194376D01*
X1193776Y593083D02*
Y594283D01*
X1216281Y570432D02*
X1217482D01*
X1216882Y569832D02*
Y571032D01*
X978268Y720700D02*
X979469D01*
X978868Y720100D02*
Y721300D01*
X682930Y496885D02*
X684130D01*
X683530Y496285D02*
Y497485D01*
X1229054Y590820D02*
X1230255D01*
X1229655Y590219D02*
Y591420D01*
X1229492Y504134D02*
X1230693D01*
X1230092Y503534D02*
Y504734D01*
X1238600Y492775D02*
X1239800D01*
X1239200Y492175D02*
Y493375D01*
X1131300Y498700D02*
X1132500D01*
X1131900Y498100D02*
Y499300D01*
X1124443Y627718D02*
X1125644D01*
X1125043Y627118D02*
Y628319D01*
X813336Y522535D02*
X814536D01*
X813936Y521934D02*
Y523135D01*
X842715Y522535D02*
X843916D01*
X843316Y521934D02*
Y523135D01*
X849184Y636175D02*
X850384D01*
X849784Y635575D02*
Y636776D01*
X886414Y640388D02*
X887614D01*
X887014Y639788D02*
Y640988D01*
X895925Y636622D02*
X897126D01*
X896525Y636022D02*
Y637222D01*
X895588Y631633D02*
X896789D01*
X896188Y631033D02*
Y632233D01*
X870524Y642701D02*
X871725D01*
X871125Y642101D02*
Y643301D01*
X826031Y631694D02*
X827232D01*
X826631Y631093D02*
Y632294D01*
X1259437Y629600D02*
X1260637D01*
X1260037Y629000D02*
Y630200D01*
X1283000Y629600D02*
X1284200D01*
X1283600Y629000D02*
Y630200D01*
X1337048Y673700D02*
X1338249D01*
X1337648Y673100D02*
Y674300D01*
X1244300Y579665D02*
X1245500D01*
X1244900Y579064D02*
Y580265D01*
X886150Y578139D02*
X887351D01*
X886751Y577539D02*
Y578740D01*
X895698Y565150D02*
X896899D01*
X896298Y564549D02*
Y565750D01*
X881296Y579025D02*
X882497D01*
X881896Y578425D02*
Y579626D01*
X1102339Y611423D02*
X1103540D01*
X1102939Y610823D02*
Y612024D01*
X893230Y580244D02*
X894430D01*
X893830Y579644D02*
Y580844D01*
X797300Y575171D02*
X798500D01*
X797900Y574571D02*
Y575772D01*
X804656Y575171D02*
X805857D01*
X805256Y574571D02*
Y575772D01*
X1013268Y562788D02*
X1014469D01*
X1013869Y562187D02*
Y563388D01*
X907001Y561634D02*
X908202D01*
X907602Y561034D02*
Y562234D01*
X1073300Y564819D02*
X1074500D01*
X1073900Y564219D02*
Y565419D01*
X957456Y566394D02*
X958657D01*
X958056Y565794D02*
Y566994D01*
X830994Y570205D02*
X832195D01*
X831594Y569604D02*
Y570805D01*
X804800Y588364D02*
X806000D01*
X805400Y587764D02*
Y588965D01*
X804656Y583787D02*
X805857D01*
X805256Y583187D02*
Y584388D01*
X1190975Y570432D02*
X1192175D01*
X1191575Y569832D02*
Y571032D01*
X1193058Y581086D02*
X1194259D01*
X1193658Y580486D02*
Y581687D01*
X800641Y431200D02*
X801842D01*
X801242Y430600D02*
Y431800D01*
X674034Y659700D02*
X675235D01*
X674634Y659100D02*
Y660300D01*
X844916Y499783D02*
X846117D01*
X845516Y499182D02*
Y500383D01*
X903187Y514049D02*
X904388D01*
X903788Y513449D02*
Y514650D01*
X898076Y520866D02*
X899277D01*
X898676Y520265D02*
Y521466D01*
X980351Y534999D02*
X981552D01*
X980952Y534399D02*
Y535600D01*
X1192932Y561000D02*
X1194133D01*
X1193532Y560400D02*
Y561600D01*
X1212141Y520200D02*
X1213342D01*
X1212741Y519600D02*
Y520800D01*
X904737Y628645D02*
X905938D01*
X905338Y628045D02*
Y629245D01*
X895588Y623964D02*
X896789D01*
X896188Y623363D02*
Y624564D01*
X1114969Y594932D02*
X1116170D01*
X1115569Y594331D02*
Y595532D01*
X1109524Y531109D02*
X1110725D01*
X1110124Y530509D02*
Y531709D01*
X800300Y638892D02*
X801500D01*
X800900Y638292D02*
Y639492D01*
X804251Y611601D02*
X805452D01*
X804852Y611001D02*
Y612202D01*
X820226Y642014D02*
X821427D01*
X820826Y641414D02*
Y642615D01*
X889332Y622491D02*
X890533D01*
X889933Y621890D02*
Y623091D01*
X879131Y607653D02*
X880331D01*
X879731Y607052D02*
Y608253D01*
X914316Y598109D02*
X915517D01*
X914917Y597509D02*
Y598710D01*
X970814Y508700D02*
X972015D01*
X971414Y508100D02*
Y509300D01*
X1091119Y627483D02*
X1092319D01*
X1091719Y626883D02*
Y628084D01*
X1096434Y600137D02*
X1097634D01*
X1097034Y599537D02*
Y600737D01*
X941300Y641126D02*
X942500D01*
X941900Y640526D02*
Y641727D01*
X1006674Y646366D02*
X1007874D01*
X1007274Y645765D02*
Y646966D01*
X994652Y646366D02*
X995853D01*
X995253Y645766D02*
Y646966D01*
X1079800Y642050D02*
X1081000D01*
X1080400Y641450D02*
Y642651D01*
X946743Y522491D02*
X947944D01*
X947344Y521891D02*
Y523092D01*
X922584Y520907D02*
X923785D01*
X923184Y520307D02*
Y521508D01*
X1073300Y571014D02*
X1074500D01*
X1073900Y570413D02*
Y571614D01*
X1002300Y570205D02*
X1003500D01*
X1002900Y569604D02*
Y570805D01*
X882049Y510933D02*
X883249D01*
X882649Y510333D02*
Y511533D01*
X893230Y585362D02*
X894430D01*
X893830Y584762D02*
Y585962D01*
X930800Y506307D02*
X932000D01*
X931400Y505707D02*
Y506907D01*
X900653Y581425D02*
X901854D01*
X901253Y580825D02*
Y582025D01*
X837928Y583974D02*
X839129D01*
X838528Y583373D02*
Y584574D01*
X1011300Y531599D02*
X1012500D01*
X1011900Y530999D02*
Y532199D01*
X1073300Y581014D02*
X1074500D01*
X1073900Y580413D02*
Y581614D01*
X974892Y591366D02*
X976093D01*
X975492Y590766D02*
Y591966D01*
X904193Y543701D02*
X905394D01*
X904793Y543100D02*
Y544301D01*
X904147Y549499D02*
X905348D01*
X904747Y548899D02*
Y550099D01*
X873858Y532288D02*
X875059D01*
X874458Y531688D02*
Y532888D01*
X953859Y647480D02*
X955060D01*
X954460Y646880D02*
Y648080D01*
X831180Y584161D02*
X832381D01*
X831781Y583560D02*
Y584761D01*
X831073Y577595D02*
X832274D01*
X831674Y576995D02*
Y578195D01*
X825738Y574699D02*
X826939D01*
X826338Y574099D02*
Y575299D01*
X859040Y615502D02*
X860241D01*
X859641Y614902D02*
Y616103D01*
X859040Y623178D02*
X860241D01*
X859641Y622577D02*
Y623778D01*
X824395Y622786D02*
X825596D01*
X824996Y622185D02*
Y623386D01*
X793902Y603523D02*
X795103D01*
X794503Y602922D02*
Y604123D01*
X793902Y598306D02*
X795103D01*
X794503Y597706D02*
Y598907D01*
X735957Y628836D02*
X737158D01*
X736557Y628236D02*
Y629437D01*
X735957Y623475D02*
X737158D01*
X736557Y622874D02*
Y624075D01*
X739924Y640493D02*
X741125D01*
X740524Y639892D02*
Y641093D01*
X804800Y579063D02*
X806000D01*
X805400Y578463D02*
Y579663D01*
X825738Y588554D02*
X826939D01*
X826338Y587953D02*
Y589154D01*
X781214Y643786D02*
X782415D01*
X781814Y643185D02*
Y644386D01*
X827706Y550524D02*
X828907D01*
X828307Y549924D02*
Y551124D01*
X834591Y550524D02*
X835791D01*
X835191Y549924D02*
Y551124D01*
X842041Y550524D02*
X843242D01*
X842641Y549924D02*
Y551124D01*
X908084Y581573D02*
X909285D01*
X908684Y580972D02*
Y582173D01*
X882049Y550665D02*
X883249D01*
X882649Y550065D02*
Y551265D01*
X892764Y531988D02*
X893965D01*
X893365Y531388D02*
Y532588D01*
X883264Y531988D02*
X884465D01*
X883865Y531388D02*
Y532588D01*
X812985Y698700D02*
X814186D01*
X813585Y698100D02*
Y699300D01*
X820226Y633529D02*
X821427D01*
X820826Y632929D02*
Y634129D01*
X1136800Y442566D02*
X1138000D01*
X1137400Y441966D02*
Y443167D01*
X1164300Y442566D02*
X1165500D01*
X1164900Y441966D02*
Y443167D01*
X1183201Y643515D02*
X1184402D01*
X1183802Y642915D02*
Y644115D01*
X809800Y706480D02*
X811000D01*
X810400Y705879D02*
Y707080D01*
X773800Y531609D02*
X775000D01*
X774400Y531009D02*
Y532210D01*
X790646Y531609D02*
X791847D01*
X791247Y531009D02*
Y532210D01*
X724800Y538676D02*
X726000D01*
X725400Y538076D02*
Y539277D01*
X744331Y486200D02*
X745532D01*
X744932Y485600D02*
Y486800D01*
X792300Y431200D02*
X793500D01*
X792900Y430600D02*
Y431800D01*
X784800Y431200D02*
X786000D01*
X785400Y430600D02*
Y431800D01*
X960211Y652200D02*
X961412D01*
X960812Y651600D02*
Y652800D01*
X967494Y676200D02*
X968695D01*
X968094Y675600D02*
Y676800D01*
X664093Y716032D02*
X665294D01*
X664693Y715432D02*
Y716633D01*
X636225Y703385D02*
X637426D01*
X636825Y702785D02*
Y703986D01*
X618969Y723920D02*
X620170D01*
X619569Y723320D02*
Y724521D01*
X626300Y638773D02*
X627500D01*
X626900Y638172D02*
Y639373D01*
X626300Y613731D02*
X627500D01*
X626900Y613131D02*
Y614332D01*
X676902Y522393D02*
X678103D01*
X677502Y521793D02*
Y522993D01*
X667060Y535700D02*
X668260D01*
X667660Y535100D02*
Y536300D01*
X1328320Y682428D02*
X1329521D01*
X1328921Y681827D02*
Y683028D01*
X1295615Y707700D02*
X1296816D01*
X1296216Y707100D02*
Y708300D01*
X1300520Y712605D02*
X1301721D01*
X1301120Y712005D02*
Y713205D01*
X1308331Y704200D02*
X1309532D01*
X1308932Y703600D02*
Y704800D01*
X1342654Y679997D02*
X1343854D01*
X1343254Y679397D02*
Y680598D01*
X1335610Y687041D02*
X1336811D01*
X1336210Y686441D02*
Y687641D01*
D20*
X1243916Y587503D02*
X1245884D01*
Y588487D01*
X1245556Y588815D01*
X1244244D01*
X1243916Y588487D01*
Y587503D01*
X1245884Y590455D02*
X1243916D01*
X1244900Y589471D01*
Y590783D01*
M02*
