G04*
G04 #@! TF.GenerationSoftware,Altium Limited,Altium Designer,24.2.2 (26)*
G04*
G04 Layer_Color=255*
%FSLAX25Y25*%
%MOIN*%
G70*
G04*
G04 #@! TF.SameCoordinates,E85AF581-5EDA-4222-B011-A7CF2EBE2122*
G04*
G04*
G04 #@! TF.FilePolarity,Positive*
G04*
G01*
G75*
%ADD20C,0.00197*%
%ADD24R,0.04724X0.03543*%
%ADD26R,0.01480X0.05764*%
G04:AMPARAMS|DCode=27|XSize=57.64mil|YSize=14.8mil|CornerRadius=7.4mil|HoleSize=0mil|Usage=FLASHONLY|Rotation=90.000|XOffset=0mil|YOffset=0mil|HoleType=Round|Shape=RoundedRectangle|*
%AMROUNDEDRECTD27*
21,1,0.05764,0.00000,0,0,90.0*
21,1,0.04284,0.01480,0,0,90.0*
1,1,0.01480,0.00000,0.02142*
1,1,0.01480,0.00000,-0.02142*
1,1,0.01480,0.00000,-0.02142*
1,1,0.01480,0.00000,0.02142*
%
%ADD27ROUNDEDRECTD27*%
%ADD28R,0.03543X0.04724*%
%ADD29R,0.05512X0.03740*%
%ADD32R,0.03740X0.05512*%
%ADD35R,0.05727X0.06127*%
G04:AMPARAMS|DCode=41|XSize=47.45mil|YSize=20.95mil|CornerRadius=10.48mil|HoleSize=0mil|Usage=FLASHONLY|Rotation=0.000|XOffset=0mil|YOffset=0mil|HoleType=Round|Shape=RoundedRectangle|*
%AMROUNDEDRECTD41*
21,1,0.04745,0.00000,0,0,0.0*
21,1,0.02650,0.02095,0,0,0.0*
1,1,0.02095,0.01325,0.00000*
1,1,0.02095,-0.01325,0.00000*
1,1,0.02095,-0.01325,0.00000*
1,1,0.02095,0.01325,0.00000*
%
%ADD41ROUNDEDRECTD41*%
%ADD42R,0.04745X0.02095*%
%ADD44R,0.06890X0.10433*%
%ADD46R,0.02362X0.06102*%
%ADD47R,0.06127X0.05727*%
%ADD52R,0.03150X0.03150*%
%ADD54R,0.02362X0.09843*%
%ADD55R,0.07874X0.09843*%
G04:AMPARAMS|DCode=58|XSize=61.02mil|YSize=23.62mil|CornerRadius=2.01mil|HoleSize=0mil|Usage=FLASHONLY|Rotation=0.000|XOffset=0mil|YOffset=0mil|HoleType=Round|Shape=RoundedRectangle|*
%AMROUNDEDRECTD58*
21,1,0.06102,0.01961,0,0,0.0*
21,1,0.05701,0.02362,0,0,0.0*
1,1,0.00402,0.02850,-0.00980*
1,1,0.00402,-0.02850,-0.00980*
1,1,0.00402,-0.02850,0.00980*
1,1,0.00402,0.02850,0.00980*
%
%ADD58ROUNDEDRECTD58*%
%ADD59R,0.10433X0.06890*%
G04:AMPARAMS|DCode=60|XSize=43.31mil|YSize=23.62mil|CornerRadius=2.01mil|HoleSize=0mil|Usage=FLASHONLY|Rotation=0.000|XOffset=0mil|YOffset=0mil|HoleType=Round|Shape=RoundedRectangle|*
%AMROUNDEDRECTD60*
21,1,0.04331,0.01961,0,0,0.0*
21,1,0.03929,0.02362,0,0,0.0*
1,1,0.00402,0.01965,-0.00980*
1,1,0.00402,-0.01965,-0.00980*
1,1,0.00402,-0.01965,0.00980*
1,1,0.00402,0.01965,0.00980*
%
%ADD60ROUNDEDRECTD60*%
%ADD73R,0.05906X0.04724*%
%ADD75R,0.01181X0.06693*%
%ADD80C,0.07087*%
%ADD82R,0.06102X0.06102*%
%ADD83C,0.06102*%
%ADD84R,0.05469X0.05469*%
%ADD85C,0.05469*%
%ADD91C,0.04331*%
%ADD93C,0.06000*%
%ADD94R,0.05512X0.03937*%
%ADD95R,0.04724X0.04724*%
%ADD96R,0.02362X0.03347*%
%ADD97R,0.21260X0.11417*%
%ADD98O,0.08661X0.02362*%
%ADD99R,0.05984X0.02402*%
%ADD100R,0.06693X0.04134*%
%ADD101R,0.12992X0.07087*%
%ADD102R,0.08268X0.05512*%
%ADD103R,0.01870X0.01181*%
%ADD104R,0.02362X0.01181*%
G04:AMPARAMS|DCode=105|XSize=7.87mil|YSize=34.45mil|CornerRadius=0.98mil|HoleSize=0mil|Usage=FLASHONLY|Rotation=0.000|XOffset=0mil|YOffset=0mil|HoleType=Round|Shape=RoundedRectangle|*
%AMROUNDEDRECTD105*
21,1,0.00787,0.03248,0,0,0.0*
21,1,0.00591,0.03445,0,0,0.0*
1,1,0.00197,0.00295,-0.01624*
1,1,0.00197,-0.00295,-0.01624*
1,1,0.00197,-0.00295,0.01624*
1,1,0.00197,0.00295,0.01624*
%
%ADD105ROUNDEDRECTD105*%
%ADD106R,0.12205X0.12205*%
G04:AMPARAMS|DCode=107|XSize=34.45mil|YSize=7.87mil|CornerRadius=0.98mil|HoleSize=0mil|Usage=FLASHONLY|Rotation=0.000|XOffset=0mil|YOffset=0mil|HoleType=Round|Shape=RoundedRectangle|*
%AMROUNDEDRECTD107*
21,1,0.03445,0.00591,0,0,0.0*
21,1,0.03248,0.00787,0,0,0.0*
1,1,0.00197,0.01624,-0.00295*
1,1,0.00197,-0.01624,-0.00295*
1,1,0.00197,-0.01624,0.00295*
1,1,0.00197,0.01624,0.00295*
%
%ADD107ROUNDEDRECTD107*%
%ADD108R,0.02402X0.05984*%
%ADD109R,0.02756X0.02953*%
%ADD110R,0.05512X0.08268*%
%ADD118C,0.21260*%
%ADD119C,0.51181*%
%ADD120C,0.06693*%
%ADD121R,0.06693X0.06693*%
%ADD122R,0.06102X0.06102*%
D20*
X1243916Y587503D02*
X1245884D01*
Y588487D01*
X1245556Y588815D01*
X1244244D01*
X1243916Y588487D01*
Y587503D01*
X1245884Y590455D02*
X1243916D01*
X1244900Y589471D01*
Y590783D01*
D24*
X992068Y583553D02*
D03*
Y575285D02*
D03*
X967151Y574892D02*
D03*
Y583159D02*
D03*
X967193Y556551D02*
D03*
Y564819D02*
D03*
X992068Y556551D02*
D03*
Y564819D02*
D03*
X1149900Y680834D02*
D03*
Y672566D02*
D03*
X1142278Y672731D02*
D03*
Y680999D02*
D03*
X1145195Y442566D02*
D03*
Y450834D02*
D03*
X1153900D02*
D03*
Y442566D02*
D03*
X956400Y478200D02*
D03*
Y469932D02*
D03*
X841418Y680834D02*
D03*
Y672567D02*
D03*
X683530Y503381D02*
D03*
Y511649D02*
D03*
X746900Y501062D02*
D03*
Y492795D02*
D03*
X623900Y663834D02*
D03*
Y655566D02*
D03*
X1225352Y539636D02*
D03*
Y547903D02*
D03*
X1304994Y673700D02*
D03*
Y681968D02*
D03*
X1312672Y673700D02*
D03*
Y681968D02*
D03*
X1221304Y619428D02*
D03*
Y611161D02*
D03*
X1007274Y637916D02*
D03*
Y629649D02*
D03*
X968042Y691227D02*
D03*
Y682960D02*
D03*
X964992Y469932D02*
D03*
Y478200D02*
D03*
X833642Y680834D02*
D03*
Y672567D02*
D03*
X792900Y446834D02*
D03*
Y438566D02*
D03*
X785400D02*
D03*
Y446834D02*
D03*
X671858Y630060D02*
D03*
Y638328D02*
D03*
X671900Y611566D02*
D03*
Y619834D02*
D03*
D26*
X1306373Y690373D02*
D03*
D27*
X1311491D02*
D03*
X1308932Y696830D02*
D03*
D28*
X1132720Y704200D02*
D03*
X1124453D02*
D03*
X1102904Y642050D02*
D03*
X1111172D02*
D03*
X1088766D02*
D03*
X1097034D02*
D03*
X925350Y508964D02*
D03*
X917082D02*
D03*
X902582D02*
D03*
X910850D02*
D03*
X890582Y608400D02*
D03*
X898850D02*
D03*
X898966Y615502D02*
D03*
X890698D02*
D03*
X666355Y514649D02*
D03*
X674623D02*
D03*
X739245Y500789D02*
D03*
X730977D02*
D03*
X737172Y547386D02*
D03*
X745439D02*
D03*
X739140Y491048D02*
D03*
X730872D02*
D03*
X1212741Y528552D02*
D03*
X1221009D02*
D03*
X1337782Y658424D02*
D03*
X1329514D02*
D03*
Y666700D02*
D03*
X1337782D02*
D03*
X1149668Y664700D02*
D03*
X1141400D02*
D03*
X1132720Y696700D02*
D03*
X1124453D02*
D03*
X932266Y520866D02*
D03*
X940534D02*
D03*
X956766Y485200D02*
D03*
X965034D02*
D03*
X841418Y665700D02*
D03*
X833150D02*
D03*
X1004034Y508700D02*
D03*
X995766D02*
D03*
X973580Y451200D02*
D03*
X981847D02*
D03*
Y443421D02*
D03*
X973580D02*
D03*
X878627Y633571D02*
D03*
X870360D02*
D03*
X825731Y698700D02*
D03*
X817464D02*
D03*
Y706480D02*
D03*
X825731D02*
D03*
X662869Y640493D02*
D03*
X654601D02*
D03*
X621735Y716700D02*
D03*
X630002D02*
D03*
X621735Y709078D02*
D03*
X630002D02*
D03*
X1177164Y635200D02*
D03*
X1185432D02*
D03*
X978042Y647522D02*
D03*
X986310D02*
D03*
D29*
X1146420Y687161D02*
D03*
Y694444D02*
D03*
X1164561Y481551D02*
D03*
Y488835D02*
D03*
X1041077Y609541D02*
D03*
Y616824D02*
D03*
X1021400Y519713D02*
D03*
Y512430D02*
D03*
X961786Y462486D02*
D03*
Y455202D02*
D03*
X893365Y545079D02*
D03*
Y537795D02*
D03*
X874458Y545079D02*
D03*
Y537795D02*
D03*
X842662Y538090D02*
D03*
Y545374D02*
D03*
X804852Y603523D02*
D03*
Y596239D02*
D03*
X873411Y622491D02*
D03*
Y615207D02*
D03*
X851752Y615502D02*
D03*
Y622786D02*
D03*
X679209Y734272D02*
D03*
Y741555D02*
D03*
X801200Y439017D02*
D03*
Y446300D02*
D03*
X965386Y434692D02*
D03*
Y441976D02*
D03*
X947600Y633500D02*
D03*
Y626217D02*
D03*
X835020Y694726D02*
D03*
Y687442D02*
D03*
X814402Y596239D02*
D03*
Y603523D02*
D03*
X833052Y615502D02*
D03*
Y622786D02*
D03*
X842620Y615500D02*
D03*
Y622784D02*
D03*
X882880Y615205D02*
D03*
Y622489D02*
D03*
X883865Y545079D02*
D03*
Y537795D02*
D03*
X667660Y522393D02*
D03*
Y529676D02*
D03*
D32*
X1207850Y607596D02*
D03*
X1200567D02*
D03*
X1207406Y581086D02*
D03*
X1200123D02*
D03*
X1102841Y547200D02*
D03*
X1110124D02*
D03*
X1045117Y547200D02*
D03*
X1052400D02*
D03*
X973385Y408851D02*
D03*
X980668D02*
D03*
X901401Y588512D02*
D03*
X908684D02*
D03*
X901401Y598109D02*
D03*
X908684D02*
D03*
X738700Y482900D02*
D03*
X731417D02*
D03*
X817873Y714900D02*
D03*
X825157D02*
D03*
X1124945Y712400D02*
D03*
X1132228D02*
D03*
X980634Y749210D02*
D03*
X973350D02*
D03*
X820012Y588553D02*
D03*
X812729D02*
D03*
X820065Y574741D02*
D03*
X812782D02*
D03*
X901401Y574338D02*
D03*
X908684D02*
D03*
X980963Y434200D02*
D03*
X973680D02*
D03*
D35*
X1200119Y570432D02*
D03*
X1207409D02*
D03*
X1174725Y561000D02*
D03*
X1182014D02*
D03*
X1328921Y696062D02*
D03*
X1336210D02*
D03*
X1328921Y707794D02*
D03*
X1336210D02*
D03*
X647255Y715991D02*
D03*
X654545D02*
D03*
D41*
X981246Y425346D02*
D03*
Y417865D02*
D03*
X972975D02*
D03*
Y421606D02*
D03*
D42*
Y425346D02*
D03*
D44*
X1235900Y598365D02*
D03*
Y615295D02*
D03*
Y581565D02*
D03*
Y564636D02*
D03*
X654548Y505267D02*
D03*
Y522196D02*
D03*
X674634Y702500D02*
D03*
Y685570D02*
D03*
D46*
X1031600Y602795D02*
D03*
X1026600D02*
D03*
X1021600D02*
D03*
X1016600D02*
D03*
Y624055D02*
D03*
X1021600D02*
D03*
X1026600D02*
D03*
X1031600D02*
D03*
D47*
X1221009Y583530D02*
D03*
Y590820D02*
D03*
X1188475Y483864D02*
D03*
Y491153D02*
D03*
X1215270Y538156D02*
D03*
Y545446D02*
D03*
X1230134Y485485D02*
D03*
Y492775D02*
D03*
X1218844Y485485D02*
D03*
Y492775D02*
D03*
X626900Y623197D02*
D03*
Y630487D02*
D03*
X682700Y619345D02*
D03*
Y612055D02*
D03*
X682742Y637839D02*
D03*
Y630549D02*
D03*
D52*
X763624Y496732D02*
D03*
X754176Y492991D02*
D03*
Y500472D02*
D03*
X1133311Y680960D02*
D03*
Y688440D02*
D03*
X1123862Y684700D02*
D03*
X973660Y467940D02*
D03*
Y460460D02*
D03*
X983109Y464200D02*
D03*
X825353Y681637D02*
D03*
Y689117D02*
D03*
X815905Y685377D02*
D03*
D54*
X1301120Y722243D02*
D03*
X1304270D02*
D03*
X1307420D02*
D03*
X1310569D02*
D03*
X1313719D02*
D03*
D55*
X1289900Y743700D02*
D03*
X1324939D02*
D03*
X1289939Y722243D02*
D03*
X1324939D02*
D03*
D58*
X640270Y632200D02*
D03*
Y627200D02*
D03*
Y622200D02*
D03*
Y617200D02*
D03*
X661530D02*
D03*
Y622200D02*
D03*
Y627200D02*
D03*
Y632200D02*
D03*
D59*
X658197Y669200D02*
D03*
X675126D02*
D03*
D60*
X645585Y704513D02*
D03*
Y700773D02*
D03*
Y697033D02*
D03*
X656215D02*
D03*
Y700773D02*
D03*
Y704513D02*
D03*
D73*
X854484Y544586D02*
D03*
X862751D02*
D03*
Y538287D02*
D03*
X854484D02*
D03*
D75*
X829246Y598700D02*
D03*
D80*
X1255959Y571003D02*
D03*
Y562342D02*
D03*
Y579665D02*
D03*
Y588326D02*
D03*
X707030Y561553D02*
D03*
Y570215D02*
D03*
Y587537D02*
D03*
Y578876D02*
D03*
D82*
X1173932Y592560D02*
D03*
D83*
X1163932D02*
D03*
X1153932D02*
D03*
X1143932D02*
D03*
X1133932D02*
D03*
X928889Y604339D02*
D03*
Y594339D02*
D03*
Y584339D02*
D03*
D84*
X870890Y517224D02*
D03*
D85*
X860890D02*
D03*
X850890D02*
D03*
D91*
X1298758Y732401D02*
D03*
X1316081D02*
D03*
D93*
X1002900Y583553D02*
D03*
X958048Y574892D02*
D03*
Y556551D02*
D03*
X1002900D02*
D03*
X1321900Y662200D02*
D03*
X1321245Y677834D02*
D03*
X1336699Y722243D02*
D03*
X1157609Y680357D02*
D03*
X1100739Y633231D02*
D03*
X1207782Y559300D02*
D03*
X913900Y517200D02*
D03*
X955156Y442007D02*
D03*
X901826Y555654D02*
D03*
X692975Y511763D02*
D03*
X658197Y656700D02*
D03*
X674634Y715991D02*
D03*
X1148923Y483000D02*
D03*
X947349Y470100D02*
D03*
X1235400Y528552D02*
D03*
X913015Y555936D02*
D03*
X746703Y511191D02*
D03*
X745439Y537998D02*
D03*
X1235400Y547903D02*
D03*
X1259671Y614409D02*
D03*
X1296421Y677834D02*
D03*
X1195296Y635200D02*
D03*
X1142039Y704242D02*
D03*
X1007274Y619728D02*
D03*
X986250Y675200D02*
D03*
X976309D02*
D03*
X1145195Y459748D02*
D03*
X932266Y530109D02*
D03*
X995766Y517944D02*
D03*
X886967Y633675D02*
D03*
X851044Y680855D02*
D03*
X834894Y706480D02*
D03*
X792900Y457200D02*
D03*
X645399Y687361D02*
D03*
X655987D02*
D03*
X969506Y647480D02*
D03*
D94*
X975492Y582765D02*
D03*
Y575285D02*
D03*
X984154Y579025D02*
D03*
X975492Y564425D02*
D03*
Y556945D02*
D03*
X984154Y560685D02*
D03*
X985758Y684720D02*
D03*
Y692200D02*
D03*
X977097Y688460D02*
D03*
X674871Y503523D02*
D03*
X666210Y499783D02*
D03*
Y507263D02*
D03*
D95*
X1230529Y629600D02*
D03*
X1222261D02*
D03*
X981290Y657522D02*
D03*
X973022D02*
D03*
D96*
X1207582Y588656D02*
D03*
X1200102D02*
D03*
Y598695D02*
D03*
X1203842D02*
D03*
X1207582D02*
D03*
D97*
X1182014Y506062D02*
D03*
Y544251D02*
D03*
D98*
X1058400Y556014D02*
D03*
Y561014D02*
D03*
Y566014D02*
D03*
Y571014D02*
D03*
Y576014D02*
D03*
Y581014D02*
D03*
Y586014D02*
D03*
X1039502Y556014D02*
D03*
Y561014D02*
D03*
Y566014D02*
D03*
Y571014D02*
D03*
Y576014D02*
D03*
Y581014D02*
D03*
Y586014D02*
D03*
X1115932Y555968D02*
D03*
Y560968D02*
D03*
Y565968D02*
D03*
Y570968D02*
D03*
Y575968D02*
D03*
Y580968D02*
D03*
Y585968D02*
D03*
X1097034Y555968D02*
D03*
Y560968D02*
D03*
Y565968D02*
D03*
Y570968D02*
D03*
Y575968D02*
D03*
Y580968D02*
D03*
Y585968D02*
D03*
D99*
X964624Y508857D02*
D03*
Y513858D02*
D03*
X939624Y508857D02*
D03*
Y513858D02*
D03*
X1143400Y640700D02*
D03*
Y635700D02*
D03*
X1168400Y640700D02*
D03*
Y635700D02*
D03*
X837284Y638675D02*
D03*
Y633675D02*
D03*
X862284Y638675D02*
D03*
Y633675D02*
D03*
D100*
X1011900Y522491D02*
D03*
Y508909D02*
D03*
D101*
X978387Y477157D02*
D03*
Y499243D02*
D03*
X759900Y509523D02*
D03*
Y531609D02*
D03*
X1128587Y649156D02*
D03*
Y671242D02*
D03*
X820826Y650500D02*
D03*
Y672586D02*
D03*
D102*
X632987Y728842D02*
D03*
X668813D02*
D03*
X632987Y746558D02*
D03*
X668813D02*
D03*
X959426Y619728D02*
D03*
X995253D02*
D03*
X959426Y637444D02*
D03*
X995253D02*
D03*
D103*
X1200053Y487162D02*
D03*
Y489130D02*
D03*
Y491099D02*
D03*
Y493067D02*
D03*
X1206651D02*
D03*
Y491099D02*
D03*
Y489130D02*
D03*
Y487162D02*
D03*
D104*
X834167Y595747D02*
D03*
Y597716D02*
D03*
Y599684D02*
D03*
Y601653D02*
D03*
X824324D02*
D03*
Y599684D02*
D03*
Y597716D02*
D03*
Y595747D02*
D03*
D105*
X851016Y564752D02*
D03*
X852591D02*
D03*
X854166D02*
D03*
X855741D02*
D03*
X857316D02*
D03*
X858890D02*
D03*
X860465D02*
D03*
X862040D02*
D03*
X863615D02*
D03*
X865189D02*
D03*
X866764D02*
D03*
X868339D02*
D03*
X869914D02*
D03*
X871489D02*
D03*
Y591799D02*
D03*
X869914D02*
D03*
X868339D02*
D03*
X866764D02*
D03*
X865189D02*
D03*
X863615D02*
D03*
X862040D02*
D03*
X860465D02*
D03*
X858890D02*
D03*
X857316D02*
D03*
X855741D02*
D03*
X854166D02*
D03*
X852591D02*
D03*
X851016D02*
D03*
D106*
X861252Y578275D02*
D03*
D107*
X847729Y588512D02*
D03*
Y586937D02*
D03*
Y585362D02*
D03*
Y583787D02*
D03*
Y582212D02*
D03*
Y580638D02*
D03*
Y579063D02*
D03*
Y577488D02*
D03*
Y575913D02*
D03*
Y574338D02*
D03*
Y572764D02*
D03*
Y571189D02*
D03*
Y569614D02*
D03*
Y568039D02*
D03*
X874776D02*
D03*
Y569614D02*
D03*
Y571189D02*
D03*
Y572764D02*
D03*
Y574338D02*
D03*
Y575913D02*
D03*
Y577488D02*
D03*
Y580638D02*
D03*
Y579063D02*
D03*
Y582212D02*
D03*
Y583787D02*
D03*
Y585362D02*
D03*
Y586937D02*
D03*
Y588512D02*
D03*
D108*
X736725Y538676D02*
D03*
X731725D02*
D03*
X736725Y513676D02*
D03*
X731725D02*
D03*
X627837Y699322D02*
D03*
X622837D02*
D03*
X627837Y674322D02*
D03*
X622837D02*
D03*
D109*
X1244900Y586289D02*
D03*
Y591998D02*
D03*
D110*
X968042Y738613D02*
D03*
Y702787D02*
D03*
X985758Y738613D02*
D03*
Y702787D02*
D03*
D118*
X1279459Y559326D02*
D03*
X1279975Y591082D02*
D03*
X683014Y558797D02*
D03*
X683530Y590553D02*
D03*
D119*
X667660Y442700D02*
D03*
X1295282D02*
D03*
X746400D02*
D03*
Y706480D02*
D03*
X899943D02*
D03*
Y442700D02*
D03*
X1053487D02*
D03*
Y706480D02*
D03*
X1207030D02*
D03*
Y442700D02*
D03*
D120*
X633900Y508732D02*
D03*
D121*
Y518731D02*
D03*
D122*
X928889Y574338D02*
D03*
M02*
