G04*
G04 #@! TF.GenerationSoftware,Altium Limited,Altium Designer,24.2.2 (26)*
G04*
G04 Layer_Color=255*
%FSLAX25Y25*%
%MOIN*%
G70*
G04*
G04 #@! TF.SameCoordinates,E85AF581-5EDA-4222-B011-A7CF2EBE2122*
G04*
G04*
G04 #@! TF.FilePolarity,Positive*
G04*
G01*
G75*
%ADD20C,0.00197*%
%ADD80C,0.07087*%
%ADD82R,0.06102X0.06102*%
%ADD83C,0.06102*%
%ADD84R,0.05469X0.05469*%
%ADD85C,0.05469*%
%ADD91C,0.04331*%
%ADD118C,0.21260*%
%ADD119C,0.51181*%
%ADD120C,0.06693*%
%ADD121R,0.06693X0.06693*%
%ADD122R,0.06102X0.06102*%
D20*
X1243916Y587503D02*
X1245884D01*
Y588487D01*
X1245556Y588815D01*
X1244244D01*
X1243916Y588487D01*
Y587503D01*
X1245884Y590455D02*
X1243916D01*
X1244900Y589471D01*
Y590783D01*
D80*
X1255959Y571003D02*
D03*
Y562342D02*
D03*
Y579665D02*
D03*
Y588326D02*
D03*
X707030Y561553D02*
D03*
Y570215D02*
D03*
Y587537D02*
D03*
Y578876D02*
D03*
D82*
X1173932Y592560D02*
D03*
D83*
X1163932D02*
D03*
X1153932D02*
D03*
X1143932D02*
D03*
X1133932D02*
D03*
X928889Y604339D02*
D03*
Y594339D02*
D03*
Y584339D02*
D03*
D84*
X870890Y517224D02*
D03*
D85*
X860890D02*
D03*
X850890D02*
D03*
D91*
X1298758Y732401D02*
D03*
X1316081D02*
D03*
D118*
X1279459Y559326D02*
D03*
X1279975Y591082D02*
D03*
X683014Y558797D02*
D03*
X683530Y590553D02*
D03*
D119*
X667660Y442700D02*
D03*
X1295282D02*
D03*
X746400D02*
D03*
Y706480D02*
D03*
X899943D02*
D03*
Y442700D02*
D03*
X1053487D02*
D03*
Y706480D02*
D03*
X1207030D02*
D03*
Y442700D02*
D03*
D120*
X633900Y508732D02*
D03*
D121*
Y518731D02*
D03*
D122*
X928889Y574338D02*
D03*
M02*
