G04*
G04 #@! TF.GenerationSoftware,Altium Limited,Altium Designer,24.2.2 (26)*
G04*
G04 Layer_Color=2752767*
%FSLAX25Y25*%
%MOIN*%
G70*
G04*
G04 #@! TF.SameCoordinates,E85AF581-5EDA-4222-B011-A7CF2EBE2122*
G04*
G04*
G04 #@! TF.FilePolarity,Positive*
G04*
G01*
G75*
%ADD16C,0.00500*%
%ADD20C,0.00197*%
%ADD125C,0.00667*%
D16*
X1279459Y557326D02*
X1277459Y561326D01*
X1281459D01*
X1279459Y557326D01*
X1279975Y589082D02*
X1277975Y593082D01*
X1281975D01*
X1279975Y589082D01*
X1171932Y590560D02*
Y594560D01*
X1175932D01*
Y590560D01*
X1171932D01*
X1172732Y591360D02*
Y593760D01*
X1175132D01*
Y591360D01*
X1172732D01*
X1161932Y590560D02*
Y594560D01*
X1165932D01*
Y590560D01*
X1161932D01*
X1162732Y591360D02*
Y593760D01*
X1165132D01*
Y591360D01*
X1162732D01*
X1151932Y590560D02*
Y594560D01*
X1155932D01*
Y590560D01*
X1151932D01*
X1152732Y591360D02*
Y593760D01*
X1155132D01*
Y591360D01*
X1152732D01*
X1141932Y590560D02*
Y594560D01*
X1145932D01*
Y590560D01*
X1141932D01*
X1142732Y591360D02*
Y593760D01*
X1145132D01*
Y591360D01*
X1142732D01*
X1131932Y590560D02*
Y594560D01*
X1135932D01*
Y590560D01*
X1131932D01*
X1132732Y591360D02*
Y593760D01*
X1135132D01*
Y591360D01*
X1132732D01*
X868890Y515224D02*
X869890Y517224D01*
X868890Y519224D01*
X870890Y518224D01*
X872890Y519224D01*
X871890Y517224D01*
X872890Y515224D01*
X870890Y516224D01*
X868890Y515224D01*
X858890D02*
X859890Y517224D01*
X858890Y519224D01*
X860890Y518224D01*
X862890Y519224D01*
X861890Y517224D01*
X862890Y515224D01*
X860890Y516224D01*
X858890Y515224D01*
X848890D02*
X849890Y517224D01*
X848890Y519224D01*
X850890Y518224D01*
X852890Y519224D01*
X851890Y517224D01*
X852890Y515224D01*
X850890Y516224D01*
X848890Y515224D01*
X666660Y441700D02*
Y440700D01*
X668660D01*
Y441700D01*
X669660D01*
Y443700D01*
X668660D01*
Y444700D01*
X666660D01*
Y443700D01*
X665660D01*
Y441700D01*
X666660D01*
X631900Y506732D02*
Y510732D01*
X635900D01*
Y506732D01*
X631900D01*
Y516732D02*
Y520731D01*
X635900D01*
Y516732D01*
X631900D01*
X683014Y556797D02*
X681014Y560797D01*
X685014D01*
X683014Y556797D01*
X683530Y588553D02*
X681530Y592553D01*
X685530D01*
X683530Y588553D01*
X1294282Y441700D02*
Y440700D01*
X1296282D01*
Y441700D01*
X1297282D01*
Y443700D01*
X1296282D01*
Y444700D01*
X1294282D01*
Y443700D01*
X1293282D01*
Y441700D01*
X1294282D01*
X745400D02*
Y440700D01*
X747400D01*
Y441700D01*
X748400D01*
Y443700D01*
X747400D01*
Y444700D01*
X745400D01*
Y443700D01*
X744400D01*
Y441700D01*
X745400D01*
Y705480D02*
Y704480D01*
X747400D01*
Y705480D01*
X748400D01*
Y707480D01*
X747400D01*
Y708480D01*
X745400D01*
Y707480D01*
X744400D01*
Y705480D01*
X745400D01*
X898943D02*
Y704480D01*
X900943D01*
Y705480D01*
X901943D01*
Y707480D01*
X900943D01*
Y708480D01*
X898943D01*
Y707480D01*
X897943D01*
Y705480D01*
X898943D01*
Y441700D02*
Y440700D01*
X900943D01*
Y441700D01*
X901943D01*
Y443700D01*
X900943D01*
Y444700D01*
X898943D01*
Y443700D01*
X897943D01*
Y441700D01*
X898943D01*
X1052487D02*
Y440700D01*
X1054487D01*
Y441700D01*
X1055487D01*
Y443700D01*
X1054487D01*
Y444700D01*
X1052487D01*
Y443700D01*
X1051487D01*
Y441700D01*
X1052487D01*
Y705480D02*
Y704480D01*
X1054487D01*
Y705480D01*
X1055487D01*
Y707480D01*
X1054487D01*
Y708480D01*
X1052487D01*
Y707480D01*
X1051487D01*
Y705480D01*
X1052487D01*
X1206030D02*
Y704480D01*
X1208030D01*
Y705480D01*
X1209030D01*
Y707480D01*
X1208030D01*
Y708480D01*
X1206030D01*
Y707480D01*
X1205030D01*
Y705480D01*
X1206030D01*
Y441700D02*
Y440700D01*
X1208030D01*
Y441700D01*
X1209030D01*
Y443700D01*
X1208030D01*
Y444700D01*
X1206030D01*
Y443700D01*
X1205030D01*
Y441700D01*
X1206030D01*
X926889Y604339D02*
X928889Y606339D01*
X930889Y604339D01*
X928889Y602339D01*
X926889Y604339D01*
Y594339D02*
X928889Y596339D01*
X930889Y594339D01*
X928889Y592339D01*
X926889Y594339D01*
Y584339D02*
X928889Y586339D01*
X930889Y584339D01*
X928889Y582338D01*
X926889Y584339D01*
Y574338D02*
X928889Y576338D01*
X930889Y574338D01*
X928889Y572338D01*
X926889Y574338D01*
X1298758Y730401D02*
X1299758Y731401D01*
X1300758D01*
X1299758Y732401D01*
X1300758Y733401D01*
X1299758D01*
X1298758Y734401D01*
X1297758Y733401D01*
X1296758D01*
X1297758Y732401D01*
X1296758Y731401D01*
X1297758D01*
X1298758Y730401D01*
X1316081D02*
X1317081Y731401D01*
X1318081D01*
X1317081Y732401D01*
X1318081Y733401D01*
X1317081D01*
X1316081Y734401D01*
X1315081Y733401D01*
X1314081D01*
X1315081Y732401D01*
X1314081Y731401D01*
X1315081D01*
X1316081Y730401D01*
X685345Y440700D02*
X686345D01*
X687345Y441700D01*
X688345Y440700D01*
X689345D01*
Y441700D01*
X688345Y442700D01*
X689345Y443700D01*
Y444700D01*
X688345D01*
X687345Y443700D01*
X686345Y444700D01*
X685345D01*
Y443700D01*
X686345Y442700D01*
X685345Y441700D01*
Y440700D01*
X684158Y447433D02*
X685158D01*
X686158Y448433D01*
X687158Y447433D01*
X688158D01*
Y448433D01*
X687158Y449433D01*
X688158Y450433D01*
Y451433D01*
X687158D01*
X686158Y450433D01*
X685158Y451433D01*
X684158D01*
Y450433D01*
X685158Y449433D01*
X684158Y448433D01*
Y447433D01*
X680739Y453353D02*
X681740D01*
X682739Y454353D01*
X683740Y453353D01*
X684739D01*
Y454353D01*
X683740Y455353D01*
X684739Y456353D01*
Y457353D01*
X683740D01*
X682739Y456353D01*
X681740Y457353D01*
X680739D01*
Y456353D01*
X681740Y455353D01*
X680739Y454353D01*
Y453353D01*
X675502Y457748D02*
X676502D01*
X677502Y458748D01*
X678502Y457748D01*
X679502D01*
Y458748D01*
X678502Y459748D01*
X679502Y460748D01*
Y461748D01*
X678502D01*
X677502Y460748D01*
X676502Y461748D01*
X675502D01*
Y460748D01*
X676502Y459748D01*
X675502Y458748D01*
Y457748D01*
X669078Y460086D02*
X670078D01*
X671078Y461086D01*
X672078Y460086D01*
X673078D01*
Y461086D01*
X672078Y462086D01*
X673078Y463086D01*
Y464086D01*
X672078D01*
X671078Y463086D01*
X670078Y464086D01*
X669078D01*
Y463086D01*
X670078Y462086D01*
X669078Y461086D01*
Y460086D01*
X662242D02*
X663242D01*
X664242Y461086D01*
X665242Y460086D01*
X666242D01*
Y461086D01*
X665242Y462086D01*
X666242Y463086D01*
Y464086D01*
X665242D01*
X664242Y463086D01*
X663242Y464086D01*
X662242D01*
Y463086D01*
X663242Y462086D01*
X662242Y461086D01*
Y460086D01*
X655817Y457748D02*
X656817D01*
X657817Y458748D01*
X658817Y457748D01*
X659817D01*
Y458748D01*
X658817Y459748D01*
X659817Y460748D01*
Y461748D01*
X658817D01*
X657817Y460748D01*
X656817Y461748D01*
X655817D01*
Y460748D01*
X656817Y459748D01*
X655817Y458748D01*
Y457748D01*
X650580Y453353D02*
X651580D01*
X652580Y454353D01*
X653580Y453353D01*
X654580D01*
Y454353D01*
X653580Y455353D01*
X654580Y456353D01*
Y457353D01*
X653580D01*
X652580Y456353D01*
X651580Y457353D01*
X650580D01*
Y456353D01*
X651580Y455353D01*
X650580Y454353D01*
Y453353D01*
X647162Y447433D02*
X648162D01*
X649162Y448433D01*
X650162Y447433D01*
X651162D01*
Y448433D01*
X650162Y449433D01*
X651162Y450433D01*
Y451433D01*
X650162D01*
X649162Y450433D01*
X648162Y451433D01*
X647162D01*
Y450433D01*
X648162Y449433D01*
X647162Y448433D01*
Y447433D01*
X645975Y440700D02*
X646975D01*
X647975Y441700D01*
X648975Y440700D01*
X649975D01*
Y441700D01*
X648975Y442700D01*
X649975Y443700D01*
Y444700D01*
X648975D01*
X647975Y443700D01*
X646975Y444700D01*
X645975D01*
Y443700D01*
X646975Y442700D01*
X645975Y441700D01*
Y440700D01*
X647162Y433967D02*
X648162D01*
X649162Y434967D01*
X650162Y433967D01*
X651162D01*
Y434967D01*
X650162Y435967D01*
X651162Y436967D01*
Y437967D01*
X650162D01*
X649162Y436967D01*
X648162Y437967D01*
X647162D01*
Y436967D01*
X648162Y435967D01*
X647162Y434967D01*
Y433967D01*
X650580Y428047D02*
X651580D01*
X652580Y429047D01*
X653580Y428047D01*
X654580D01*
Y429047D01*
X653580Y430047D01*
X654580Y431047D01*
Y432047D01*
X653580D01*
X652580Y431047D01*
X651580Y432047D01*
X650580D01*
Y431047D01*
X651580Y430047D01*
X650580Y429047D01*
Y428047D01*
X655817Y423652D02*
X656817D01*
X657817Y424652D01*
X658817Y423652D01*
X659817D01*
Y424652D01*
X658817Y425652D01*
X659817Y426652D01*
Y427652D01*
X658817D01*
X657817Y426652D01*
X656817Y427652D01*
X655817D01*
Y426652D01*
X656817Y425652D01*
X655817Y424652D01*
Y423652D01*
X662242Y421314D02*
X663242D01*
X664242Y422314D01*
X665242Y421314D01*
X666242D01*
Y422314D01*
X665242Y423314D01*
X666242Y424314D01*
Y425314D01*
X665242D01*
X664242Y424314D01*
X663242Y425314D01*
X662242D01*
Y424314D01*
X663242Y423314D01*
X662242Y422314D01*
Y421314D01*
X669078D02*
X670078D01*
X671078Y422314D01*
X672078Y421314D01*
X673078D01*
Y422314D01*
X672078Y423314D01*
X673078Y424314D01*
Y425314D01*
X672078D01*
X671078Y424314D01*
X670078Y425314D01*
X669078D01*
Y424314D01*
X670078Y423314D01*
X669078Y422314D01*
Y421314D01*
X675502Y423652D02*
X676502D01*
X677502Y424652D01*
X678502Y423652D01*
X679502D01*
Y424652D01*
X678502Y425652D01*
X679502Y426652D01*
Y427652D01*
X678502D01*
X677502Y426652D01*
X676502Y427652D01*
X675502D01*
Y426652D01*
X676502Y425652D01*
X675502Y424652D01*
Y423652D01*
X680739Y428047D02*
X681740D01*
X682739Y429047D01*
X683740Y428047D01*
X684739D01*
Y429047D01*
X683740Y430047D01*
X684739Y431047D01*
Y432047D01*
X683740D01*
X682739Y431047D01*
X681740Y432047D01*
X680739D01*
Y431047D01*
X681740Y430047D01*
X680739Y429047D01*
Y428047D01*
X684158Y433967D02*
X685158D01*
X686158Y434967D01*
X687158Y433967D01*
X688158D01*
Y434967D01*
X687158Y435967D01*
X688158Y436967D01*
Y437967D01*
X687158D01*
X686158Y436967D01*
X685158Y437967D01*
X684158D01*
Y436967D01*
X685158Y435967D01*
X684158Y434967D01*
Y433967D01*
X646018Y638638D02*
X647018D01*
X648018Y639639D01*
X649018Y638638D01*
X650018D01*
Y639639D01*
X649018Y640638D01*
X650018Y641639D01*
Y642638D01*
X649018D01*
X648018Y641639D01*
X647018Y642638D01*
X646018D01*
Y641639D01*
X647018Y640638D01*
X646018Y639639D01*
Y638638D01*
X1053057Y625718D02*
X1054058D01*
X1055058Y626718D01*
X1056057Y625718D01*
X1057057D01*
Y626718D01*
X1056057Y627718D01*
X1057057Y628718D01*
Y629718D01*
X1056057D01*
X1055058Y628718D01*
X1054058Y629718D01*
X1053057D01*
Y628718D01*
X1054058Y627718D01*
X1053057Y626718D01*
Y625718D01*
Y617728D02*
X1054058D01*
X1055058Y618728D01*
X1056057Y617728D01*
X1057057D01*
Y618728D01*
X1056057Y619728D01*
X1057057Y620728D01*
Y621728D01*
X1056057D01*
X1055058Y620728D01*
X1054058Y621728D01*
X1053057D01*
Y620728D01*
X1054058Y619728D01*
X1053057Y618728D01*
Y617728D01*
X1084601Y553992D02*
X1085601D01*
X1086601Y554992D01*
X1087601Y553992D01*
X1088601D01*
Y554992D01*
X1087601Y555992D01*
X1088601Y556992D01*
Y557992D01*
X1087601D01*
X1086601Y556992D01*
X1085601Y557992D01*
X1084601D01*
Y556992D01*
X1085601Y555992D01*
X1084601Y554992D01*
Y553992D01*
X1039035Y597750D02*
X1040035D01*
X1041035Y598750D01*
X1042035Y597750D01*
X1043035D01*
Y598750D01*
X1042035Y599750D01*
X1043035Y600750D01*
Y601750D01*
X1042035D01*
X1041035Y600750D01*
X1040035Y601750D01*
X1039035D01*
Y600750D01*
X1040035Y599750D01*
X1039035Y598750D01*
Y597750D01*
X1005290Y599876D02*
X1006290D01*
X1007290Y600877D01*
X1008290Y599876D01*
X1009290D01*
Y600877D01*
X1008290Y601876D01*
X1009290Y602877D01*
Y603876D01*
X1008290D01*
X1007290Y602877D01*
X1006290Y603876D01*
X1005290D01*
Y602877D01*
X1006290Y601876D01*
X1005290Y600877D01*
Y599876D01*
X1016900Y578968D02*
X1017900D01*
X1018900Y579968D01*
X1019900Y578968D01*
X1020900D01*
Y579968D01*
X1019900Y580968D01*
X1020900Y581968D01*
Y582968D01*
X1019900D01*
X1018900Y581968D01*
X1017900Y582968D01*
X1016900D01*
Y581968D01*
X1017900Y580968D01*
X1016900Y579968D01*
Y578968D01*
X1016946Y584014D02*
X1017946D01*
X1018946Y585014D01*
X1019946Y584014D01*
X1020946D01*
Y585014D01*
X1019946Y586014D01*
X1020946Y587014D01*
Y588014D01*
X1019946D01*
X1018946Y587014D01*
X1017946Y588014D01*
X1016946D01*
Y587014D01*
X1017946Y586014D01*
X1016946Y585014D01*
Y584014D01*
X1127472Y640264D02*
X1128472D01*
X1129472Y641264D01*
X1130472Y640264D01*
X1131472D01*
Y641264D01*
X1130472Y642264D01*
X1131472Y643264D01*
Y644264D01*
X1130472D01*
X1129472Y643264D01*
X1128472Y644264D01*
X1127472D01*
Y643264D01*
X1128472Y642264D01*
X1127472Y641264D01*
Y640264D01*
X1061715Y622783D02*
X1062715D01*
X1063715Y623782D01*
X1064715Y622783D01*
X1065715D01*
Y623782D01*
X1064715Y624783D01*
X1065715Y625782D01*
Y626783D01*
X1064715D01*
X1063715Y625782D01*
X1062715Y626783D01*
X1061715D01*
Y625782D01*
X1062715Y624783D01*
X1061715Y623782D01*
Y622783D01*
X1109400Y632200D02*
X1110400D01*
X1111400Y633200D01*
X1112400Y632200D01*
X1113400D01*
Y633200D01*
X1112400Y634200D01*
X1113400Y635200D01*
Y636200D01*
X1112400D01*
X1111400Y635200D01*
X1110400Y636200D01*
X1109400D01*
Y635200D01*
X1110400Y634200D01*
X1109400Y633200D01*
Y632200D01*
X980914Y505981D02*
X981914D01*
X982914Y506982D01*
X983914Y505981D01*
X984914D01*
Y506982D01*
X983914Y507981D01*
X984914Y508982D01*
Y509981D01*
X983914D01*
X982914Y508982D01*
X981914Y509981D01*
X980914D01*
Y508982D01*
X981914Y507981D01*
X980914Y506982D01*
Y505981D01*
X1002086Y513648D02*
X1003086D01*
X1004086Y514648D01*
X1005086Y513648D01*
X1006086D01*
Y514648D01*
X1005086Y515648D01*
X1006086Y516648D01*
Y517648D01*
X1005086D01*
X1004086Y516648D01*
X1003086Y517648D01*
X1002086D01*
Y516648D01*
X1003086Y515648D01*
X1002086Y514648D01*
Y513648D01*
X1108125Y536200D02*
X1109124D01*
X1110124Y537200D01*
X1111125Y536200D01*
X1112125D01*
Y537200D01*
X1111125Y538200D01*
X1112125Y539200D01*
Y540200D01*
X1111125D01*
X1110124Y539200D01*
X1109124Y540200D01*
X1108125D01*
Y539200D01*
X1109124Y538200D01*
X1108125Y537200D01*
Y536200D01*
X1126587Y568968D02*
X1127587D01*
X1128587Y569968D01*
X1129587Y568968D01*
X1130587D01*
Y569968D01*
X1129587Y570968D01*
X1130587Y571968D01*
Y572968D01*
X1129587D01*
X1128587Y571968D01*
X1127587Y572968D01*
X1126587D01*
Y571968D01*
X1127587Y570968D01*
X1126587Y569968D01*
Y568968D01*
X1100841Y536200D02*
X1101841D01*
X1102841Y537200D01*
X1103841Y536200D01*
X1104841D01*
Y537200D01*
X1103841Y538200D01*
X1104841Y539200D01*
Y540200D01*
X1103841D01*
X1102841Y539200D01*
X1101841Y540200D01*
X1100841D01*
Y539200D01*
X1101841Y538200D01*
X1100841Y537200D01*
Y536200D01*
X1043117Y536200D02*
X1044117D01*
X1045117Y537200D01*
X1046117Y536200D01*
X1047117D01*
Y537200D01*
X1046117Y538200D01*
X1047117Y539200D01*
Y540200D01*
X1046117D01*
X1045117Y539200D01*
X1044117Y540200D01*
X1043117D01*
Y539200D01*
X1044117Y538200D01*
X1043117Y537200D01*
Y536200D01*
X1071897Y537868D02*
X1072897D01*
X1073897Y538868D01*
X1074897Y537868D01*
X1075897D01*
Y538868D01*
X1074897Y539868D01*
X1075897Y540868D01*
Y541868D01*
X1074897D01*
X1073897Y540868D01*
X1072897Y541868D01*
X1071897D01*
Y540868D01*
X1072897Y539868D01*
X1071897Y538868D01*
Y537868D01*
X1050400Y536200D02*
X1051400D01*
X1052400Y537200D01*
X1053400Y536200D01*
X1054400D01*
Y537200D01*
X1053400Y538200D01*
X1054400Y539200D01*
Y540200D01*
X1053400D01*
X1052400Y539200D01*
X1051400Y540200D01*
X1050400D01*
Y539200D01*
X1051400Y538200D01*
X1050400Y537200D01*
Y536200D01*
X1103500Y496700D02*
X1104500D01*
X1105500Y497700D01*
X1106500Y496700D01*
X1107500D01*
Y497700D01*
X1106500Y498700D01*
X1107500Y499700D01*
Y500700D01*
X1106500D01*
X1105500Y499700D01*
X1104500Y500700D01*
X1103500D01*
Y499700D01*
X1104500Y498700D01*
X1103500Y497700D01*
Y496700D01*
X1162593Y559000D02*
X1163593D01*
X1164593Y560000D01*
X1165593Y559000D01*
X1166593D01*
Y560000D01*
X1165593Y561000D01*
X1166593Y562000D01*
Y563000D01*
X1165593D01*
X1164593Y562000D01*
X1163593Y563000D01*
X1162593D01*
Y562000D01*
X1163593Y561000D01*
X1162593Y560000D01*
Y559000D01*
X1019400Y527200D02*
X1020400D01*
X1021400Y528200D01*
X1022400Y527200D01*
X1023400D01*
Y528200D01*
X1022400Y529200D01*
X1023400Y530200D01*
Y531200D01*
X1022400D01*
X1021400Y530200D01*
X1020400Y531200D01*
X1019400D01*
Y530200D01*
X1020400Y529200D01*
X1019400Y528200D01*
Y527200D01*
X1311780Y433967D02*
X1312780D01*
X1313780Y434967D01*
X1314780Y433967D01*
X1315780D01*
Y434967D01*
X1314780Y435967D01*
X1315780Y436967D01*
Y437967D01*
X1314780D01*
X1313780Y436967D01*
X1312780Y437967D01*
X1311780D01*
Y436967D01*
X1312780Y435967D01*
X1311780Y434967D01*
Y433967D01*
X1308362Y428047D02*
X1309362D01*
X1310362Y429047D01*
X1311362Y428047D01*
X1312362D01*
Y429047D01*
X1311362Y430047D01*
X1312362Y431047D01*
Y432047D01*
X1311362D01*
X1310362Y431047D01*
X1309362Y432047D01*
X1308362D01*
Y431047D01*
X1309362Y430047D01*
X1308362Y429047D01*
Y428047D01*
X1303125Y423652D02*
X1304125D01*
X1305124Y424652D01*
X1306124Y423652D01*
X1307125D01*
Y424652D01*
X1306124Y425652D01*
X1307125Y426652D01*
Y427652D01*
X1306124D01*
X1305124Y426652D01*
X1304125Y427652D01*
X1303125D01*
Y426652D01*
X1304125Y425652D01*
X1303125Y424652D01*
Y423652D01*
X1296700Y421314D02*
X1297700D01*
X1298700Y422314D01*
X1299700Y421314D01*
X1300700D01*
Y422314D01*
X1299700Y423314D01*
X1300700Y424314D01*
Y425314D01*
X1299700D01*
X1298700Y424314D01*
X1297700Y425314D01*
X1296700D01*
Y424314D01*
X1297700Y423314D01*
X1296700Y422314D01*
Y421314D01*
X1289864D02*
X1290864D01*
X1291864Y422314D01*
X1292864Y421314D01*
X1293864D01*
Y422314D01*
X1292864Y423314D01*
X1293864Y424314D01*
Y425314D01*
X1292864D01*
X1291864Y424314D01*
X1290864Y425314D01*
X1289864D01*
Y424314D01*
X1290864Y423314D01*
X1289864Y422314D01*
Y421314D01*
X1283439Y423652D02*
X1284439D01*
X1285439Y424652D01*
X1286439Y423652D01*
X1287439D01*
Y424652D01*
X1286439Y425652D01*
X1287439Y426652D01*
Y427652D01*
X1286439D01*
X1285439Y426652D01*
X1284439Y427652D01*
X1283439D01*
Y426652D01*
X1284439Y425652D01*
X1283439Y424652D01*
Y423652D01*
X1278202Y428047D02*
X1279202D01*
X1280202Y429047D01*
X1281202Y428047D01*
X1282202D01*
Y429047D01*
X1281202Y430047D01*
X1282202Y431047D01*
Y432047D01*
X1281202D01*
X1280202Y431047D01*
X1279202Y432047D01*
X1278202D01*
Y431047D01*
X1279202Y430047D01*
X1278202Y429047D01*
Y428047D01*
X1274784Y433967D02*
X1275784D01*
X1276784Y434967D01*
X1277784Y433967D01*
X1278784D01*
Y434967D01*
X1277784Y435967D01*
X1278784Y436967D01*
Y437967D01*
X1277784D01*
X1276784Y436967D01*
X1275784Y437967D01*
X1274784D01*
Y436967D01*
X1275784Y435967D01*
X1274784Y434967D01*
Y433967D01*
X1273597Y440700D02*
X1274597D01*
X1275597Y441700D01*
X1276597Y440700D01*
X1277597D01*
Y441700D01*
X1276597Y442700D01*
X1277597Y443700D01*
Y444700D01*
X1276597D01*
X1275597Y443700D01*
X1274597Y444700D01*
X1273597D01*
Y443700D01*
X1274597Y442700D01*
X1273597Y441700D01*
Y440700D01*
X1274784Y447433D02*
X1275784D01*
X1276784Y448433D01*
X1277784Y447433D01*
X1278784D01*
Y448433D01*
X1277784Y449433D01*
X1278784Y450433D01*
Y451433D01*
X1277784D01*
X1276784Y450433D01*
X1275784Y451433D01*
X1274784D01*
Y450433D01*
X1275784Y449433D01*
X1274784Y448433D01*
Y447433D01*
X1278202Y453353D02*
X1279202D01*
X1280202Y454353D01*
X1281202Y453353D01*
X1282202D01*
Y454353D01*
X1281202Y455353D01*
X1282202Y456353D01*
Y457353D01*
X1281202D01*
X1280202Y456353D01*
X1279202Y457353D01*
X1278202D01*
Y456353D01*
X1279202Y455353D01*
X1278202Y454353D01*
Y453353D01*
X1283439Y457748D02*
X1284439D01*
X1285439Y458748D01*
X1286439Y457748D01*
X1287439D01*
Y458748D01*
X1286439Y459748D01*
X1287439Y460748D01*
Y461748D01*
X1286439D01*
X1285439Y460748D01*
X1284439Y461748D01*
X1283439D01*
Y460748D01*
X1284439Y459748D01*
X1283439Y458748D01*
Y457748D01*
X1289864Y460086D02*
X1290864D01*
X1291864Y461086D01*
X1292864Y460086D01*
X1293864D01*
Y461086D01*
X1292864Y462086D01*
X1293864Y463086D01*
Y464086D01*
X1292864D01*
X1291864Y463086D01*
X1290864Y464086D01*
X1289864D01*
Y463086D01*
X1290864Y462086D01*
X1289864Y461086D01*
Y460086D01*
X1296700D02*
X1297700D01*
X1298700Y461086D01*
X1299700Y460086D01*
X1300700D01*
Y461086D01*
X1299700Y462086D01*
X1300700Y463086D01*
Y464086D01*
X1299700D01*
X1298700Y463086D01*
X1297700Y464086D01*
X1296700D01*
Y463086D01*
X1297700Y462086D01*
X1296700Y461086D01*
Y460086D01*
X1303125Y457748D02*
X1304125D01*
X1305124Y458748D01*
X1306124Y457748D01*
X1307125D01*
Y458748D01*
X1306124Y459748D01*
X1307125Y460748D01*
Y461748D01*
X1306124D01*
X1305124Y460748D01*
X1304125Y461748D01*
X1303125D01*
Y460748D01*
X1304125Y459748D01*
X1303125Y458748D01*
Y457748D01*
X1308362Y453353D02*
X1309362D01*
X1310362Y454353D01*
X1311362Y453353D01*
X1312362D01*
Y454353D01*
X1311362Y455353D01*
X1312362Y456353D01*
Y457353D01*
X1311362D01*
X1310362Y456353D01*
X1309362Y457353D01*
X1308362D01*
Y456353D01*
X1309362Y455353D01*
X1308362Y454353D01*
Y453353D01*
X1311780Y447433D02*
X1312780D01*
X1313780Y448433D01*
X1314780Y447433D01*
X1315780D01*
Y448433D01*
X1314780Y449433D01*
X1315780Y450433D01*
Y451433D01*
X1314780D01*
X1313780Y450433D01*
X1312780Y451433D01*
X1311780D01*
Y450433D01*
X1312780Y449433D01*
X1311780Y448433D01*
Y447433D01*
X1312967Y440700D02*
X1313967D01*
X1314967Y441700D01*
X1315967Y440700D01*
X1316967D01*
Y441700D01*
X1315967Y442700D01*
X1316967Y443700D01*
Y444700D01*
X1315967D01*
X1314967Y443700D01*
X1313967Y444700D01*
X1312967D01*
Y443700D01*
X1313967Y442700D01*
X1312967Y441700D01*
Y440700D01*
X762898Y433967D02*
X763898D01*
X764898Y434967D01*
X765898Y433967D01*
X766898D01*
Y434967D01*
X765898Y435967D01*
X766898Y436967D01*
Y437967D01*
X765898D01*
X764898Y436967D01*
X763898Y437967D01*
X762898D01*
Y436967D01*
X763898Y435967D01*
X762898Y434967D01*
Y433967D01*
X759480Y428047D02*
X760480D01*
X761480Y429047D01*
X762480Y428047D01*
X763480D01*
Y429047D01*
X762480Y430047D01*
X763480Y431047D01*
Y432047D01*
X762480D01*
X761480Y431047D01*
X760480Y432047D01*
X759480D01*
Y431047D01*
X760480Y430047D01*
X759480Y429047D01*
Y428047D01*
X754243Y423652D02*
X755243D01*
X756243Y424652D01*
X757243Y423652D01*
X758243D01*
Y424652D01*
X757243Y425652D01*
X758243Y426652D01*
Y427652D01*
X757243D01*
X756243Y426652D01*
X755243Y427652D01*
X754243D01*
Y426652D01*
X755243Y425652D01*
X754243Y424652D01*
Y423652D01*
X747818Y421314D02*
X748818D01*
X749818Y422314D01*
X750818Y421314D01*
X751818D01*
Y422314D01*
X750818Y423314D01*
X751818Y424314D01*
Y425314D01*
X750818D01*
X749818Y424314D01*
X748818Y425314D01*
X747818D01*
Y424314D01*
X748818Y423314D01*
X747818Y422314D01*
Y421314D01*
X740982D02*
X741982D01*
X742982Y422314D01*
X743982Y421314D01*
X744982D01*
Y422314D01*
X743982Y423314D01*
X744982Y424314D01*
Y425314D01*
X743982D01*
X742982Y424314D01*
X741982Y425314D01*
X740982D01*
Y424314D01*
X741982Y423314D01*
X740982Y422314D01*
Y421314D01*
X734557Y423652D02*
X735558D01*
X736557Y424652D01*
X737558Y423652D01*
X738557D01*
Y424652D01*
X737558Y425652D01*
X738557Y426652D01*
Y427652D01*
X737558D01*
X736557Y426652D01*
X735558Y427652D01*
X734557D01*
Y426652D01*
X735558Y425652D01*
X734557Y424652D01*
Y423652D01*
X729320Y428047D02*
X730320D01*
X731320Y429047D01*
X732320Y428047D01*
X733320D01*
Y429047D01*
X732320Y430047D01*
X733320Y431047D01*
Y432047D01*
X732320D01*
X731320Y431047D01*
X730320Y432047D01*
X729320D01*
Y431047D01*
X730320Y430047D01*
X729320Y429047D01*
Y428047D01*
X725902Y433967D02*
X726902D01*
X727902Y434967D01*
X728902Y433967D01*
X729902D01*
Y434967D01*
X728902Y435967D01*
X729902Y436967D01*
Y437967D01*
X728902D01*
X727902Y436967D01*
X726902Y437967D01*
X725902D01*
Y436967D01*
X726902Y435967D01*
X725902Y434967D01*
Y433967D01*
X724715Y440700D02*
X725715D01*
X726715Y441700D01*
X727715Y440700D01*
X728715D01*
Y441700D01*
X727715Y442700D01*
X728715Y443700D01*
Y444700D01*
X727715D01*
X726715Y443700D01*
X725715Y444700D01*
X724715D01*
Y443700D01*
X725715Y442700D01*
X724715Y441700D01*
Y440700D01*
X725902Y447433D02*
X726902D01*
X727902Y448433D01*
X728902Y447433D01*
X729902D01*
Y448433D01*
X728902Y449433D01*
X729902Y450433D01*
Y451433D01*
X728902D01*
X727902Y450433D01*
X726902Y451433D01*
X725902D01*
Y450433D01*
X726902Y449433D01*
X725902Y448433D01*
Y447433D01*
X729320Y453353D02*
X730320D01*
X731320Y454353D01*
X732320Y453353D01*
X733320D01*
Y454353D01*
X732320Y455353D01*
X733320Y456353D01*
Y457353D01*
X732320D01*
X731320Y456353D01*
X730320Y457353D01*
X729320D01*
Y456353D01*
X730320Y455353D01*
X729320Y454353D01*
Y453353D01*
X734557Y457748D02*
X735558D01*
X736557Y458748D01*
X737558Y457748D01*
X738557D01*
Y458748D01*
X737558Y459748D01*
X738557Y460748D01*
Y461748D01*
X737558D01*
X736557Y460748D01*
X735558Y461748D01*
X734557D01*
Y460748D01*
X735558Y459748D01*
X734557Y458748D01*
Y457748D01*
X740982Y460086D02*
X741982D01*
X742982Y461086D01*
X743982Y460086D01*
X744982D01*
Y461086D01*
X743982Y462086D01*
X744982Y463086D01*
Y464086D01*
X743982D01*
X742982Y463086D01*
X741982Y464086D01*
X740982D01*
Y463086D01*
X741982Y462086D01*
X740982Y461086D01*
Y460086D01*
X747818D02*
X748818D01*
X749818Y461086D01*
X750818Y460086D01*
X751818D01*
Y461086D01*
X750818Y462086D01*
X751818Y463086D01*
Y464086D01*
X750818D01*
X749818Y463086D01*
X748818Y464086D01*
X747818D01*
Y463086D01*
X748818Y462086D01*
X747818Y461086D01*
Y460086D01*
X754243Y457748D02*
X755243D01*
X756243Y458748D01*
X757243Y457748D01*
X758243D01*
Y458748D01*
X757243Y459748D01*
X758243Y460748D01*
Y461748D01*
X757243D01*
X756243Y460748D01*
X755243Y461748D01*
X754243D01*
Y460748D01*
X755243Y459748D01*
X754243Y458748D01*
Y457748D01*
X759480Y453353D02*
X760480D01*
X761480Y454353D01*
X762480Y453353D01*
X763480D01*
Y454353D01*
X762480Y455353D01*
X763480Y456353D01*
Y457353D01*
X762480D01*
X761480Y456353D01*
X760480Y457353D01*
X759480D01*
Y456353D01*
X760480Y455353D01*
X759480Y454353D01*
Y453353D01*
X762898Y447433D02*
X763898D01*
X764898Y448433D01*
X765898Y447433D01*
X766898D01*
Y448433D01*
X765898Y449433D01*
X766898Y450433D01*
Y451433D01*
X765898D01*
X764898Y450433D01*
X763898Y451433D01*
X762898D01*
Y450433D01*
X763898Y449433D01*
X762898Y448433D01*
Y447433D01*
X764085Y440700D02*
X765085D01*
X766085Y441700D01*
X767085Y440700D01*
X768085D01*
Y441700D01*
X767085Y442700D01*
X768085Y443700D01*
Y444700D01*
X767085D01*
X766085Y443700D01*
X765085Y444700D01*
X764085D01*
Y443700D01*
X765085Y442700D01*
X764085Y441700D01*
Y440700D01*
X762898Y697747D02*
X763898D01*
X764898Y698747D01*
X765898Y697747D01*
X766898D01*
Y698747D01*
X765898Y699747D01*
X766898Y700747D01*
Y701747D01*
X765898D01*
X764898Y700747D01*
X763898Y701747D01*
X762898D01*
Y700747D01*
X763898Y699747D01*
X762898Y698747D01*
Y697747D01*
X759480Y691826D02*
X760480D01*
X761480Y692826D01*
X762480Y691826D01*
X763480D01*
Y692826D01*
X762480Y693826D01*
X763480Y694826D01*
Y695826D01*
X762480D01*
X761480Y694826D01*
X760480Y695826D01*
X759480D01*
Y694826D01*
X760480Y693826D01*
X759480Y692826D01*
Y691826D01*
X754243Y687432D02*
X755243D01*
X756243Y688432D01*
X757243Y687432D01*
X758243D01*
Y688432D01*
X757243Y689432D01*
X758243Y690432D01*
Y691432D01*
X757243D01*
X756243Y690432D01*
X755243Y691432D01*
X754243D01*
Y690432D01*
X755243Y689432D01*
X754243Y688432D01*
Y687432D01*
X747818Y685094D02*
X748818D01*
X749818Y686094D01*
X750818Y685094D01*
X751818D01*
Y686094D01*
X750818Y687094D01*
X751818Y688094D01*
Y689094D01*
X750818D01*
X749818Y688094D01*
X748818Y689094D01*
X747818D01*
Y688094D01*
X748818Y687094D01*
X747818Y686094D01*
Y685094D01*
X740982D02*
X741982D01*
X742982Y686094D01*
X743982Y685094D01*
X744982D01*
Y686094D01*
X743982Y687094D01*
X744982Y688094D01*
Y689094D01*
X743982D01*
X742982Y688094D01*
X741982Y689094D01*
X740982D01*
Y688094D01*
X741982Y687094D01*
X740982Y686094D01*
Y685094D01*
X734557Y687432D02*
X735558D01*
X736557Y688432D01*
X737558Y687432D01*
X738557D01*
Y688432D01*
X737558Y689432D01*
X738557Y690432D01*
Y691432D01*
X737558D01*
X736557Y690432D01*
X735558Y691432D01*
X734557D01*
Y690432D01*
X735558Y689432D01*
X734557Y688432D01*
Y687432D01*
X729320Y691826D02*
X730320D01*
X731320Y692826D01*
X732320Y691826D01*
X733320D01*
Y692826D01*
X732320Y693826D01*
X733320Y694826D01*
Y695826D01*
X732320D01*
X731320Y694826D01*
X730320Y695826D01*
X729320D01*
Y694826D01*
X730320Y693826D01*
X729320Y692826D01*
Y691826D01*
X725902Y697747D02*
X726902D01*
X727902Y698747D01*
X728902Y697747D01*
X729902D01*
Y698747D01*
X728902Y699747D01*
X729902Y700747D01*
Y701747D01*
X728902D01*
X727902Y700747D01*
X726902Y701747D01*
X725902D01*
Y700747D01*
X726902Y699747D01*
X725902Y698747D01*
Y697747D01*
X724715Y704480D02*
X725715D01*
X726715Y705480D01*
X727715Y704480D01*
X728715D01*
Y705480D01*
X727715Y706480D01*
X728715Y707480D01*
Y708480D01*
X727715D01*
X726715Y707480D01*
X725715Y708480D01*
X724715D01*
Y707480D01*
X725715Y706480D01*
X724715Y705480D01*
Y704480D01*
X725902Y711212D02*
X726902D01*
X727902Y712212D01*
X728902Y711212D01*
X729902D01*
Y712212D01*
X728902Y713212D01*
X729902Y714212D01*
Y715212D01*
X728902D01*
X727902Y714212D01*
X726902Y715212D01*
X725902D01*
Y714212D01*
X726902Y713212D01*
X725902Y712212D01*
Y711212D01*
X729320Y717133D02*
X730320D01*
X731320Y718133D01*
X732320Y717133D01*
X733320D01*
Y718133D01*
X732320Y719133D01*
X733320Y720133D01*
Y721133D01*
X732320D01*
X731320Y720133D01*
X730320Y721133D01*
X729320D01*
Y720133D01*
X730320Y719133D01*
X729320Y718133D01*
Y717133D01*
X734557Y721527D02*
X735558D01*
X736557Y722527D01*
X737558Y721527D01*
X738557D01*
Y722527D01*
X737558Y723527D01*
X738557Y724527D01*
Y725527D01*
X737558D01*
X736557Y724527D01*
X735558Y725527D01*
X734557D01*
Y724527D01*
X735558Y723527D01*
X734557Y722527D01*
Y721527D01*
X740982Y723866D02*
X741982D01*
X742982Y724866D01*
X743982Y723866D01*
X744982D01*
Y724866D01*
X743982Y725866D01*
X744982Y726866D01*
Y727866D01*
X743982D01*
X742982Y726866D01*
X741982Y727866D01*
X740982D01*
Y726866D01*
X741982Y725866D01*
X740982Y724866D01*
Y723866D01*
X747818D02*
X748818D01*
X749818Y724866D01*
X750818Y723866D01*
X751818D01*
Y724866D01*
X750818Y725866D01*
X751818Y726866D01*
Y727866D01*
X750818D01*
X749818Y726866D01*
X748818Y727866D01*
X747818D01*
Y726866D01*
X748818Y725866D01*
X747818Y724866D01*
Y723866D01*
X754243Y721527D02*
X755243D01*
X756243Y722527D01*
X757243Y721527D01*
X758243D01*
Y722527D01*
X757243Y723527D01*
X758243Y724527D01*
Y725527D01*
X757243D01*
X756243Y724527D01*
X755243Y725527D01*
X754243D01*
Y724527D01*
X755243Y723527D01*
X754243Y722527D01*
Y721527D01*
X759480Y717133D02*
X760480D01*
X761480Y718133D01*
X762480Y717133D01*
X763480D01*
Y718133D01*
X762480Y719133D01*
X763480Y720133D01*
Y721133D01*
X762480D01*
X761480Y720133D01*
X760480Y721133D01*
X759480D01*
Y720133D01*
X760480Y719133D01*
X759480Y718133D01*
Y717133D01*
X762898Y711212D02*
X763898D01*
X764898Y712212D01*
X765898Y711212D01*
X766898D01*
Y712212D01*
X765898Y713212D01*
X766898Y714212D01*
Y715212D01*
X765898D01*
X764898Y714212D01*
X763898Y715212D01*
X762898D01*
Y714212D01*
X763898Y713212D01*
X762898Y712212D01*
Y711212D01*
X764085Y704480D02*
X765085D01*
X766085Y705480D01*
X767085Y704480D01*
X768085D01*
Y705480D01*
X767085Y706480D01*
X768085Y707480D01*
Y708480D01*
X767085D01*
X766085Y707480D01*
X765085Y708480D01*
X764085D01*
Y707480D01*
X765085Y706480D01*
X764085Y705480D01*
Y704480D01*
X916441Y697747D02*
X917441D01*
X918441Y698747D01*
X919441Y697747D01*
X920441D01*
Y698747D01*
X919441Y699747D01*
X920441Y700747D01*
Y701747D01*
X919441D01*
X918441Y700747D01*
X917441Y701747D01*
X916441D01*
Y700747D01*
X917441Y699747D01*
X916441Y698747D01*
Y697747D01*
X913023Y691826D02*
X914023D01*
X915023Y692826D01*
X916023Y691826D01*
X917023D01*
Y692826D01*
X916023Y693826D01*
X917023Y694826D01*
Y695826D01*
X916023D01*
X915023Y694826D01*
X914023Y695826D01*
X913023D01*
Y694826D01*
X914023Y693826D01*
X913023Y692826D01*
Y691826D01*
X907786Y687432D02*
X908786D01*
X909786Y688432D01*
X910786Y687432D01*
X911786D01*
Y688432D01*
X910786Y689432D01*
X911786Y690432D01*
Y691432D01*
X910786D01*
X909786Y690432D01*
X908786Y691432D01*
X907786D01*
Y690432D01*
X908786Y689432D01*
X907786Y688432D01*
Y687432D01*
X901362Y685094D02*
X902362D01*
X903362Y686094D01*
X904362Y685094D01*
X905362D01*
Y686094D01*
X904362Y687094D01*
X905362Y688094D01*
Y689094D01*
X904362D01*
X903362Y688094D01*
X902362Y689094D01*
X901362D01*
Y688094D01*
X902362Y687094D01*
X901362Y686094D01*
Y685094D01*
X894525D02*
X895525D01*
X896525Y686094D01*
X897525Y685094D01*
X898525D01*
Y686094D01*
X897525Y687094D01*
X898525Y688094D01*
Y689094D01*
X897525D01*
X896525Y688094D01*
X895525Y689094D01*
X894525D01*
Y688094D01*
X895525Y687094D01*
X894525Y686094D01*
Y685094D01*
X888101Y687432D02*
X889101D01*
X890101Y688432D01*
X891101Y687432D01*
X892101D01*
Y688432D01*
X891101Y689432D01*
X892101Y690432D01*
Y691432D01*
X891101D01*
X890101Y690432D01*
X889101Y691432D01*
X888101D01*
Y690432D01*
X889101Y689432D01*
X888101Y688432D01*
Y687432D01*
X882864Y691826D02*
X883864D01*
X884864Y692826D01*
X885864Y691826D01*
X886864D01*
Y692826D01*
X885864Y693826D01*
X886864Y694826D01*
Y695826D01*
X885864D01*
X884864Y694826D01*
X883864Y695826D01*
X882864D01*
Y694826D01*
X883864Y693826D01*
X882864Y692826D01*
Y691826D01*
X879445Y697747D02*
X880445D01*
X881446Y698747D01*
X882446Y697747D01*
X883445D01*
Y698747D01*
X882446Y699747D01*
X883445Y700747D01*
Y701747D01*
X882446D01*
X881446Y700747D01*
X880445Y701747D01*
X879445D01*
Y700747D01*
X880445Y699747D01*
X879445Y698747D01*
Y697747D01*
X878258Y704480D02*
X879258D01*
X880258Y705480D01*
X881258Y704480D01*
X882258D01*
Y705480D01*
X881258Y706480D01*
X882258Y707480D01*
Y708480D01*
X881258D01*
X880258Y707480D01*
X879258Y708480D01*
X878258D01*
Y707480D01*
X879258Y706480D01*
X878258Y705480D01*
Y704480D01*
X879445Y711212D02*
X880445D01*
X881446Y712212D01*
X882446Y711212D01*
X883445D01*
Y712212D01*
X882446Y713212D01*
X883445Y714212D01*
Y715212D01*
X882446D01*
X881446Y714212D01*
X880445Y715212D01*
X879445D01*
Y714212D01*
X880445Y713212D01*
X879445Y712212D01*
Y711212D01*
X882864Y717133D02*
X883864D01*
X884864Y718133D01*
X885864Y717133D01*
X886864D01*
Y718133D01*
X885864Y719133D01*
X886864Y720133D01*
Y721133D01*
X885864D01*
X884864Y720133D01*
X883864Y721133D01*
X882864D01*
Y720133D01*
X883864Y719133D01*
X882864Y718133D01*
Y717133D01*
X888101Y721527D02*
X889101D01*
X890101Y722527D01*
X891101Y721527D01*
X892101D01*
Y722527D01*
X891101Y723527D01*
X892101Y724527D01*
Y725527D01*
X891101D01*
X890101Y724527D01*
X889101Y725527D01*
X888101D01*
Y724527D01*
X889101Y723527D01*
X888101Y722527D01*
Y721527D01*
X894525Y723866D02*
X895525D01*
X896525Y724866D01*
X897525Y723866D01*
X898525D01*
Y724866D01*
X897525Y725866D01*
X898525Y726866D01*
Y727866D01*
X897525D01*
X896525Y726866D01*
X895525Y727866D01*
X894525D01*
Y726866D01*
X895525Y725866D01*
X894525Y724866D01*
Y723866D01*
X901362D02*
X902362D01*
X903362Y724866D01*
X904362Y723866D01*
X905362D01*
Y724866D01*
X904362Y725866D01*
X905362Y726866D01*
Y727866D01*
X904362D01*
X903362Y726866D01*
X902362Y727866D01*
X901362D01*
Y726866D01*
X902362Y725866D01*
X901362Y724866D01*
Y723866D01*
X907786Y721527D02*
X908786D01*
X909786Y722527D01*
X910786Y721527D01*
X911786D01*
Y722527D01*
X910786Y723527D01*
X911786Y724527D01*
Y725527D01*
X910786D01*
X909786Y724527D01*
X908786Y725527D01*
X907786D01*
Y724527D01*
X908786Y723527D01*
X907786Y722527D01*
Y721527D01*
X913023Y717133D02*
X914023D01*
X915023Y718133D01*
X916023Y717133D01*
X917023D01*
Y718133D01*
X916023Y719133D01*
X917023Y720133D01*
Y721133D01*
X916023D01*
X915023Y720133D01*
X914023Y721133D01*
X913023D01*
Y720133D01*
X914023Y719133D01*
X913023Y718133D01*
Y717133D01*
X916441Y711212D02*
X917441D01*
X918441Y712212D01*
X919441Y711212D01*
X920441D01*
Y712212D01*
X919441Y713212D01*
X920441Y714212D01*
Y715212D01*
X919441D01*
X918441Y714212D01*
X917441Y715212D01*
X916441D01*
Y714212D01*
X917441Y713212D01*
X916441Y712212D01*
Y711212D01*
X917628Y704480D02*
X918628D01*
X919628Y705480D01*
X920628Y704480D01*
X921628D01*
Y705480D01*
X920628Y706480D01*
X921628Y707480D01*
Y708480D01*
X920628D01*
X919628Y707480D01*
X918628Y708480D01*
X917628D01*
Y707480D01*
X918628Y706480D01*
X917628Y705480D01*
Y704480D01*
X916441Y433967D02*
X917441D01*
X918441Y434967D01*
X919441Y433967D01*
X920441D01*
Y434967D01*
X919441Y435967D01*
X920441Y436967D01*
Y437967D01*
X919441D01*
X918441Y436967D01*
X917441Y437967D01*
X916441D01*
Y436967D01*
X917441Y435967D01*
X916441Y434967D01*
Y433967D01*
X913023Y428047D02*
X914023D01*
X915023Y429047D01*
X916023Y428047D01*
X917023D01*
Y429047D01*
X916023Y430047D01*
X917023Y431047D01*
Y432047D01*
X916023D01*
X915023Y431047D01*
X914023Y432047D01*
X913023D01*
Y431047D01*
X914023Y430047D01*
X913023Y429047D01*
Y428047D01*
X907786Y423652D02*
X908786D01*
X909786Y424652D01*
X910786Y423652D01*
X911786D01*
Y424652D01*
X910786Y425652D01*
X911786Y426652D01*
Y427652D01*
X910786D01*
X909786Y426652D01*
X908786Y427652D01*
X907786D01*
Y426652D01*
X908786Y425652D01*
X907786Y424652D01*
Y423652D01*
X901362Y421314D02*
X902362D01*
X903362Y422314D01*
X904362Y421314D01*
X905362D01*
Y422314D01*
X904362Y423314D01*
X905362Y424314D01*
Y425314D01*
X904362D01*
X903362Y424314D01*
X902362Y425314D01*
X901362D01*
Y424314D01*
X902362Y423314D01*
X901362Y422314D01*
Y421314D01*
X894525D02*
X895525D01*
X896525Y422314D01*
X897525Y421314D01*
X898525D01*
Y422314D01*
X897525Y423314D01*
X898525Y424314D01*
Y425314D01*
X897525D01*
X896525Y424314D01*
X895525Y425314D01*
X894525D01*
Y424314D01*
X895525Y423314D01*
X894525Y422314D01*
Y421314D01*
X888101Y423652D02*
X889101D01*
X890101Y424652D01*
X891101Y423652D01*
X892101D01*
Y424652D01*
X891101Y425652D01*
X892101Y426652D01*
Y427652D01*
X891101D01*
X890101Y426652D01*
X889101Y427652D01*
X888101D01*
Y426652D01*
X889101Y425652D01*
X888101Y424652D01*
Y423652D01*
X882864Y428047D02*
X883864D01*
X884864Y429047D01*
X885864Y428047D01*
X886864D01*
Y429047D01*
X885864Y430047D01*
X886864Y431047D01*
Y432047D01*
X885864D01*
X884864Y431047D01*
X883864Y432047D01*
X882864D01*
Y431047D01*
X883864Y430047D01*
X882864Y429047D01*
Y428047D01*
X879445Y433967D02*
X880445D01*
X881446Y434967D01*
X882446Y433967D01*
X883445D01*
Y434967D01*
X882446Y435967D01*
X883445Y436967D01*
Y437967D01*
X882446D01*
X881446Y436967D01*
X880445Y437967D01*
X879445D01*
Y436967D01*
X880445Y435967D01*
X879445Y434967D01*
Y433967D01*
X878258Y440700D02*
X879258D01*
X880258Y441700D01*
X881258Y440700D01*
X882258D01*
Y441700D01*
X881258Y442700D01*
X882258Y443700D01*
Y444700D01*
X881258D01*
X880258Y443700D01*
X879258Y444700D01*
X878258D01*
Y443700D01*
X879258Y442700D01*
X878258Y441700D01*
Y440700D01*
X879445Y447433D02*
X880445D01*
X881446Y448433D01*
X882446Y447433D01*
X883445D01*
Y448433D01*
X882446Y449433D01*
X883445Y450433D01*
Y451433D01*
X882446D01*
X881446Y450433D01*
X880445Y451433D01*
X879445D01*
Y450433D01*
X880445Y449433D01*
X879445Y448433D01*
Y447433D01*
X882864Y453353D02*
X883864D01*
X884864Y454353D01*
X885864Y453353D01*
X886864D01*
Y454353D01*
X885864Y455353D01*
X886864Y456353D01*
Y457353D01*
X885864D01*
X884864Y456353D01*
X883864Y457353D01*
X882864D01*
Y456353D01*
X883864Y455353D01*
X882864Y454353D01*
Y453353D01*
X888101Y457748D02*
X889101D01*
X890101Y458748D01*
X891101Y457748D01*
X892101D01*
Y458748D01*
X891101Y459748D01*
X892101Y460748D01*
Y461748D01*
X891101D01*
X890101Y460748D01*
X889101Y461748D01*
X888101D01*
Y460748D01*
X889101Y459748D01*
X888101Y458748D01*
Y457748D01*
X894525Y460086D02*
X895525D01*
X896525Y461086D01*
X897525Y460086D01*
X898525D01*
Y461086D01*
X897525Y462086D01*
X898525Y463086D01*
Y464086D01*
X897525D01*
X896525Y463086D01*
X895525Y464086D01*
X894525D01*
Y463086D01*
X895525Y462086D01*
X894525Y461086D01*
Y460086D01*
X901362D02*
X902362D01*
X903362Y461086D01*
X904362Y460086D01*
X905362D01*
Y461086D01*
X904362Y462086D01*
X905362Y463086D01*
Y464086D01*
X904362D01*
X903362Y463086D01*
X902362Y464086D01*
X901362D01*
Y463086D01*
X902362Y462086D01*
X901362Y461086D01*
Y460086D01*
X907786Y457748D02*
X908786D01*
X909786Y458748D01*
X910786Y457748D01*
X911786D01*
Y458748D01*
X910786Y459748D01*
X911786Y460748D01*
Y461748D01*
X910786D01*
X909786Y460748D01*
X908786Y461748D01*
X907786D01*
Y460748D01*
X908786Y459748D01*
X907786Y458748D01*
Y457748D01*
X913023Y453353D02*
X914023D01*
X915023Y454353D01*
X916023Y453353D01*
X917023D01*
Y454353D01*
X916023Y455353D01*
X917023Y456353D01*
Y457353D01*
X916023D01*
X915023Y456353D01*
X914023Y457353D01*
X913023D01*
Y456353D01*
X914023Y455353D01*
X913023Y454353D01*
Y453353D01*
X916441Y447433D02*
X917441D01*
X918441Y448433D01*
X919441Y447433D01*
X920441D01*
Y448433D01*
X919441Y449433D01*
X920441Y450433D01*
Y451433D01*
X919441D01*
X918441Y450433D01*
X917441Y451433D01*
X916441D01*
Y450433D01*
X917441Y449433D01*
X916441Y448433D01*
Y447433D01*
X917628Y440700D02*
X918628D01*
X919628Y441700D01*
X920628Y440700D01*
X921628D01*
Y441700D01*
X920628Y442700D01*
X921628Y443700D01*
Y444700D01*
X920628D01*
X919628Y443700D01*
X918628Y444700D01*
X917628D01*
Y443700D01*
X918628Y442700D01*
X917628Y441700D01*
Y440700D01*
X1069985Y433967D02*
X1070984D01*
X1071984Y434967D01*
X1072985Y433967D01*
X1073985D01*
Y434967D01*
X1072985Y435967D01*
X1073985Y436967D01*
Y437967D01*
X1072985D01*
X1071984Y436967D01*
X1070984Y437967D01*
X1069985D01*
Y436967D01*
X1070984Y435967D01*
X1069985Y434967D01*
Y433967D01*
X1066566Y428047D02*
X1067566D01*
X1068566Y429047D01*
X1069566Y428047D01*
X1070566D01*
Y429047D01*
X1069566Y430047D01*
X1070566Y431047D01*
Y432047D01*
X1069566D01*
X1068566Y431047D01*
X1067566Y432047D01*
X1066566D01*
Y431047D01*
X1067566Y430047D01*
X1066566Y429047D01*
Y428047D01*
X1061329Y423652D02*
X1062329D01*
X1063329Y424652D01*
X1064329Y423652D01*
X1065329D01*
Y424652D01*
X1064329Y425652D01*
X1065329Y426652D01*
Y427652D01*
X1064329D01*
X1063329Y426652D01*
X1062329Y427652D01*
X1061329D01*
Y426652D01*
X1062329Y425652D01*
X1061329Y424652D01*
Y423652D01*
X1054905Y421314D02*
X1055905D01*
X1056905Y422314D01*
X1057905Y421314D01*
X1058905D01*
Y422314D01*
X1057905Y423314D01*
X1058905Y424314D01*
Y425314D01*
X1057905D01*
X1056905Y424314D01*
X1055905Y425314D01*
X1054905D01*
Y424314D01*
X1055905Y423314D01*
X1054905Y422314D01*
Y421314D01*
X1048068D02*
X1049068D01*
X1050068Y422314D01*
X1051068Y421314D01*
X1052068D01*
Y422314D01*
X1051068Y423314D01*
X1052068Y424314D01*
Y425314D01*
X1051068D01*
X1050068Y424314D01*
X1049068Y425314D01*
X1048068D01*
Y424314D01*
X1049068Y423314D01*
X1048068Y422314D01*
Y421314D01*
X1041644Y423652D02*
X1042644D01*
X1043644Y424652D01*
X1044644Y423652D01*
X1045644D01*
Y424652D01*
X1044644Y425652D01*
X1045644Y426652D01*
Y427652D01*
X1044644D01*
X1043644Y426652D01*
X1042644Y427652D01*
X1041644D01*
Y426652D01*
X1042644Y425652D01*
X1041644Y424652D01*
Y423652D01*
X1036407Y428047D02*
X1037407D01*
X1038407Y429047D01*
X1039407Y428047D01*
X1040407D01*
Y429047D01*
X1039407Y430047D01*
X1040407Y431047D01*
Y432047D01*
X1039407D01*
X1038407Y431047D01*
X1037407Y432047D01*
X1036407D01*
Y431047D01*
X1037407Y430047D01*
X1036407Y429047D01*
Y428047D01*
X1032989Y433967D02*
X1033989D01*
X1034989Y434967D01*
X1035989Y433967D01*
X1036989D01*
Y434967D01*
X1035989Y435967D01*
X1036989Y436967D01*
Y437967D01*
X1035989D01*
X1034989Y436967D01*
X1033989Y437967D01*
X1032989D01*
Y436967D01*
X1033989Y435967D01*
X1032989Y434967D01*
Y433967D01*
X1031802Y440700D02*
X1032802D01*
X1033802Y441700D01*
X1034802Y440700D01*
X1035802D01*
Y441700D01*
X1034802Y442700D01*
X1035802Y443700D01*
Y444700D01*
X1034802D01*
X1033802Y443700D01*
X1032802Y444700D01*
X1031802D01*
Y443700D01*
X1032802Y442700D01*
X1031802Y441700D01*
Y440700D01*
X1032989Y447433D02*
X1033989D01*
X1034989Y448433D01*
X1035989Y447433D01*
X1036989D01*
Y448433D01*
X1035989Y449433D01*
X1036989Y450433D01*
Y451433D01*
X1035989D01*
X1034989Y450433D01*
X1033989Y451433D01*
X1032989D01*
Y450433D01*
X1033989Y449433D01*
X1032989Y448433D01*
Y447433D01*
X1036407Y453353D02*
X1037407D01*
X1038407Y454353D01*
X1039407Y453353D01*
X1040407D01*
Y454353D01*
X1039407Y455353D01*
X1040407Y456353D01*
Y457353D01*
X1039407D01*
X1038407Y456353D01*
X1037407Y457353D01*
X1036407D01*
Y456353D01*
X1037407Y455353D01*
X1036407Y454353D01*
Y453353D01*
X1041644Y457748D02*
X1042644D01*
X1043644Y458748D01*
X1044644Y457748D01*
X1045644D01*
Y458748D01*
X1044644Y459748D01*
X1045644Y460748D01*
Y461748D01*
X1044644D01*
X1043644Y460748D01*
X1042644Y461748D01*
X1041644D01*
Y460748D01*
X1042644Y459748D01*
X1041644Y458748D01*
Y457748D01*
X1048068Y460086D02*
X1049068D01*
X1050068Y461086D01*
X1051068Y460086D01*
X1052068D01*
Y461086D01*
X1051068Y462086D01*
X1052068Y463086D01*
Y464086D01*
X1051068D01*
X1050068Y463086D01*
X1049068Y464086D01*
X1048068D01*
Y463086D01*
X1049068Y462086D01*
X1048068Y461086D01*
Y460086D01*
X1054905D02*
X1055905D01*
X1056905Y461086D01*
X1057905Y460086D01*
X1058905D01*
Y461086D01*
X1057905Y462086D01*
X1058905Y463086D01*
Y464086D01*
X1057905D01*
X1056905Y463086D01*
X1055905Y464086D01*
X1054905D01*
Y463086D01*
X1055905Y462086D01*
X1054905Y461086D01*
Y460086D01*
X1061329Y457748D02*
X1062329D01*
X1063329Y458748D01*
X1064329Y457748D01*
X1065329D01*
Y458748D01*
X1064329Y459748D01*
X1065329Y460748D01*
Y461748D01*
X1064329D01*
X1063329Y460748D01*
X1062329Y461748D01*
X1061329D01*
Y460748D01*
X1062329Y459748D01*
X1061329Y458748D01*
Y457748D01*
X1066566Y453353D02*
X1067566D01*
X1068566Y454353D01*
X1069566Y453353D01*
X1070566D01*
Y454353D01*
X1069566Y455353D01*
X1070566Y456353D01*
Y457353D01*
X1069566D01*
X1068566Y456353D01*
X1067566Y457353D01*
X1066566D01*
Y456353D01*
X1067566Y455353D01*
X1066566Y454353D01*
Y453353D01*
X1069985Y447433D02*
X1070984D01*
X1071984Y448433D01*
X1072985Y447433D01*
X1073985D01*
Y448433D01*
X1072985Y449433D01*
X1073985Y450433D01*
Y451433D01*
X1072985D01*
X1071984Y450433D01*
X1070984Y451433D01*
X1069985D01*
Y450433D01*
X1070984Y449433D01*
X1069985Y448433D01*
Y447433D01*
X1071172Y440700D02*
X1072172D01*
X1073172Y441700D01*
X1074172Y440700D01*
X1075172D01*
Y441700D01*
X1074172Y442700D01*
X1075172Y443700D01*
Y444700D01*
X1074172D01*
X1073172Y443700D01*
X1072172Y444700D01*
X1071172D01*
Y443700D01*
X1072172Y442700D01*
X1071172Y441700D01*
Y440700D01*
X1069985Y697747D02*
X1070984D01*
X1071984Y698747D01*
X1072985Y697747D01*
X1073985D01*
Y698747D01*
X1072985Y699747D01*
X1073985Y700747D01*
Y701747D01*
X1072985D01*
X1071984Y700747D01*
X1070984Y701747D01*
X1069985D01*
Y700747D01*
X1070984Y699747D01*
X1069985Y698747D01*
Y697747D01*
X1066566Y691826D02*
X1067566D01*
X1068566Y692826D01*
X1069566Y691826D01*
X1070566D01*
Y692826D01*
X1069566Y693826D01*
X1070566Y694826D01*
Y695826D01*
X1069566D01*
X1068566Y694826D01*
X1067566Y695826D01*
X1066566D01*
Y694826D01*
X1067566Y693826D01*
X1066566Y692826D01*
Y691826D01*
X1061329Y687432D02*
X1062329D01*
X1063329Y688432D01*
X1064329Y687432D01*
X1065329D01*
Y688432D01*
X1064329Y689432D01*
X1065329Y690432D01*
Y691432D01*
X1064329D01*
X1063329Y690432D01*
X1062329Y691432D01*
X1061329D01*
Y690432D01*
X1062329Y689432D01*
X1061329Y688432D01*
Y687432D01*
X1054905Y685094D02*
X1055905D01*
X1056905Y686094D01*
X1057905Y685094D01*
X1058905D01*
Y686094D01*
X1057905Y687094D01*
X1058905Y688094D01*
Y689094D01*
X1057905D01*
X1056905Y688094D01*
X1055905Y689094D01*
X1054905D01*
Y688094D01*
X1055905Y687094D01*
X1054905Y686094D01*
Y685094D01*
X1048068D02*
X1049068D01*
X1050068Y686094D01*
X1051068Y685094D01*
X1052068D01*
Y686094D01*
X1051068Y687094D01*
X1052068Y688094D01*
Y689094D01*
X1051068D01*
X1050068Y688094D01*
X1049068Y689094D01*
X1048068D01*
Y688094D01*
X1049068Y687094D01*
X1048068Y686094D01*
Y685094D01*
X1041644Y687432D02*
X1042644D01*
X1043644Y688432D01*
X1044644Y687432D01*
X1045644D01*
Y688432D01*
X1044644Y689432D01*
X1045644Y690432D01*
Y691432D01*
X1044644D01*
X1043644Y690432D01*
X1042644Y691432D01*
X1041644D01*
Y690432D01*
X1042644Y689432D01*
X1041644Y688432D01*
Y687432D01*
X1036407Y691826D02*
X1037407D01*
X1038407Y692826D01*
X1039407Y691826D01*
X1040407D01*
Y692826D01*
X1039407Y693826D01*
X1040407Y694826D01*
Y695826D01*
X1039407D01*
X1038407Y694826D01*
X1037407Y695826D01*
X1036407D01*
Y694826D01*
X1037407Y693826D01*
X1036407Y692826D01*
Y691826D01*
X1032989Y697747D02*
X1033989D01*
X1034989Y698747D01*
X1035989Y697747D01*
X1036989D01*
Y698747D01*
X1035989Y699747D01*
X1036989Y700747D01*
Y701747D01*
X1035989D01*
X1034989Y700747D01*
X1033989Y701747D01*
X1032989D01*
Y700747D01*
X1033989Y699747D01*
X1032989Y698747D01*
Y697747D01*
X1031802Y704480D02*
X1032802D01*
X1033802Y705480D01*
X1034802Y704480D01*
X1035802D01*
Y705480D01*
X1034802Y706480D01*
X1035802Y707480D01*
Y708480D01*
X1034802D01*
X1033802Y707480D01*
X1032802Y708480D01*
X1031802D01*
Y707480D01*
X1032802Y706480D01*
X1031802Y705480D01*
Y704480D01*
X1032989Y711212D02*
X1033989D01*
X1034989Y712212D01*
X1035989Y711212D01*
X1036989D01*
Y712212D01*
X1035989Y713212D01*
X1036989Y714212D01*
Y715212D01*
X1035989D01*
X1034989Y714212D01*
X1033989Y715212D01*
X1032989D01*
Y714212D01*
X1033989Y713212D01*
X1032989Y712212D01*
Y711212D01*
X1036407Y717133D02*
X1037407D01*
X1038407Y718133D01*
X1039407Y717133D01*
X1040407D01*
Y718133D01*
X1039407Y719133D01*
X1040407Y720133D01*
Y721133D01*
X1039407D01*
X1038407Y720133D01*
X1037407Y721133D01*
X1036407D01*
Y720133D01*
X1037407Y719133D01*
X1036407Y718133D01*
Y717133D01*
X1041644Y721527D02*
X1042644D01*
X1043644Y722527D01*
X1044644Y721527D01*
X1045644D01*
Y722527D01*
X1044644Y723527D01*
X1045644Y724527D01*
Y725527D01*
X1044644D01*
X1043644Y724527D01*
X1042644Y725527D01*
X1041644D01*
Y724527D01*
X1042644Y723527D01*
X1041644Y722527D01*
Y721527D01*
X1048068Y723866D02*
X1049068D01*
X1050068Y724865D01*
X1051068Y723866D01*
X1052068D01*
Y724865D01*
X1051068Y725866D01*
X1052068Y726865D01*
Y727866D01*
X1051068D01*
X1050068Y726865D01*
X1049068Y727866D01*
X1048068D01*
Y726865D01*
X1049068Y725866D01*
X1048068Y724865D01*
Y723866D01*
X1054905D02*
X1055905D01*
X1056905Y724865D01*
X1057905Y723866D01*
X1058905D01*
Y724865D01*
X1057905Y725866D01*
X1058905Y726865D01*
Y727866D01*
X1057905D01*
X1056905Y726865D01*
X1055905Y727866D01*
X1054905D01*
Y726865D01*
X1055905Y725866D01*
X1054905Y724865D01*
Y723866D01*
X1061329Y721527D02*
X1062329D01*
X1063329Y722527D01*
X1064329Y721527D01*
X1065329D01*
Y722527D01*
X1064329Y723527D01*
X1065329Y724527D01*
Y725527D01*
X1064329D01*
X1063329Y724527D01*
X1062329Y725527D01*
X1061329D01*
Y724527D01*
X1062329Y723527D01*
X1061329Y722527D01*
Y721527D01*
X1066566Y717133D02*
X1067566D01*
X1068566Y718133D01*
X1069566Y717133D01*
X1070566D01*
Y718133D01*
X1069566Y719133D01*
X1070566Y720133D01*
Y721133D01*
X1069566D01*
X1068566Y720133D01*
X1067566Y721133D01*
X1066566D01*
Y720133D01*
X1067566Y719133D01*
X1066566Y718133D01*
Y717133D01*
X1069985Y711212D02*
X1070984D01*
X1071984Y712212D01*
X1072985Y711212D01*
X1073985D01*
Y712212D01*
X1072985Y713212D01*
X1073985Y714212D01*
Y715212D01*
X1072985D01*
X1071984Y714212D01*
X1070984Y715212D01*
X1069985D01*
Y714212D01*
X1070984Y713212D01*
X1069985Y712212D01*
Y711212D01*
X1071172Y704480D02*
X1072172D01*
X1073172Y705480D01*
X1074172Y704480D01*
X1075172D01*
Y705480D01*
X1074172Y706480D01*
X1075172Y707480D01*
Y708480D01*
X1074172D01*
X1073172Y707480D01*
X1072172Y708480D01*
X1071172D01*
Y707480D01*
X1072172Y706480D01*
X1071172Y705480D01*
Y704480D01*
X1223528Y697747D02*
X1224528D01*
X1225528Y698747D01*
X1226528Y697747D01*
X1227528D01*
Y698747D01*
X1226528Y699747D01*
X1227528Y700747D01*
Y701747D01*
X1226528D01*
X1225528Y700747D01*
X1224528Y701747D01*
X1223528D01*
Y700747D01*
X1224528Y699747D01*
X1223528Y698747D01*
Y697747D01*
X1220110Y691826D02*
X1221110D01*
X1222110Y692826D01*
X1223110Y691826D01*
X1224110D01*
Y692826D01*
X1223110Y693826D01*
X1224110Y694826D01*
Y695826D01*
X1223110D01*
X1222110Y694826D01*
X1221110Y695826D01*
X1220110D01*
Y694826D01*
X1221110Y693826D01*
X1220110Y692826D01*
Y691826D01*
X1214872Y687432D02*
X1215872D01*
X1216873Y688432D01*
X1217873Y687432D01*
X1218873D01*
Y688432D01*
X1217873Y689432D01*
X1218873Y690432D01*
Y691432D01*
X1217873D01*
X1216873Y690432D01*
X1215872Y691432D01*
X1214872D01*
Y690432D01*
X1215872Y689432D01*
X1214872Y688432D01*
Y687432D01*
X1208448Y685094D02*
X1209448D01*
X1210448Y686094D01*
X1211448Y685094D01*
X1212448D01*
Y686094D01*
X1211448Y687094D01*
X1212448Y688094D01*
Y689094D01*
X1211448D01*
X1210448Y688094D01*
X1209448Y689094D01*
X1208448D01*
Y688094D01*
X1209448Y687094D01*
X1208448Y686094D01*
Y685094D01*
X1201612D02*
X1202612D01*
X1203612Y686094D01*
X1204612Y685094D01*
X1205612D01*
Y686094D01*
X1204612Y687094D01*
X1205612Y688094D01*
Y689094D01*
X1204612D01*
X1203612Y688094D01*
X1202612Y689094D01*
X1201612D01*
Y688094D01*
X1202612Y687094D01*
X1201612Y686094D01*
Y685094D01*
X1195187Y687432D02*
X1196187D01*
X1197187Y688432D01*
X1198187Y687432D01*
X1199187D01*
Y688432D01*
X1198187Y689432D01*
X1199187Y690432D01*
Y691432D01*
X1198187D01*
X1197187Y690432D01*
X1196187Y691432D01*
X1195187D01*
Y690432D01*
X1196187Y689432D01*
X1195187Y688432D01*
Y687432D01*
X1189950Y691826D02*
X1190950D01*
X1191950Y692826D01*
X1192950Y691826D01*
X1193950D01*
Y692826D01*
X1192950Y693826D01*
X1193950Y694826D01*
Y695826D01*
X1192950D01*
X1191950Y694826D01*
X1190950Y695826D01*
X1189950D01*
Y694826D01*
X1190950Y693826D01*
X1189950Y692826D01*
Y691826D01*
X1186532Y697747D02*
X1187532D01*
X1188532Y698747D01*
X1189532Y697747D01*
X1190532D01*
Y698747D01*
X1189532Y699747D01*
X1190532Y700747D01*
Y701747D01*
X1189532D01*
X1188532Y700747D01*
X1187532Y701747D01*
X1186532D01*
Y700747D01*
X1187532Y699747D01*
X1186532Y698747D01*
Y697747D01*
X1185345Y704480D02*
X1186345D01*
X1187345Y705480D01*
X1188345Y704480D01*
X1189345D01*
Y705480D01*
X1188345Y706480D01*
X1189345Y707480D01*
Y708480D01*
X1188345D01*
X1187345Y707480D01*
X1186345Y708480D01*
X1185345D01*
Y707480D01*
X1186345Y706480D01*
X1185345Y705480D01*
Y704480D01*
X1186532Y711212D02*
X1187532D01*
X1188532Y712212D01*
X1189532Y711212D01*
X1190532D01*
Y712212D01*
X1189532Y713212D01*
X1190532Y714212D01*
Y715212D01*
X1189532D01*
X1188532Y714212D01*
X1187532Y715212D01*
X1186532D01*
Y714212D01*
X1187532Y713212D01*
X1186532Y712212D01*
Y711212D01*
X1189950Y717133D02*
X1190950D01*
X1191950Y718133D01*
X1192950Y717133D01*
X1193950D01*
Y718133D01*
X1192950Y719133D01*
X1193950Y720133D01*
Y721133D01*
X1192950D01*
X1191950Y720133D01*
X1190950Y721133D01*
X1189950D01*
Y720133D01*
X1190950Y719133D01*
X1189950Y718133D01*
Y717133D01*
X1195187Y721527D02*
X1196187D01*
X1197187Y722527D01*
X1198187Y721527D01*
X1199187D01*
Y722527D01*
X1198187Y723527D01*
X1199187Y724527D01*
Y725527D01*
X1198187D01*
X1197187Y724527D01*
X1196187Y725527D01*
X1195187D01*
Y724527D01*
X1196187Y723527D01*
X1195187Y722527D01*
Y721527D01*
X1201612Y723866D02*
X1202612D01*
X1203612Y724865D01*
X1204612Y723866D01*
X1205612D01*
Y724865D01*
X1204612Y725866D01*
X1205612Y726865D01*
Y727866D01*
X1204612D01*
X1203612Y726865D01*
X1202612Y727866D01*
X1201612D01*
Y726865D01*
X1202612Y725866D01*
X1201612Y724865D01*
Y723866D01*
X1208448D02*
X1209448D01*
X1210448Y724865D01*
X1211448Y723866D01*
X1212448D01*
Y724865D01*
X1211448Y725866D01*
X1212448Y726865D01*
Y727866D01*
X1211448D01*
X1210448Y726865D01*
X1209448Y727866D01*
X1208448D01*
Y726865D01*
X1209448Y725866D01*
X1208448Y724865D01*
Y723866D01*
X1214872Y721527D02*
X1215872D01*
X1216873Y722527D01*
X1217873Y721527D01*
X1218873D01*
Y722527D01*
X1217873Y723527D01*
X1218873Y724527D01*
Y725527D01*
X1217873D01*
X1216873Y724527D01*
X1215872Y725527D01*
X1214872D01*
Y724527D01*
X1215872Y723527D01*
X1214872Y722527D01*
Y721527D01*
X1220110Y717133D02*
X1221110D01*
X1222110Y718133D01*
X1223110Y717133D01*
X1224110D01*
Y718133D01*
X1223110Y719133D01*
X1224110Y720133D01*
Y721133D01*
X1223110D01*
X1222110Y720133D01*
X1221110Y721133D01*
X1220110D01*
Y720133D01*
X1221110Y719133D01*
X1220110Y718133D01*
Y717133D01*
X1223528Y711212D02*
X1224528D01*
X1225528Y712212D01*
X1226528Y711212D01*
X1227528D01*
Y712212D01*
X1226528Y713212D01*
X1227528Y714212D01*
Y715212D01*
X1226528D01*
X1225528Y714212D01*
X1224528Y715212D01*
X1223528D01*
Y714212D01*
X1224528Y713212D01*
X1223528Y712212D01*
Y711212D01*
X1224715Y704480D02*
X1225715D01*
X1226715Y705480D01*
X1227715Y704480D01*
X1228715D01*
Y705480D01*
X1227715Y706480D01*
X1228715Y707480D01*
Y708480D01*
X1227715D01*
X1226715Y707480D01*
X1225715Y708480D01*
X1224715D01*
Y707480D01*
X1225715Y706480D01*
X1224715Y705480D01*
Y704480D01*
X1223528Y433967D02*
X1224528D01*
X1225528Y434967D01*
X1226528Y433967D01*
X1227528D01*
Y434967D01*
X1226528Y435967D01*
X1227528Y436967D01*
Y437967D01*
X1226528D01*
X1225528Y436967D01*
X1224528Y437967D01*
X1223528D01*
Y436967D01*
X1224528Y435967D01*
X1223528Y434967D01*
Y433967D01*
X1220110Y428047D02*
X1221110D01*
X1222110Y429047D01*
X1223110Y428047D01*
X1224110D01*
Y429047D01*
X1223110Y430047D01*
X1224110Y431047D01*
Y432047D01*
X1223110D01*
X1222110Y431047D01*
X1221110Y432047D01*
X1220110D01*
Y431047D01*
X1221110Y430047D01*
X1220110Y429047D01*
Y428047D01*
X1214872Y423652D02*
X1215872D01*
X1216873Y424652D01*
X1217873Y423652D01*
X1218873D01*
Y424652D01*
X1217873Y425652D01*
X1218873Y426652D01*
Y427652D01*
X1217873D01*
X1216873Y426652D01*
X1215872Y427652D01*
X1214872D01*
Y426652D01*
X1215872Y425652D01*
X1214872Y424652D01*
Y423652D01*
X1208448Y421314D02*
X1209448D01*
X1210448Y422314D01*
X1211448Y421314D01*
X1212448D01*
Y422314D01*
X1211448Y423314D01*
X1212448Y424314D01*
Y425314D01*
X1211448D01*
X1210448Y424314D01*
X1209448Y425314D01*
X1208448D01*
Y424314D01*
X1209448Y423314D01*
X1208448Y422314D01*
Y421314D01*
X1201612D02*
X1202612D01*
X1203612Y422314D01*
X1204612Y421314D01*
X1205612D01*
Y422314D01*
X1204612Y423314D01*
X1205612Y424314D01*
Y425314D01*
X1204612D01*
X1203612Y424314D01*
X1202612Y425314D01*
X1201612D01*
Y424314D01*
X1202612Y423314D01*
X1201612Y422314D01*
Y421314D01*
X1195187Y423652D02*
X1196187D01*
X1197187Y424652D01*
X1198187Y423652D01*
X1199187D01*
Y424652D01*
X1198187Y425652D01*
X1199187Y426652D01*
Y427652D01*
X1198187D01*
X1197187Y426652D01*
X1196187Y427652D01*
X1195187D01*
Y426652D01*
X1196187Y425652D01*
X1195187Y424652D01*
Y423652D01*
X1189950Y428047D02*
X1190950D01*
X1191950Y429047D01*
X1192950Y428047D01*
X1193950D01*
Y429047D01*
X1192950Y430047D01*
X1193950Y431047D01*
Y432047D01*
X1192950D01*
X1191950Y431047D01*
X1190950Y432047D01*
X1189950D01*
Y431047D01*
X1190950Y430047D01*
X1189950Y429047D01*
Y428047D01*
X1186532Y433967D02*
X1187532D01*
X1188532Y434967D01*
X1189532Y433967D01*
X1190532D01*
Y434967D01*
X1189532Y435967D01*
X1190532Y436967D01*
Y437967D01*
X1189532D01*
X1188532Y436967D01*
X1187532Y437967D01*
X1186532D01*
Y436967D01*
X1187532Y435967D01*
X1186532Y434967D01*
Y433967D01*
X1185345Y440700D02*
X1186345D01*
X1187345Y441700D01*
X1188345Y440700D01*
X1189345D01*
Y441700D01*
X1188345Y442700D01*
X1189345Y443700D01*
Y444700D01*
X1188345D01*
X1187345Y443700D01*
X1186345Y444700D01*
X1185345D01*
Y443700D01*
X1186345Y442700D01*
X1185345Y441700D01*
Y440700D01*
X1186532Y447433D02*
X1187532D01*
X1188532Y448433D01*
X1189532Y447433D01*
X1190532D01*
Y448433D01*
X1189532Y449433D01*
X1190532Y450433D01*
Y451433D01*
X1189532D01*
X1188532Y450433D01*
X1187532Y451433D01*
X1186532D01*
Y450433D01*
X1187532Y449433D01*
X1186532Y448433D01*
Y447433D01*
X1189950Y453353D02*
X1190950D01*
X1191950Y454353D01*
X1192950Y453353D01*
X1193950D01*
Y454353D01*
X1192950Y455353D01*
X1193950Y456353D01*
Y457353D01*
X1192950D01*
X1191950Y456353D01*
X1190950Y457353D01*
X1189950D01*
Y456353D01*
X1190950Y455353D01*
X1189950Y454353D01*
Y453353D01*
X1195187Y457748D02*
X1196187D01*
X1197187Y458748D01*
X1198187Y457748D01*
X1199187D01*
Y458748D01*
X1198187Y459748D01*
X1199187Y460748D01*
Y461748D01*
X1198187D01*
X1197187Y460748D01*
X1196187Y461748D01*
X1195187D01*
Y460748D01*
X1196187Y459748D01*
X1195187Y458748D01*
Y457748D01*
X1201612Y460086D02*
X1202612D01*
X1203612Y461086D01*
X1204612Y460086D01*
X1205612D01*
Y461086D01*
X1204612Y462086D01*
X1205612Y463086D01*
Y464086D01*
X1204612D01*
X1203612Y463086D01*
X1202612Y464086D01*
X1201612D01*
Y463086D01*
X1202612Y462086D01*
X1201612Y461086D01*
Y460086D01*
X1208448D02*
X1209448D01*
X1210448Y461086D01*
X1211448Y460086D01*
X1212448D01*
Y461086D01*
X1211448Y462086D01*
X1212448Y463086D01*
Y464086D01*
X1211448D01*
X1210448Y463086D01*
X1209448Y464086D01*
X1208448D01*
Y463086D01*
X1209448Y462086D01*
X1208448Y461086D01*
Y460086D01*
X1214872Y457748D02*
X1215872D01*
X1216873Y458748D01*
X1217873Y457748D01*
X1218873D01*
Y458748D01*
X1217873Y459748D01*
X1218873Y460748D01*
Y461748D01*
X1217873D01*
X1216873Y460748D01*
X1215872Y461748D01*
X1214872D01*
Y460748D01*
X1215872Y459748D01*
X1214872Y458748D01*
Y457748D01*
X1220110Y453353D02*
X1221110D01*
X1222110Y454353D01*
X1223110Y453353D01*
X1224110D01*
Y454353D01*
X1223110Y455353D01*
X1224110Y456353D01*
Y457353D01*
X1223110D01*
X1222110Y456353D01*
X1221110Y457353D01*
X1220110D01*
Y456353D01*
X1221110Y455353D01*
X1220110Y454353D01*
Y453353D01*
X1223528Y447433D02*
X1224528D01*
X1225528Y448433D01*
X1226528Y447433D01*
X1227528D01*
Y448433D01*
X1226528Y449433D01*
X1227528Y450433D01*
Y451433D01*
X1226528D01*
X1225528Y450433D01*
X1224528Y451433D01*
X1223528D01*
Y450433D01*
X1224528Y449433D01*
X1223528Y448433D01*
Y447433D01*
X1224715Y440700D02*
X1225715D01*
X1226715Y441700D01*
X1227715Y440700D01*
X1228715D01*
Y441700D01*
X1227715Y442700D01*
X1228715Y443700D01*
Y444700D01*
X1227715D01*
X1226715Y443700D01*
X1225715Y444700D01*
X1224715D01*
Y443700D01*
X1225715Y442700D01*
X1224715Y441700D01*
Y440700D01*
X1242766Y627500D02*
X1243766D01*
X1244766Y628500D01*
X1245766Y627500D01*
X1246766D01*
Y628500D01*
X1245766Y629500D01*
X1246766Y630500D01*
Y631500D01*
X1245766D01*
X1244766Y630500D01*
X1243766Y631500D01*
X1242766D01*
Y630500D01*
X1243766Y629500D01*
X1242766Y628500D01*
Y627500D01*
X989281Y523564D02*
X990281D01*
X991280Y524564D01*
X992280Y523564D01*
X993281D01*
Y524564D01*
X992280Y525564D01*
X993281Y526564D01*
Y527564D01*
X992280D01*
X991280Y526564D01*
X990281Y527564D01*
X989281D01*
Y526564D01*
X990281Y525564D01*
X989281Y524564D01*
Y523564D01*
X1233900Y588080D02*
X1234900D01*
X1235900Y589080D01*
X1236900Y588080D01*
X1237900D01*
Y589080D01*
X1236900Y590080D01*
X1237900Y591080D01*
Y592080D01*
X1236900D01*
X1235900Y591080D01*
X1234900Y592080D01*
X1233900D01*
Y591080D01*
X1234900Y590080D01*
X1233900Y589080D01*
Y588080D01*
X745605Y635651D02*
X746605D01*
X747605Y636651D01*
X748605Y635651D01*
X749605D01*
Y636651D01*
X748605Y637651D01*
X749605Y638651D01*
Y639651D01*
X748605D01*
X747605Y638651D01*
X746605Y639651D01*
X745605D01*
Y638651D01*
X746605Y637651D01*
X745605Y636651D01*
Y635651D01*
X856445Y605558D02*
X857445D01*
X858445Y606558D01*
X859445Y605558D01*
X860445D01*
Y606558D01*
X859445Y607558D01*
X860445Y608558D01*
Y609558D01*
X859445D01*
X858445Y608558D01*
X857445Y609558D01*
X856445D01*
Y608558D01*
X857445Y607558D01*
X856445Y606558D01*
Y605558D01*
X840890Y590303D02*
X841890D01*
X842890Y591303D01*
X843890Y590303D01*
X844890D01*
Y591303D01*
X843890Y592303D01*
X844890Y593303D01*
Y594303D01*
X843890D01*
X842890Y593303D01*
X841890Y594303D01*
X840890D01*
Y593303D01*
X841890Y592303D01*
X840890Y591303D01*
Y590303D01*
X617040Y697322D02*
X618040D01*
X619040Y698322D01*
X620040Y697322D01*
X621040D01*
Y698322D01*
X620040Y699322D01*
X621040Y700322D01*
Y701322D01*
X620040D01*
X619040Y700322D01*
X618040Y701322D01*
X617040D01*
Y700322D01*
X618040Y699322D01*
X617040Y698322D01*
Y697322D01*
X636072Y706110D02*
X637072D01*
X638072Y707110D01*
X639072Y706110D01*
X640072D01*
Y707110D01*
X639072Y708110D01*
X640072Y709110D01*
Y710110D01*
X639072D01*
X638072Y709110D01*
X637072Y710110D01*
X636072D01*
Y709110D01*
X637072Y708110D01*
X636072Y707110D01*
Y706110D01*
X946178Y483200D02*
X947178D01*
X948178Y484200D01*
X949178Y483200D01*
X950178D01*
Y484200D01*
X949178Y485200D01*
X950178Y486200D01*
Y487200D01*
X949178D01*
X948178Y486200D01*
X947178Y487200D01*
X946178D01*
Y486200D01*
X947178Y485200D01*
X946178Y484200D01*
Y483200D01*
X1127726Y608879D02*
X1128726D01*
X1129726Y609879D01*
X1130726Y608879D01*
X1131726D01*
Y609879D01*
X1130726Y610879D01*
X1131726Y611879D01*
Y612879D01*
X1130726D01*
X1129726Y611879D01*
X1128726Y612879D01*
X1127726D01*
Y611879D01*
X1128726Y610879D01*
X1127726Y609879D01*
Y608879D01*
X1100841Y617728D02*
X1101841D01*
X1102841Y618728D01*
X1103841Y617728D01*
X1104841D01*
Y618728D01*
X1103841Y619728D01*
X1104841Y620728D01*
Y621728D01*
X1103841D01*
X1102841Y620728D01*
X1101841Y621728D01*
X1100841D01*
Y620728D01*
X1101841Y619728D01*
X1100841Y618728D01*
Y617728D01*
X1104152Y625483D02*
X1105152D01*
X1106152Y626483D01*
X1107152Y625483D01*
X1108152D01*
Y626483D01*
X1107152Y627483D01*
X1108152Y628483D01*
Y629483D01*
X1107152D01*
X1106152Y628483D01*
X1105152Y629483D01*
X1104152D01*
Y628483D01*
X1105152Y627483D01*
X1104152Y626483D01*
Y625483D01*
X1219051Y572857D02*
X1220051D01*
X1221051Y573857D01*
X1222051Y572857D01*
X1223051D01*
Y573857D01*
X1222051Y574857D01*
X1223051Y575857D01*
Y576857D01*
X1222051D01*
X1221051Y575857D01*
X1220051Y576857D01*
X1219051D01*
Y575857D01*
X1220051Y574857D01*
X1219051Y573857D01*
Y572857D01*
X1219051Y600893D02*
X1220051D01*
X1221051Y601893D01*
X1222051Y600893D01*
X1223051D01*
Y601893D01*
X1222051Y602893D01*
X1223051Y603893D01*
Y604893D01*
X1222051D01*
X1221051Y603893D01*
X1220051Y604893D01*
X1219051D01*
Y603893D01*
X1220051Y602893D01*
X1219051Y601893D01*
Y600893D01*
X1191776Y591683D02*
X1192776D01*
X1193776Y592683D01*
X1194776Y591683D01*
X1195776D01*
Y592683D01*
X1194776Y593683D01*
X1195776Y594683D01*
Y595683D01*
X1194776D01*
X1193776Y594683D01*
X1192776Y595683D01*
X1191776D01*
Y594683D01*
X1192776Y593683D01*
X1191776Y592683D01*
Y591683D01*
X1214882Y568432D02*
X1215882D01*
X1216882Y569432D01*
X1217882Y568432D01*
X1218882D01*
Y569432D01*
X1217882Y570432D01*
X1218882Y571432D01*
Y572432D01*
X1217882D01*
X1216882Y571432D01*
X1215882Y572432D01*
X1214882D01*
Y571432D01*
X1215882Y570432D01*
X1214882Y569432D01*
Y568432D01*
X976869Y718700D02*
X977868D01*
X978868Y719700D01*
X979869Y718700D01*
X980869D01*
Y719700D01*
X979869Y720700D01*
X980869Y721700D01*
Y722700D01*
X979869D01*
X978868Y721700D01*
X977868Y722700D01*
X976869D01*
Y721700D01*
X977868Y720700D01*
X976869Y719700D01*
Y718700D01*
X681530Y494885D02*
X682530D01*
X683530Y495885D01*
X684530Y494885D01*
X685530D01*
Y495885D01*
X684530Y496885D01*
X685530Y497885D01*
Y498885D01*
X684530D01*
X683530Y497885D01*
X682530Y498885D01*
X681530D01*
Y497885D01*
X682530Y496885D01*
X681530Y495885D01*
Y494885D01*
X1227654Y588820D02*
X1228654D01*
X1229655Y589820D01*
X1230655Y588820D01*
X1231654D01*
Y589820D01*
X1230655Y590820D01*
X1231654Y591820D01*
Y592820D01*
X1230655D01*
X1229655Y591820D01*
X1228654Y592820D01*
X1227654D01*
Y591820D01*
X1228654Y590820D01*
X1227654Y589820D01*
Y588820D01*
X1228092Y502134D02*
X1229092D01*
X1230092Y503134D01*
X1231092Y502134D01*
X1232092D01*
Y503134D01*
X1231092Y504134D01*
X1232092Y505134D01*
Y506134D01*
X1231092D01*
X1230092Y505134D01*
X1229092Y506134D01*
X1228092D01*
Y505134D01*
X1229092Y504134D01*
X1228092Y503134D01*
Y502134D01*
X1237200Y490775D02*
X1238200D01*
X1239200Y491775D01*
X1240200Y490775D01*
X1241200D01*
Y491775D01*
X1240200Y492775D01*
X1241200Y493775D01*
Y494775D01*
X1240200D01*
X1239200Y493775D01*
X1238200Y494775D01*
X1237200D01*
Y493775D01*
X1238200Y492775D01*
X1237200Y491775D01*
Y490775D01*
X1129900Y496700D02*
X1130900D01*
X1131900Y497700D01*
X1132900Y496700D01*
X1133900D01*
Y497700D01*
X1132900Y498700D01*
X1133900Y499700D01*
Y500700D01*
X1132900D01*
X1131900Y499700D01*
X1130900Y500700D01*
X1129900D01*
Y499700D01*
X1130900Y498700D01*
X1129900Y497700D01*
Y496700D01*
X1123043Y625718D02*
X1124043D01*
X1125043Y626718D01*
X1126043Y625718D01*
X1127043D01*
Y626718D01*
X1126043Y627718D01*
X1127043Y628718D01*
Y629718D01*
X1126043D01*
X1125043Y628718D01*
X1124043Y629718D01*
X1123043D01*
Y628718D01*
X1124043Y627718D01*
X1123043Y626718D01*
Y625718D01*
X811936Y520535D02*
X812936D01*
X813936Y521535D01*
X814936Y520535D01*
X815936D01*
Y521535D01*
X814936Y522535D01*
X815936Y523535D01*
Y524535D01*
X814936D01*
X813936Y523535D01*
X812936Y524535D01*
X811936D01*
Y523535D01*
X812936Y522535D01*
X811936Y521535D01*
Y520535D01*
X841316D02*
X842316D01*
X843316Y521535D01*
X844316Y520535D01*
X845316D01*
Y521535D01*
X844316Y522535D01*
X845316Y523535D01*
Y524535D01*
X844316D01*
X843316Y523535D01*
X842316Y524535D01*
X841316D01*
Y523535D01*
X842316Y522535D01*
X841316Y521535D01*
Y520535D01*
X847784Y634175D02*
X848784D01*
X849784Y635176D01*
X850784Y634175D01*
X851784D01*
Y635176D01*
X850784Y636175D01*
X851784Y637176D01*
Y638175D01*
X850784D01*
X849784Y637176D01*
X848784Y638175D01*
X847784D01*
Y637176D01*
X848784Y636175D01*
X847784Y635176D01*
Y634175D01*
X885014Y638388D02*
X886014D01*
X887014Y639388D01*
X888014Y638388D01*
X889014D01*
Y639388D01*
X888014Y640388D01*
X889014Y641388D01*
Y642388D01*
X888014D01*
X887014Y641388D01*
X886014Y642388D01*
X885014D01*
Y641388D01*
X886014Y640388D01*
X885014Y639388D01*
Y638388D01*
X894525Y634622D02*
X895525D01*
X896525Y635622D01*
X897525Y634622D01*
X898525D01*
Y635622D01*
X897525Y636622D01*
X898525Y637622D01*
Y638622D01*
X897525D01*
X896525Y637622D01*
X895525Y638622D01*
X894525D01*
Y637622D01*
X895525Y636622D01*
X894525Y635622D01*
Y634622D01*
X894188Y629633D02*
X895188D01*
X896188Y630633D01*
X897188Y629633D01*
X898188D01*
Y630633D01*
X897188Y631633D01*
X898188Y632633D01*
Y633633D01*
X897188D01*
X896188Y632633D01*
X895188Y633633D01*
X894188D01*
Y632633D01*
X895188Y631633D01*
X894188Y630633D01*
Y629633D01*
X869125Y640701D02*
X870125D01*
X871125Y641701D01*
X872125Y640701D01*
X873125D01*
Y641701D01*
X872125Y642701D01*
X873125Y643701D01*
Y644701D01*
X872125D01*
X871125Y643701D01*
X870125Y644701D01*
X869125D01*
Y643701D01*
X870125Y642701D01*
X869125Y641701D01*
Y640701D01*
X824631Y629694D02*
X825631D01*
X826631Y630694D01*
X827631Y629694D01*
X828631D01*
Y630694D01*
X827631Y631694D01*
X828631Y632694D01*
Y633694D01*
X827631D01*
X826631Y632694D01*
X825631Y633694D01*
X824631D01*
Y632694D01*
X825631Y631694D01*
X824631Y630694D01*
Y629694D01*
X1258037Y627600D02*
X1259037D01*
X1260037Y628600D01*
X1261037Y627600D01*
X1262037D01*
Y628600D01*
X1261037Y629600D01*
X1262037Y630600D01*
Y631600D01*
X1261037D01*
X1260037Y630600D01*
X1259037Y631600D01*
X1258037D01*
Y630600D01*
X1259037Y629600D01*
X1258037Y628600D01*
Y627600D01*
X1281600D02*
X1282600D01*
X1283600Y628600D01*
X1284600Y627600D01*
X1285600D01*
Y628600D01*
X1284600Y629600D01*
X1285600Y630600D01*
Y631600D01*
X1284600D01*
X1283600Y630600D01*
X1282600Y631600D01*
X1281600D01*
Y630600D01*
X1282600Y629600D01*
X1281600Y628600D01*
Y627600D01*
X1335648Y671700D02*
X1336648D01*
X1337648Y672700D01*
X1338648Y671700D01*
X1339648D01*
Y672700D01*
X1338648Y673700D01*
X1339648Y674700D01*
Y675700D01*
X1338648D01*
X1337648Y674700D01*
X1336648Y675700D01*
X1335648D01*
Y674700D01*
X1336648Y673700D01*
X1335648Y672700D01*
Y671700D01*
X1242900Y577665D02*
X1243900D01*
X1244900Y578665D01*
X1245900Y577665D01*
X1246900D01*
Y578665D01*
X1245900Y579665D01*
X1246900Y580665D01*
Y581665D01*
X1245900D01*
X1244900Y580665D01*
X1243900Y581665D01*
X1242900D01*
Y580665D01*
X1243900Y579665D01*
X1242900Y578665D01*
Y577665D01*
X884751Y576139D02*
X885751D01*
X886751Y577140D01*
X887751Y576139D01*
X888751D01*
Y577140D01*
X887751Y578139D01*
X888751Y579140D01*
Y580139D01*
X887751D01*
X886751Y579140D01*
X885751Y580139D01*
X884751D01*
Y579140D01*
X885751Y578139D01*
X884751Y577140D01*
Y576139D01*
X894298Y563150D02*
X895298D01*
X896298Y564150D01*
X897298Y563150D01*
X898298D01*
Y564150D01*
X897298Y565150D01*
X898298Y566150D01*
Y567150D01*
X897298D01*
X896298Y566150D01*
X895298Y567150D01*
X894298D01*
Y566150D01*
X895298Y565150D01*
X894298Y564150D01*
Y563150D01*
X879896Y577025D02*
X880896D01*
X881896Y578025D01*
X882896Y577025D01*
X883896D01*
Y578025D01*
X882896Y579025D01*
X883896Y580025D01*
Y581025D01*
X882896D01*
X881896Y580025D01*
X880896Y581025D01*
X879896D01*
Y580025D01*
X880896Y579025D01*
X879896Y578025D01*
Y577025D01*
X1100939Y609423D02*
X1101939D01*
X1102939Y610423D01*
X1103939Y609423D01*
X1104939D01*
Y610423D01*
X1103939Y611423D01*
X1104939Y612423D01*
Y613423D01*
X1103939D01*
X1102939Y612423D01*
X1101939Y613423D01*
X1100939D01*
Y612423D01*
X1101939Y611423D01*
X1100939Y610423D01*
Y609423D01*
X891830Y578244D02*
X892830D01*
X893830Y579244D01*
X894830Y578244D01*
X895830D01*
Y579244D01*
X894830Y580244D01*
X895830Y581244D01*
Y582244D01*
X894830D01*
X893830Y581244D01*
X892830Y582244D01*
X891830D01*
Y581244D01*
X892830Y580244D01*
X891830Y579244D01*
Y578244D01*
X795900Y573171D02*
X796900D01*
X797900Y574171D01*
X798900Y573171D01*
X799900D01*
Y574171D01*
X798900Y575171D01*
X799900Y576171D01*
Y577171D01*
X798900D01*
X797900Y576171D01*
X796900Y577171D01*
X795900D01*
Y576171D01*
X796900Y575171D01*
X795900Y574171D01*
Y573171D01*
X803256D02*
X804256D01*
X805256Y574171D01*
X806256Y573171D01*
X807256D01*
Y574171D01*
X806256Y575171D01*
X807256Y576171D01*
Y577171D01*
X806256D01*
X805256Y576171D01*
X804256Y577171D01*
X803256D01*
Y576171D01*
X804256Y575171D01*
X803256Y574171D01*
Y573171D01*
X1011869Y560788D02*
X1012869D01*
X1013869Y561788D01*
X1014869Y560788D01*
X1015869D01*
Y561788D01*
X1014869Y562788D01*
X1015869Y563788D01*
Y564788D01*
X1014869D01*
X1013869Y563788D01*
X1012869Y564788D01*
X1011869D01*
Y563788D01*
X1012869Y562788D01*
X1011869Y561788D01*
Y560788D01*
X905602Y559634D02*
X906602D01*
X907602Y560634D01*
X908602Y559634D01*
X909602D01*
Y560634D01*
X908602Y561634D01*
X909602Y562634D01*
Y563634D01*
X908602D01*
X907602Y562634D01*
X906602Y563634D01*
X905602D01*
Y562634D01*
X906602Y561634D01*
X905602Y560634D01*
Y559634D01*
X1071900Y562819D02*
X1072900D01*
X1073900Y563819D01*
X1074900Y562819D01*
X1075900D01*
Y563819D01*
X1074900Y564819D01*
X1075900Y565819D01*
Y566819D01*
X1074900D01*
X1073900Y565819D01*
X1072900Y566819D01*
X1071900D01*
Y565819D01*
X1072900Y564819D01*
X1071900Y563819D01*
Y562819D01*
X956056Y564394D02*
X957056D01*
X958056Y565394D01*
X959056Y564394D01*
X960056D01*
Y565394D01*
X959056Y566394D01*
X960056Y567394D01*
Y568394D01*
X959056D01*
X958056Y567394D01*
X957056Y568394D01*
X956056D01*
Y567394D01*
X957056Y566394D01*
X956056Y565394D01*
Y564394D01*
X829594Y568205D02*
X830594D01*
X831594Y569205D01*
X832594Y568205D01*
X833594D01*
Y569205D01*
X832594Y570205D01*
X833594Y571205D01*
Y572205D01*
X832594D01*
X831594Y571205D01*
X830594Y572205D01*
X829594D01*
Y571205D01*
X830594Y570205D01*
X829594Y569205D01*
Y568205D01*
X803400Y586364D02*
X804400D01*
X805400Y587364D01*
X806400Y586364D01*
X807400D01*
Y587364D01*
X806400Y588364D01*
X807400Y589364D01*
Y590364D01*
X806400D01*
X805400Y589364D01*
X804400Y590364D01*
X803400D01*
Y589364D01*
X804400Y588364D01*
X803400Y587364D01*
Y586364D01*
X803256Y581787D02*
X804256D01*
X805256Y582787D01*
X806256Y581787D01*
X807256D01*
Y582787D01*
X806256Y583787D01*
X807256Y584787D01*
Y585787D01*
X806256D01*
X805256Y584787D01*
X804256Y585787D01*
X803256D01*
Y584787D01*
X804256Y583787D01*
X803256Y582787D01*
Y581787D01*
X1189575Y568432D02*
X1190575D01*
X1191575Y569432D01*
X1192575Y568432D01*
X1193575D01*
Y569432D01*
X1192575Y570432D01*
X1193575Y571432D01*
Y572432D01*
X1192575D01*
X1191575Y571432D01*
X1190575Y572432D01*
X1189575D01*
Y571432D01*
X1190575Y570432D01*
X1189575Y569432D01*
Y568432D01*
X1191658Y579086D02*
X1192658D01*
X1193658Y580086D01*
X1194658Y579086D01*
X1195658D01*
Y580086D01*
X1194658Y581086D01*
X1195658Y582086D01*
Y583086D01*
X1194658D01*
X1193658Y582086D01*
X1192658Y583086D01*
X1191658D01*
Y582086D01*
X1192658Y581086D01*
X1191658Y580086D01*
Y579086D01*
X799242Y429200D02*
X800242D01*
X801242Y430200D01*
X802242Y429200D01*
X803242D01*
Y430200D01*
X802242Y431200D01*
X803242Y432200D01*
Y433200D01*
X802242D01*
X801242Y432200D01*
X800242Y433200D01*
X799242D01*
Y432200D01*
X800242Y431200D01*
X799242Y430200D01*
Y429200D01*
X672634Y657700D02*
X673634D01*
X674634Y658700D01*
X675634Y657700D01*
X676634D01*
Y658700D01*
X675634Y659700D01*
X676634Y660700D01*
Y661700D01*
X675634D01*
X674634Y660700D01*
X673634Y661700D01*
X672634D01*
Y660700D01*
X673634Y659700D01*
X672634Y658700D01*
Y657700D01*
X843517Y497783D02*
X844516D01*
X845516Y498783D01*
X846517Y497783D01*
X847517D01*
Y498783D01*
X846517Y499783D01*
X847517Y500783D01*
Y501783D01*
X846517D01*
X845516Y500783D01*
X844516Y501783D01*
X843517D01*
Y500783D01*
X844516Y499783D01*
X843517Y498783D01*
Y497783D01*
X901788Y512049D02*
X902788D01*
X903788Y513049D01*
X904788Y512049D01*
X905788D01*
Y513049D01*
X904788Y514049D01*
X905788Y515049D01*
Y516049D01*
X904788D01*
X903788Y515049D01*
X902788Y516049D01*
X901788D01*
Y515049D01*
X902788Y514049D01*
X901788Y513049D01*
Y512049D01*
X896676Y518866D02*
X897676D01*
X898676Y519866D01*
X899676Y518866D01*
X900676D01*
Y519866D01*
X899676Y520866D01*
X900676Y521866D01*
Y522866D01*
X899676D01*
X898676Y521866D01*
X897676Y522866D01*
X896676D01*
Y521866D01*
X897676Y520866D01*
X896676Y519866D01*
Y518866D01*
X978952Y532999D02*
X979952D01*
X980952Y533999D01*
X981952Y532999D01*
X982952D01*
Y533999D01*
X981952Y534999D01*
X982952Y535999D01*
Y536999D01*
X981952D01*
X980952Y535999D01*
X979952Y536999D01*
X978952D01*
Y535999D01*
X979952Y534999D01*
X978952Y533999D01*
Y532999D01*
X1191532Y559000D02*
X1192532D01*
X1193532Y560000D01*
X1194532Y559000D01*
X1195532D01*
Y560000D01*
X1194532Y561000D01*
X1195532Y562000D01*
Y563000D01*
X1194532D01*
X1193532Y562000D01*
X1192532Y563000D01*
X1191532D01*
Y562000D01*
X1192532Y561000D01*
X1191532Y560000D01*
Y559000D01*
X1210741Y518200D02*
X1211741D01*
X1212741Y519200D01*
X1213741Y518200D01*
X1214741D01*
Y519200D01*
X1213741Y520200D01*
X1214741Y521200D01*
Y522200D01*
X1213741D01*
X1212741Y521200D01*
X1211741Y522200D01*
X1210741D01*
Y521200D01*
X1211741Y520200D01*
X1210741Y519200D01*
Y518200D01*
X903338Y626645D02*
X904338D01*
X905338Y627645D01*
X906338Y626645D01*
X907338D01*
Y627645D01*
X906338Y628645D01*
X907338Y629645D01*
Y630645D01*
X906338D01*
X905338Y629645D01*
X904338Y630645D01*
X903338D01*
Y629645D01*
X904338Y628645D01*
X903338Y627645D01*
Y626645D01*
X894188Y621964D02*
X895188D01*
X896188Y622964D01*
X897188Y621964D01*
X898188D01*
Y622964D01*
X897188Y623964D01*
X898188Y624964D01*
Y625964D01*
X897188D01*
X896188Y624964D01*
X895188Y625964D01*
X894188D01*
Y624964D01*
X895188Y623964D01*
X894188Y622964D01*
Y621964D01*
X1113569Y592932D02*
X1114569D01*
X1115569Y593932D01*
X1116569Y592932D01*
X1117569D01*
Y593932D01*
X1116569Y594932D01*
X1117569Y595932D01*
Y596932D01*
X1116569D01*
X1115569Y595932D01*
X1114569Y596932D01*
X1113569D01*
Y595932D01*
X1114569Y594932D01*
X1113569Y593932D01*
Y592932D01*
X1108125Y529109D02*
X1109124D01*
X1110124Y530109D01*
X1111125Y529109D01*
X1112125D01*
Y530109D01*
X1111125Y531109D01*
X1112125Y532109D01*
Y533109D01*
X1111125D01*
X1110124Y532109D01*
X1109124Y533109D01*
X1108125D01*
Y532109D01*
X1109124Y531109D01*
X1108125Y530109D01*
Y529109D01*
X798900Y636892D02*
X799900D01*
X800900Y637892D01*
X801900Y636892D01*
X802900D01*
Y637892D01*
X801900Y638892D01*
X802900Y639892D01*
Y640892D01*
X801900D01*
X800900Y639892D01*
X799900Y640892D01*
X798900D01*
Y639892D01*
X799900Y638892D01*
X798900Y637892D01*
Y636892D01*
X802852Y609601D02*
X803852D01*
X804852Y610601D01*
X805852Y609601D01*
X806852D01*
Y610601D01*
X805852Y611601D01*
X806852Y612601D01*
Y613601D01*
X805852D01*
X804852Y612601D01*
X803852Y613601D01*
X802852D01*
Y612601D01*
X803852Y611601D01*
X802852Y610601D01*
Y609601D01*
X818826Y640014D02*
X819826D01*
X820826Y641014D01*
X821826Y640014D01*
X822826D01*
Y641014D01*
X821826Y642014D01*
X822826Y643014D01*
Y644014D01*
X821826D01*
X820826Y643014D01*
X819826Y644014D01*
X818826D01*
Y643014D01*
X819826Y642014D01*
X818826Y641014D01*
Y640014D01*
X887933Y620491D02*
X888933D01*
X889933Y621490D01*
X890933Y620491D01*
X891933D01*
Y621490D01*
X890933Y622491D01*
X891933Y623490D01*
Y624490D01*
X890933D01*
X889933Y623490D01*
X888933Y624490D01*
X887933D01*
Y623490D01*
X888933Y622491D01*
X887933Y621490D01*
Y620491D01*
X877731Y605653D02*
X878731D01*
X879731Y606653D01*
X880731Y605653D01*
X881731D01*
Y606653D01*
X880731Y607653D01*
X881731Y608653D01*
Y609653D01*
X880731D01*
X879731Y608653D01*
X878731Y609653D01*
X877731D01*
Y608653D01*
X878731Y607653D01*
X877731Y606653D01*
Y605653D01*
X912917Y596109D02*
X913917D01*
X914917Y597110D01*
X915917Y596109D01*
X916917D01*
Y597110D01*
X915917Y598109D01*
X916917Y599110D01*
Y600109D01*
X915917D01*
X914917Y599110D01*
X913917Y600109D01*
X912917D01*
Y599110D01*
X913917Y598109D01*
X912917Y597110D01*
Y596109D01*
X969414Y506700D02*
X970414D01*
X971414Y507700D01*
X972414Y506700D01*
X973414D01*
Y507700D01*
X972414Y508700D01*
X973414Y509700D01*
Y510700D01*
X972414D01*
X971414Y509700D01*
X970414Y510700D01*
X969414D01*
Y509700D01*
X970414Y508700D01*
X969414Y507700D01*
Y506700D01*
X1089719Y625483D02*
X1090719D01*
X1091719Y626483D01*
X1092719Y625483D01*
X1093719D01*
Y626483D01*
X1092719Y627483D01*
X1093719Y628483D01*
Y629483D01*
X1092719D01*
X1091719Y628483D01*
X1090719Y629483D01*
X1089719D01*
Y628483D01*
X1090719Y627483D01*
X1089719Y626483D01*
Y625483D01*
X1095034Y598137D02*
X1096034D01*
X1097034Y599137D01*
X1098034Y598137D01*
X1099034D01*
Y599137D01*
X1098034Y600137D01*
X1099034Y601137D01*
Y602137D01*
X1098034D01*
X1097034Y601137D01*
X1096034Y602137D01*
X1095034D01*
Y601137D01*
X1096034Y600137D01*
X1095034Y599137D01*
Y598137D01*
X939900Y639126D02*
X940900D01*
X941900Y640126D01*
X942900Y639126D01*
X943900D01*
Y640126D01*
X942900Y641126D01*
X943900Y642126D01*
Y643126D01*
X942900D01*
X941900Y642126D01*
X940900Y643126D01*
X939900D01*
Y642126D01*
X940900Y641126D01*
X939900Y640126D01*
Y639126D01*
X1005274Y644366D02*
X1006274D01*
X1007274Y645366D01*
X1008274Y644366D01*
X1009274D01*
Y645366D01*
X1008274Y646366D01*
X1009274Y647366D01*
Y648366D01*
X1008274D01*
X1007274Y647366D01*
X1006274Y648366D01*
X1005274D01*
Y647366D01*
X1006274Y646366D01*
X1005274Y645366D01*
Y644366D01*
X993253Y644366D02*
X994253D01*
X995253Y645366D01*
X996253Y644366D01*
X997253D01*
Y645366D01*
X996253Y646366D01*
X997253Y647366D01*
Y648366D01*
X996253D01*
X995253Y647366D01*
X994253Y648366D01*
X993253D01*
Y647366D01*
X994253Y646366D01*
X993253Y645366D01*
Y644366D01*
X1078400Y640050D02*
X1079400D01*
X1080400Y641050D01*
X1081400Y640050D01*
X1082400D01*
Y641050D01*
X1081400Y642050D01*
X1082400Y643050D01*
Y644050D01*
X1081400D01*
X1080400Y643050D01*
X1079400Y644050D01*
X1078400D01*
Y643050D01*
X1079400Y642050D01*
X1078400Y641050D01*
Y640050D01*
X945343Y520491D02*
X946344D01*
X947344Y521491D01*
X948343Y520491D01*
X949343D01*
Y521491D01*
X948343Y522491D01*
X949343Y523491D01*
Y524491D01*
X948343D01*
X947344Y523491D01*
X946344Y524491D01*
X945343D01*
Y523491D01*
X946344Y522491D01*
X945343Y521491D01*
Y520491D01*
X921184Y518907D02*
X922184D01*
X923184Y519908D01*
X924184Y518907D01*
X925184D01*
Y519908D01*
X924184Y520907D01*
X925184Y521908D01*
Y522907D01*
X924184D01*
X923184Y521908D01*
X922184Y522907D01*
X921184D01*
Y521908D01*
X922184Y520907D01*
X921184Y519908D01*
Y518907D01*
X1071900Y569014D02*
X1072900D01*
X1073900Y570014D01*
X1074900Y569014D01*
X1075900D01*
Y570014D01*
X1074900Y571014D01*
X1075900Y572014D01*
Y573014D01*
X1074900D01*
X1073900Y572014D01*
X1072900Y573014D01*
X1071900D01*
Y572014D01*
X1072900Y571014D01*
X1071900Y570014D01*
Y569014D01*
X1000900Y568205D02*
X1001900D01*
X1002900Y569205D01*
X1003900Y568205D01*
X1004900D01*
Y569205D01*
X1003900Y570205D01*
X1004900Y571205D01*
Y572205D01*
X1003900D01*
X1002900Y571205D01*
X1001900Y572205D01*
X1000900D01*
Y571205D01*
X1001900Y570205D01*
X1000900Y569205D01*
Y568205D01*
X880649Y508933D02*
X881649D01*
X882649Y509933D01*
X883649Y508933D01*
X884649D01*
Y509933D01*
X883649Y510933D01*
X884649Y511933D01*
Y512933D01*
X883649D01*
X882649Y511933D01*
X881649Y512933D01*
X880649D01*
Y511933D01*
X881649Y510933D01*
X880649Y509933D01*
Y508933D01*
X891830Y583362D02*
X892830D01*
X893830Y584362D01*
X894830Y583362D01*
X895830D01*
Y584362D01*
X894830Y585362D01*
X895830Y586362D01*
Y587362D01*
X894830D01*
X893830Y586362D01*
X892830Y587362D01*
X891830D01*
Y586362D01*
X892830Y585362D01*
X891830Y584362D01*
Y583362D01*
X929400Y504307D02*
X930400D01*
X931400Y505307D01*
X932400Y504307D01*
X933400D01*
Y505307D01*
X932400Y506307D01*
X933400Y507307D01*
Y508307D01*
X932400D01*
X931400Y507307D01*
X930400Y508307D01*
X929400D01*
Y507307D01*
X930400Y506307D01*
X929400Y505307D01*
Y504307D01*
X899253Y579425D02*
X900253D01*
X901253Y580425D01*
X902253Y579425D01*
X903253D01*
Y580425D01*
X902253Y581425D01*
X903253Y582425D01*
Y583425D01*
X902253D01*
X901253Y582425D01*
X900253Y583425D01*
X899253D01*
Y582425D01*
X900253Y581425D01*
X899253Y580425D01*
Y579425D01*
X836528Y581974D02*
X837528D01*
X838528Y582974D01*
X839528Y581974D01*
X840528D01*
Y582974D01*
X839528Y583974D01*
X840528Y584974D01*
Y585974D01*
X839528D01*
X838528Y584974D01*
X837528Y585974D01*
X836528D01*
Y584974D01*
X837528Y583974D01*
X836528Y582974D01*
Y581974D01*
X1009900Y529599D02*
X1010900D01*
X1011900Y530599D01*
X1012900Y529599D01*
X1013900D01*
Y530599D01*
X1012900Y531599D01*
X1013900Y532599D01*
Y533599D01*
X1012900D01*
X1011900Y532599D01*
X1010900Y533599D01*
X1009900D01*
Y532599D01*
X1010900Y531599D01*
X1009900Y530599D01*
Y529599D01*
X1071900Y579014D02*
X1072900D01*
X1073900Y580014D01*
X1074900Y579014D01*
X1075900D01*
Y580014D01*
X1074900Y581014D01*
X1075900Y582014D01*
Y583014D01*
X1074900D01*
X1073900Y582014D01*
X1072900Y583014D01*
X1071900D01*
Y582014D01*
X1072900Y581014D01*
X1071900Y580014D01*
Y579014D01*
X973492Y589366D02*
X974492D01*
X975492Y590366D01*
X976492Y589366D01*
X977492D01*
Y590366D01*
X976492Y591366D01*
X977492Y592366D01*
Y593366D01*
X976492D01*
X975492Y592366D01*
X974492Y593366D01*
X973492D01*
Y592366D01*
X974492Y591366D01*
X973492Y590366D01*
Y589366D01*
X902793Y541701D02*
X903793D01*
X904793Y542701D01*
X905793Y541701D01*
X906793D01*
Y542701D01*
X905793Y543701D01*
X906793Y544701D01*
Y545701D01*
X905793D01*
X904793Y544701D01*
X903793Y545701D01*
X902793D01*
Y544701D01*
X903793Y543701D01*
X902793Y542701D01*
Y541701D01*
X902747Y547499D02*
X903747D01*
X904747Y548499D01*
X905747Y547499D01*
X906747D01*
Y548499D01*
X905747Y549499D01*
X906747Y550499D01*
Y551499D01*
X905747D01*
X904747Y550499D01*
X903747Y551499D01*
X902747D01*
Y550499D01*
X903747Y549499D01*
X902747Y548499D01*
Y547499D01*
X872458Y530288D02*
X873458D01*
X874458Y531288D01*
X875458Y530288D01*
X876458D01*
Y531288D01*
X875458Y532288D01*
X876458Y533288D01*
Y534288D01*
X875458D01*
X874458Y533288D01*
X873458Y534288D01*
X872458D01*
Y533288D01*
X873458Y532288D01*
X872458Y531288D01*
Y530288D01*
X952460Y645480D02*
X953460D01*
X954460Y646480D01*
X955460Y645480D01*
X956460D01*
Y646480D01*
X955460Y647480D01*
X956460Y648480D01*
Y649480D01*
X955460D01*
X954460Y648480D01*
X953460Y649480D01*
X952460D01*
Y648480D01*
X953460Y647480D01*
X952460Y646480D01*
Y645480D01*
X829781Y582161D02*
X830781D01*
X831781Y583160D01*
X832781Y582161D01*
X833781D01*
Y583160D01*
X832781Y584161D01*
X833781Y585160D01*
Y586161D01*
X832781D01*
X831781Y585160D01*
X830781Y586161D01*
X829781D01*
Y585160D01*
X830781Y584161D01*
X829781Y583160D01*
Y582161D01*
X829674Y575595D02*
X830674D01*
X831674Y576595D01*
X832674Y575595D01*
X833674D01*
Y576595D01*
X832674Y577595D01*
X833674Y578595D01*
Y579595D01*
X832674D01*
X831674Y578595D01*
X830674Y579595D01*
X829674D01*
Y578595D01*
X830674Y577595D01*
X829674Y576595D01*
Y575595D01*
X824338Y572699D02*
X825338D01*
X826338Y573699D01*
X827338Y572699D01*
X828338D01*
Y573699D01*
X827338Y574699D01*
X828338Y575699D01*
Y576699D01*
X827338D01*
X826338Y575699D01*
X825338Y576699D01*
X824338D01*
Y575699D01*
X825338Y574699D01*
X824338Y573699D01*
Y572699D01*
X857641Y613502D02*
X858641D01*
X859641Y614502D01*
X860641Y613502D01*
X861641D01*
Y614502D01*
X860641Y615502D01*
X861641Y616502D01*
Y617502D01*
X860641D01*
X859641Y616502D01*
X858641Y617502D01*
X857641D01*
Y616502D01*
X858641Y615502D01*
X857641Y614502D01*
Y613502D01*
Y621178D02*
X858641D01*
X859641Y622178D01*
X860641Y621178D01*
X861641D01*
Y622178D01*
X860641Y623178D01*
X861641Y624178D01*
Y625178D01*
X860641D01*
X859641Y624178D01*
X858641Y625178D01*
X857641D01*
Y624178D01*
X858641Y623178D01*
X857641Y622178D01*
Y621178D01*
X822996Y620786D02*
X823996D01*
X824996Y621786D01*
X825996Y620786D01*
X826996D01*
Y621786D01*
X825996Y622786D01*
X826996Y623786D01*
Y624786D01*
X825996D01*
X824996Y623786D01*
X823996Y624786D01*
X822996D01*
Y623786D01*
X823996Y622786D01*
X822996Y621786D01*
Y620786D01*
X792503Y601523D02*
X793503D01*
X794503Y602523D01*
X795503Y601523D01*
X796503D01*
Y602523D01*
X795503Y603523D01*
X796503Y604523D01*
Y605523D01*
X795503D01*
X794503Y604523D01*
X793503Y605523D01*
X792503D01*
Y604523D01*
X793503Y603523D01*
X792503Y602523D01*
Y601523D01*
Y596306D02*
X793503D01*
X794503Y597306D01*
X795503Y596306D01*
X796503D01*
Y597306D01*
X795503Y598306D01*
X796503Y599306D01*
Y600306D01*
X795503D01*
X794503Y599306D01*
X793503Y600306D01*
X792503D01*
Y599306D01*
X793503Y598306D01*
X792503Y597306D01*
Y596306D01*
X734557Y626836D02*
X735558D01*
X736557Y627836D01*
X737558Y626836D01*
X738557D01*
Y627836D01*
X737558Y628836D01*
X738557Y629836D01*
Y630836D01*
X737558D01*
X736557Y629836D01*
X735558Y630836D01*
X734557D01*
Y629836D01*
X735558Y628836D01*
X734557Y627836D01*
Y626836D01*
Y621475D02*
X735558D01*
X736557Y622475D01*
X737558Y621475D01*
X738557D01*
Y622475D01*
X737558Y623475D01*
X738557Y624475D01*
Y625475D01*
X737558D01*
X736557Y624475D01*
X735558Y625475D01*
X734557D01*
Y624475D01*
X735558Y623475D01*
X734557Y622475D01*
Y621475D01*
X738524Y638493D02*
X739525D01*
X740524Y639493D01*
X741525Y638493D01*
X742524D01*
Y639493D01*
X741525Y640493D01*
X742524Y641493D01*
Y642493D01*
X741525D01*
X740524Y641493D01*
X739525Y642493D01*
X738524D01*
Y641493D01*
X739525Y640493D01*
X738524Y639493D01*
Y638493D01*
X803400Y577063D02*
X804400D01*
X805400Y578063D01*
X806400Y577063D01*
X807400D01*
Y578063D01*
X806400Y579063D01*
X807400Y580063D01*
Y581063D01*
X806400D01*
X805400Y580063D01*
X804400Y581063D01*
X803400D01*
Y580063D01*
X804400Y579063D01*
X803400Y578063D01*
Y577063D01*
X824338Y586554D02*
X825338D01*
X826338Y587554D01*
X827338Y586554D01*
X828338D01*
Y587554D01*
X827338Y588554D01*
X828338Y589554D01*
Y590554D01*
X827338D01*
X826338Y589554D01*
X825338Y590554D01*
X824338D01*
Y589554D01*
X825338Y588554D01*
X824338Y587554D01*
Y586554D01*
X779814Y641786D02*
X780814D01*
X781814Y642786D01*
X782814Y641786D01*
X783814D01*
Y642786D01*
X782814Y643786D01*
X783814Y644786D01*
Y645786D01*
X782814D01*
X781814Y644786D01*
X780814Y645786D01*
X779814D01*
Y644786D01*
X780814Y643786D01*
X779814Y642786D01*
Y641786D01*
X826307Y548524D02*
X827307D01*
X828307Y549524D01*
X829307Y548524D01*
X830307D01*
Y549524D01*
X829307Y550524D01*
X830307Y551524D01*
Y552524D01*
X829307D01*
X828307Y551524D01*
X827307Y552524D01*
X826307D01*
Y551524D01*
X827307Y550524D01*
X826307Y549524D01*
Y548524D01*
X833191D02*
X834191D01*
X835191Y549524D01*
X836191Y548524D01*
X837191D01*
Y549524D01*
X836191Y550524D01*
X837191Y551524D01*
Y552524D01*
X836191D01*
X835191Y551524D01*
X834191Y552524D01*
X833191D01*
Y551524D01*
X834191Y550524D01*
X833191Y549524D01*
Y548524D01*
X840641D02*
X841641D01*
X842641Y549524D01*
X843641Y548524D01*
X844641D01*
Y549524D01*
X843641Y550524D01*
X844641Y551524D01*
Y552524D01*
X843641D01*
X842641Y551524D01*
X841641Y552524D01*
X840641D01*
Y551524D01*
X841641Y550524D01*
X840641Y549524D01*
Y548524D01*
X906684Y579573D02*
X907684D01*
X908684Y580573D01*
X909684Y579573D01*
X910684D01*
Y580573D01*
X909684Y581573D01*
X910684Y582573D01*
Y583573D01*
X909684D01*
X908684Y582573D01*
X907684Y583573D01*
X906684D01*
Y582573D01*
X907684Y581573D01*
X906684Y580573D01*
Y579573D01*
X880649Y548665D02*
X881649D01*
X882649Y549665D01*
X883649Y548665D01*
X884649D01*
Y549665D01*
X883649Y550665D01*
X884649Y551665D01*
Y552665D01*
X883649D01*
X882649Y551665D01*
X881649Y552665D01*
X880649D01*
Y551665D01*
X881649Y550665D01*
X880649Y549665D01*
Y548665D01*
X891365Y529988D02*
X892365D01*
X893365Y530988D01*
X894365Y529988D01*
X895365D01*
Y530988D01*
X894365Y531988D01*
X895365Y532988D01*
Y533988D01*
X894365D01*
X893365Y532988D01*
X892365Y533988D01*
X891365D01*
Y532988D01*
X892365Y531988D01*
X891365Y530988D01*
Y529988D01*
X881865D02*
X882865D01*
X883865Y530988D01*
X884865Y529988D01*
X885865D01*
Y530988D01*
X884865Y531988D01*
X885865Y532988D01*
Y533988D01*
X884865D01*
X883865Y532988D01*
X882865Y533988D01*
X881865D01*
Y532988D01*
X882865Y531988D01*
X881865Y530988D01*
Y529988D01*
X811585Y696700D02*
X812585D01*
X813585Y697700D01*
X814585Y696700D01*
X815585D01*
Y697700D01*
X814585Y698700D01*
X815585Y699700D01*
Y700700D01*
X814585D01*
X813585Y699700D01*
X812585Y700700D01*
X811585D01*
Y699700D01*
X812585Y698700D01*
X811585Y697700D01*
Y696700D01*
X818826Y631529D02*
X819826D01*
X820826Y632529D01*
X821826Y631529D01*
X822826D01*
Y632529D01*
X821826Y633529D01*
X822826Y634529D01*
Y635529D01*
X821826D01*
X820826Y634529D01*
X819826Y635529D01*
X818826D01*
Y634529D01*
X819826Y633529D01*
X818826Y632529D01*
Y631529D01*
X1135400Y440566D02*
X1136400D01*
X1137400Y441566D01*
X1138400Y440566D01*
X1139400D01*
Y441566D01*
X1138400Y442566D01*
X1139400Y443566D01*
Y444566D01*
X1138400D01*
X1137400Y443566D01*
X1136400Y444566D01*
X1135400D01*
Y443566D01*
X1136400Y442566D01*
X1135400Y441566D01*
Y440566D01*
X1162900D02*
X1163900D01*
X1164900Y441566D01*
X1165900Y440566D01*
X1166900D01*
Y441566D01*
X1165900Y442566D01*
X1166900Y443566D01*
Y444566D01*
X1165900D01*
X1164900Y443566D01*
X1163900Y444566D01*
X1162900D01*
Y443566D01*
X1163900Y442566D01*
X1162900Y441566D01*
Y440566D01*
X1181802Y641515D02*
X1182802D01*
X1183802Y642515D01*
X1184802Y641515D01*
X1185802D01*
Y642515D01*
X1184802Y643515D01*
X1185802Y644515D01*
Y645515D01*
X1184802D01*
X1183802Y644515D01*
X1182802Y645515D01*
X1181802D01*
Y644515D01*
X1182802Y643515D01*
X1181802Y642515D01*
Y641515D01*
X808400Y704480D02*
X809400D01*
X810400Y705479D01*
X811400Y704480D01*
X812400D01*
Y705479D01*
X811400Y706480D01*
X812400Y707479D01*
Y708479D01*
X811400D01*
X810400Y707479D01*
X809400Y708479D01*
X808400D01*
Y707479D01*
X809400Y706480D01*
X808400Y705479D01*
Y704480D01*
X772400Y529609D02*
X773400D01*
X774400Y530610D01*
X775400Y529609D01*
X776400D01*
Y530610D01*
X775400Y531609D01*
X776400Y532610D01*
Y533609D01*
X775400D01*
X774400Y532610D01*
X773400Y533609D01*
X772400D01*
Y532610D01*
X773400Y531609D01*
X772400Y530610D01*
Y529609D01*
X789247D02*
X790246D01*
X791247Y530610D01*
X792246Y529609D01*
X793247D01*
Y530610D01*
X792246Y531609D01*
X793247Y532610D01*
Y533609D01*
X792246D01*
X791247Y532610D01*
X790246Y533609D01*
X789247D01*
Y532610D01*
X790246Y531609D01*
X789247Y530610D01*
Y529609D01*
X723400Y536676D02*
X724400D01*
X725400Y537676D01*
X726400Y536676D01*
X727400D01*
Y537676D01*
X726400Y538676D01*
X727400Y539676D01*
Y540676D01*
X726400D01*
X725400Y539676D01*
X724400Y540676D01*
X723400D01*
Y539676D01*
X724400Y538676D01*
X723400Y537676D01*
Y536676D01*
X742932Y484200D02*
X743931D01*
X744932Y485200D01*
X745931Y484200D01*
X746932D01*
Y485200D01*
X745931Y486200D01*
X746932Y487200D01*
Y488200D01*
X745931D01*
X744932Y487200D01*
X743931Y488200D01*
X742932D01*
Y487200D01*
X743931Y486200D01*
X742932Y485200D01*
Y484200D01*
X790900Y429200D02*
X791900D01*
X792900Y430200D01*
X793900Y429200D01*
X794900D01*
Y430200D01*
X793900Y431200D01*
X794900Y432200D01*
Y433200D01*
X793900D01*
X792900Y432200D01*
X791900Y433200D01*
X790900D01*
Y432200D01*
X791900Y431200D01*
X790900Y430200D01*
Y429200D01*
X783400D02*
X784400D01*
X785400Y430200D01*
X786400Y429200D01*
X787400D01*
Y430200D01*
X786400Y431200D01*
X787400Y432200D01*
Y433200D01*
X786400D01*
X785400Y432200D01*
X784400Y433200D01*
X783400D01*
Y432200D01*
X784400Y431200D01*
X783400Y430200D01*
Y429200D01*
X958812Y650200D02*
X959812D01*
X960812Y651200D01*
X961812Y650200D01*
X962812D01*
Y651200D01*
X961812Y652200D01*
X962812Y653200D01*
Y654200D01*
X961812D01*
X960812Y653200D01*
X959812Y654200D01*
X958812D01*
Y653200D01*
X959812Y652200D01*
X958812Y651200D01*
Y650200D01*
X966094Y674200D02*
X967094D01*
X968094Y675200D01*
X969094Y674200D01*
X970094D01*
Y675200D01*
X969094Y676200D01*
X970094Y677200D01*
Y678200D01*
X969094D01*
X968094Y677200D01*
X967094Y678200D01*
X966094D01*
Y677200D01*
X967094Y676200D01*
X966094Y675200D01*
Y674200D01*
X662693Y714032D02*
X663693D01*
X664693Y715032D01*
X665693Y714032D01*
X666693D01*
Y715032D01*
X665693Y716032D01*
X666693Y717032D01*
Y718032D01*
X665693D01*
X664693Y717032D01*
X663693Y718032D01*
X662693D01*
Y717032D01*
X663693Y716032D01*
X662693Y715032D01*
Y714032D01*
X634825Y701385D02*
X635825D01*
X636825Y702385D01*
X637825Y701385D01*
X638825D01*
Y702385D01*
X637825Y703385D01*
X638825Y704385D01*
Y705385D01*
X637825D01*
X636825Y704385D01*
X635825Y705385D01*
X634825D01*
Y704385D01*
X635825Y703385D01*
X634825Y702385D01*
Y701385D01*
X617569Y721920D02*
X618569D01*
X619569Y722921D01*
X620569Y721920D01*
X621569D01*
Y722921D01*
X620569Y723920D01*
X621569Y724921D01*
Y725920D01*
X620569D01*
X619569Y724921D01*
X618569Y725920D01*
X617569D01*
Y724921D01*
X618569Y723920D01*
X617569Y722921D01*
Y721920D01*
X624900Y636773D02*
X625900D01*
X626900Y637773D01*
X627900Y636773D01*
X628900D01*
Y637773D01*
X627900Y638773D01*
X628900Y639773D01*
Y640773D01*
X627900D01*
X626900Y639773D01*
X625900Y640773D01*
X624900D01*
Y639773D01*
X625900Y638773D01*
X624900Y637773D01*
Y636773D01*
Y611731D02*
X625900D01*
X626900Y612732D01*
X627900Y611731D01*
X628900D01*
Y612732D01*
X627900Y613731D01*
X628900Y614732D01*
Y615731D01*
X627900D01*
X626900Y614732D01*
X625900Y615731D01*
X624900D01*
Y614732D01*
X625900Y613731D01*
X624900Y612732D01*
Y611731D01*
X675502Y520393D02*
X676502D01*
X677502Y521393D01*
X678502Y520393D01*
X679502D01*
Y521393D01*
X678502Y522393D01*
X679502Y523393D01*
Y524393D01*
X678502D01*
X677502Y523393D01*
X676502Y524393D01*
X675502D01*
Y523393D01*
X676502Y522393D01*
X675502Y521393D01*
Y520393D01*
X665660Y533700D02*
X666660D01*
X667660Y534700D01*
X668660Y533700D01*
X669660D01*
Y534700D01*
X668660Y535700D01*
X669660Y536700D01*
Y537700D01*
X668660D01*
X667660Y536700D01*
X666660Y537700D01*
X665660D01*
Y536700D01*
X666660Y535700D01*
X665660Y534700D01*
Y533700D01*
X1326921Y680428D02*
X1327921D01*
X1328921Y681427D01*
X1329921Y680428D01*
X1330921D01*
Y681427D01*
X1329921Y682428D01*
X1330921Y683427D01*
Y684427D01*
X1329921D01*
X1328921Y683427D01*
X1327921Y684427D01*
X1326921D01*
Y683427D01*
X1327921Y682428D01*
X1326921Y681427D01*
Y680428D01*
X1294215Y705700D02*
X1295216D01*
X1296216Y706700D01*
X1297215Y705700D01*
X1298215D01*
Y706700D01*
X1297215Y707700D01*
X1298215Y708700D01*
Y709700D01*
X1297215D01*
X1296216Y708700D01*
X1295216Y709700D01*
X1294215D01*
Y708700D01*
X1295216Y707700D01*
X1294215Y706700D01*
Y705700D01*
X1299121Y710605D02*
X1300121D01*
X1301120Y711605D01*
X1302120Y710605D01*
X1303121D01*
Y711605D01*
X1302120Y712605D01*
X1303121Y713605D01*
Y714605D01*
X1302120D01*
X1301120Y713605D01*
X1300121Y714605D01*
X1299121D01*
Y713605D01*
X1300121Y712605D01*
X1299121Y711605D01*
Y710605D01*
X1306932Y702200D02*
X1307932D01*
X1308932Y703200D01*
X1309932Y702200D01*
X1310932D01*
Y703200D01*
X1309932Y704200D01*
X1310932Y705200D01*
Y706200D01*
X1309932D01*
X1308932Y705200D01*
X1307932Y706200D01*
X1306932D01*
Y705200D01*
X1307932Y704200D01*
X1306932Y703200D01*
Y702200D01*
X1341254Y677997D02*
X1342254D01*
X1343254Y678997D01*
X1344254Y677997D01*
X1345254D01*
Y678997D01*
X1344254Y679997D01*
X1345254Y680997D01*
Y681997D01*
X1344254D01*
X1343254Y680997D01*
X1342254Y681997D01*
X1341254D01*
Y680997D01*
X1342254Y679997D01*
X1341254Y678997D01*
Y677997D01*
X1334210Y685041D02*
X1335210D01*
X1336210Y686041D01*
X1337210Y685041D01*
X1338210D01*
Y686041D01*
X1337210Y687041D01*
X1338210Y688041D01*
Y689041D01*
X1337210D01*
X1336210Y688041D01*
X1335210Y689041D01*
X1334210D01*
Y688041D01*
X1335210Y687041D01*
X1334210Y686041D01*
Y685041D01*
D20*
X1243916Y587503D02*
X1245884D01*
Y588487D01*
X1245556Y588815D01*
X1244244D01*
X1243916Y588487D01*
Y587503D01*
X1245884Y590455D02*
X1243916D01*
X1244900Y589471D01*
Y590783D01*
D125*
X1257959Y571003D02*
G03*
X1257959Y571003I-2000J0D01*
G01*
Y562342D02*
G03*
X1257959Y562342I-2000J0D01*
G01*
Y579665D02*
G03*
X1257959Y579665I-2000J0D01*
G01*
Y588326D02*
G03*
X1257959Y588326I-2000J0D01*
G01*
X709030Y561553D02*
G03*
X709030Y561553I-2000J0D01*
G01*
Y570215D02*
G03*
X709030Y570215I-2000J0D01*
G01*
Y587537D02*
G03*
X709030Y587537I-2000J0D01*
G01*
Y578876D02*
G03*
X709030Y578876I-2000J0D01*
G01*
M02*
