G04*
G04 #@! TF.GenerationSoftware,Altium Limited,Altium Designer,24.2.2 (26)*
G04*
G04 Layer_Physical_Order=4*
G04 Layer_Color=16711680*
%FSLAX25Y25*%
%MOIN*%
G70*
G04*
G04 #@! TF.SameCoordinates,E85AF581-5EDA-4222-B011-A7CF2EBE2122*
G04*
G04*
G04 #@! TF.FilePolarity,Positive*
G04*
G01*
G75*
%ADD11C,0.01575*%
%ADD14C,0.00787*%
%ADD15C,0.01968*%
%ADD17C,0.01000*%
%ADD20C,0.00197*%
%ADD80C,0.07087*%
%ADD82R,0.06102X0.06102*%
%ADD83C,0.06102*%
%ADD84R,0.05469X0.05469*%
%ADD85C,0.05469*%
%ADD91C,0.04331*%
%ADD111C,0.01181*%
%ADD112C,0.03937*%
%ADD114C,0.03150*%
%ADD118C,0.21260*%
%ADD119C,0.51181*%
%ADD120C,0.06693*%
%ADD121R,0.06693X0.06693*%
%ADD122R,0.06102X0.06102*%
%ADD123C,0.02402*%
%ADD124C,0.65617*%
G36*
X685376Y745850D02*
X685377Y663127D01*
X702138Y646366D01*
X780986D01*
X781086Y645866D01*
X780568Y645651D01*
X779949Y645032D01*
X779614Y644223D01*
Y643348D01*
X779949Y642539D01*
X780568Y641920D01*
X781377Y641585D01*
X782252D01*
X783061Y641920D01*
X783680Y642539D01*
X784015Y643348D01*
Y644223D01*
X783680Y645032D01*
X783061Y645651D01*
X782543Y645866D01*
X782643Y646366D01*
X806842D01*
X881802Y646366D01*
X882009Y645866D01*
X880441Y644298D01*
X880133Y643837D01*
X880025Y643293D01*
Y635291D01*
X862067Y617334D01*
X861691Y617259D01*
X861275Y616981D01*
X860887Y617368D01*
X860079Y617703D01*
X859203D01*
X858394Y617368D01*
X857775Y616749D01*
X857440Y615940D01*
Y615064D01*
X857775Y614256D01*
X858394Y613637D01*
X859203Y613302D01*
X860079D01*
X860398Y613434D01*
X860814Y613156D01*
Y608897D01*
X860314Y608798D01*
X860311Y608805D01*
X859692Y609424D01*
X858883Y609759D01*
X858008D01*
X857199Y609424D01*
X856580Y608805D01*
X856245Y607996D01*
Y607121D01*
X856580Y606312D01*
X857199Y605693D01*
X858008Y605358D01*
X858883D01*
X859692Y605693D01*
X860311Y606312D01*
X860314Y606319D01*
X860814Y606220D01*
Y600946D01*
X838885Y579016D01*
X833365D01*
X832920Y579461D01*
X832476Y579645D01*
X832575Y580145D01*
X836120D01*
X836664Y580253D01*
X837125Y580561D01*
X838337Y581773D01*
X838966D01*
X839775Y582108D01*
X840394Y582727D01*
X840729Y583536D01*
Y584412D01*
X840394Y585220D01*
X839775Y585840D01*
X838966Y586175D01*
X838091D01*
X837282Y585840D01*
X836663Y585220D01*
X836328Y584412D01*
Y583783D01*
X835532Y582987D01*
X834127D01*
X833849Y583403D01*
X833982Y583723D01*
Y584598D01*
X833646Y585407D01*
X833027Y586026D01*
X832218Y586361D01*
X831343D01*
X830534Y586026D01*
X830011Y585503D01*
X806653D01*
X806503Y585653D01*
X805694Y585988D01*
X804819D01*
X804010Y585653D01*
X803880Y585524D01*
X803418Y585715D01*
Y592111D01*
X808358Y597051D01*
X836132D01*
X840690Y592494D01*
Y591865D01*
X841025Y591056D01*
X841644Y590437D01*
X842453Y590102D01*
X843328D01*
X844137Y590437D01*
X844756Y591056D01*
X845091Y591865D01*
Y592740D01*
X844756Y593549D01*
X844137Y594168D01*
X843328Y594503D01*
X842699D01*
X837725Y599477D01*
X837264Y599785D01*
X836721Y599893D01*
X807770D01*
X807226Y599785D01*
X806765Y599477D01*
X800993Y593705D01*
X800685Y593244D01*
X800576Y592700D01*
Y575668D01*
X800101Y575609D01*
X799766Y576418D01*
X799147Y577037D01*
X798338Y577372D01*
X797462D01*
X796653Y577037D01*
X796034Y576418D01*
X795699Y575609D01*
Y574733D01*
X796034Y573925D01*
X796479Y573480D01*
Y563006D01*
X796587Y562463D01*
X796895Y562002D01*
X852906Y505991D01*
X853367Y505683D01*
X853911Y505575D01*
X853911Y505575D01*
X890503D01*
X891047Y505683D01*
X891508Y505991D01*
X905003Y519487D01*
X921493D01*
X921938Y519042D01*
X922747Y518707D01*
X923622D01*
X924431Y519042D01*
X925050Y519661D01*
X925385Y520470D01*
Y521345D01*
X925050Y522154D01*
X924431Y522773D01*
X923622Y523108D01*
X922747D01*
X921938Y522773D01*
X921493Y522329D01*
X904415D01*
X903871Y522220D01*
X903410Y521912D01*
X901059Y519562D01*
X900636Y519845D01*
X900877Y520428D01*
Y521057D01*
X915772Y535952D01*
X915921Y536101D01*
X916425Y535955D01*
X947998Y504382D01*
X948459Y504074D01*
X949003Y503966D01*
X982181D01*
X982372Y503504D01*
X981837Y502969D01*
X855973D01*
X838920Y485916D01*
Y403386D01*
X829021Y393487D01*
X625933Y393738D01*
X616430Y403241D01*
Y481024D01*
Y698566D01*
X616930Y698665D01*
X617174Y698075D01*
X617793Y697456D01*
X618602Y697121D01*
X619478D01*
X620287Y697456D01*
X620623Y697793D01*
X622837D01*
X623422Y697909D01*
X623918Y698241D01*
X632258Y706580D01*
X636489D01*
X636825Y706244D01*
X637634Y705909D01*
X638510D01*
X639319Y706244D01*
X639938Y706863D01*
X640273Y707672D01*
Y708548D01*
X639938Y709356D01*
X639319Y709975D01*
X638510Y710311D01*
X637634D01*
X636825Y709975D01*
X636489Y709639D01*
X631625D01*
X631040Y709523D01*
X630543Y709191D01*
X622204Y700851D01*
X620623D01*
X620287Y701188D01*
X619478Y701523D01*
X618602D01*
X617793Y701188D01*
X617174Y700569D01*
X616930Y699979D01*
X616430Y700078D01*
Y745850D01*
X626297Y755717D01*
X675509Y755717D01*
X685376Y745850D01*
D02*
G37*
G36*
X939258Y755692D02*
X949156Y745794D01*
Y668156D01*
X939022Y658022D01*
X938867Y658177D01*
X807479D01*
X806990Y658224D01*
X806968Y658222D01*
X806519Y658177D01*
X806506D01*
Y658177D01*
X707030D01*
X697187Y668019D01*
Y745850D01*
X707030Y755692D01*
X939258D01*
Y755692D01*
D02*
G37*
G36*
X1256243Y745794D02*
Y668156D01*
X1246511Y658424D01*
X1115597D01*
X1114689Y657517D01*
X1014777D01*
X1004274Y668019D01*
Y745850D01*
X1014117Y755692D01*
X1246344D01*
X1256243Y745794D01*
D02*
G37*
G36*
X1346511Y745794D02*
Y489352D01*
X1214775D01*
X1214423Y489707D01*
X1214436Y491341D01*
X1214436Y491343D01*
X1214436Y491345D01*
X1214399Y491538D01*
X1214362Y491732D01*
X1214361Y491733D01*
X1214360Y491736D01*
X1214252Y491899D01*
X1214144Y492064D01*
X1214142Y492065D01*
X1214141Y492067D01*
X1213789Y492422D01*
X1213787Y492424D01*
X1213786Y492425D01*
X1213621Y492535D01*
X1213459Y492645D01*
X1213457Y492645D01*
X1213455Y492646D01*
X1213262Y492685D01*
X1213069Y492724D01*
X1213067Y492724D01*
X1213065Y492724D01*
X1205712D01*
X1205322Y492646D01*
X1204991Y492425D01*
X1204770Y492095D01*
X1204692Y491704D01*
Y490507D01*
X1204770Y490117D01*
X1204991Y489786D01*
X1205322Y489565D01*
X1205712Y489488D01*
X1211216D01*
Y486052D01*
X1114510D01*
X1104281Y496282D01*
X1104564Y496706D01*
X1105062Y496499D01*
X1105938D01*
X1106367Y496677D01*
X1131033D01*
X1131462Y496499D01*
X1132338D01*
X1133147Y496834D01*
X1133766Y497453D01*
X1134101Y498262D01*
Y499138D01*
X1133766Y499947D01*
X1133147Y500566D01*
X1132338Y500901D01*
X1131462D01*
X1131033Y500723D01*
X1106367D01*
X1105938Y500901D01*
X1105062D01*
X1104253Y500566D01*
X1103634Y499947D01*
X1103299Y499138D01*
Y498262D01*
X1103506Y497764D01*
X1103082Y497481D01*
X1097749Y502814D01*
X993045D01*
X992889Y502969D01*
X988212D01*
X988021Y503431D01*
X988523Y503933D01*
X1089476D01*
X1090250Y504087D01*
X1090906Y504525D01*
X1155362Y568981D01*
X1155801Y569637D01*
X1155955Y570412D01*
Y589050D01*
X1156419Y589318D01*
X1157173Y590072D01*
X1157707Y590996D01*
X1157983Y592026D01*
Y593093D01*
X1157707Y594123D01*
X1157173Y595047D01*
X1156419Y595801D01*
X1155495Y596335D01*
X1154465Y596611D01*
X1153398D01*
X1152368Y596335D01*
X1151444Y595801D01*
X1150690Y595047D01*
X1150156Y594123D01*
X1149880Y593093D01*
Y592026D01*
X1150156Y590996D01*
X1150690Y590072D01*
X1151444Y589318D01*
X1151908Y589050D01*
Y571250D01*
X1112608Y531950D01*
X1112118Y532047D01*
X1111990Y532355D01*
X1111371Y532975D01*
X1110562Y533310D01*
X1109687D01*
X1109258Y533132D01*
X1099718D01*
X1075923Y556927D01*
Y563952D01*
X1076101Y564381D01*
Y565257D01*
X1075766Y566066D01*
X1075147Y566685D01*
X1074338Y567020D01*
X1073462D01*
X1072653Y566685D01*
X1072034Y566066D01*
X1071873Y565677D01*
X1070113Y563917D01*
X1043753D01*
X1043452Y564218D01*
X1042796Y564657D01*
X1042022Y564811D01*
X1014735D01*
X1014306Y564988D01*
X1013431D01*
X1012622Y564653D01*
X1012003Y564034D01*
X1011668Y563225D01*
Y562350D01*
X1012003Y561541D01*
X1012622Y560922D01*
X1013431Y560587D01*
X1014306D01*
X1014735Y560765D01*
X1041184D01*
X1041485Y560463D01*
X1042141Y560025D01*
X1042915Y559871D01*
X1070951D01*
X1071377Y559955D01*
X1071877Y559570D01*
Y556089D01*
X1072031Y555315D01*
X1072470Y554659D01*
X1097450Y529678D01*
X1098106Y529240D01*
X1098880Y529086D01*
X1109037D01*
X1109245Y528586D01*
X1088638Y507979D01*
X1005784D01*
X1005411Y508479D01*
X1005455Y508700D01*
Y513904D01*
X1005952Y514401D01*
X1006287Y515210D01*
Y516086D01*
X1005952Y516894D01*
X1005333Y517514D01*
X1004922Y517684D01*
X1005021Y518184D01*
X1053729D01*
X1054314Y518300D01*
X1054810Y518632D01*
X1073846Y537667D01*
X1074335D01*
X1075144Y538002D01*
X1075763Y538622D01*
X1076098Y539430D01*
Y540306D01*
X1075763Y541115D01*
X1075144Y541734D01*
X1074335Y542069D01*
X1073459D01*
X1072650Y541734D01*
X1072031Y541115D01*
X1071696Y540306D01*
Y539843D01*
X1053095Y521243D01*
X1001405D01*
X1000820Y521126D01*
X1000324Y520795D01*
X992809Y513281D01*
X980906D01*
X980320Y513164D01*
X979824Y512833D01*
X977221Y510229D01*
X972997D01*
X972661Y510566D01*
X971852Y510901D01*
X970977D01*
X970168Y510566D01*
X969549Y509947D01*
X969213Y509138D01*
Y508262D01*
X969549Y507453D01*
X969694Y507308D01*
X969487Y506808D01*
X949591D01*
X918503Y537896D01*
Y563312D01*
X918503Y563312D01*
X918395Y563856D01*
X918087Y564317D01*
X911911Y570493D01*
X911450Y570801D01*
X910906Y570909D01*
X905175D01*
X896031Y580053D01*
Y580682D01*
X895696Y581491D01*
X895077Y582110D01*
X894268Y582445D01*
X893392D01*
X892583Y582110D01*
X891964Y581491D01*
X891648Y580727D01*
X891585Y580664D01*
X891129Y580481D01*
X890958Y580602D01*
Y583199D01*
X891701Y583941D01*
X892139D01*
X892583Y583496D01*
X893392Y583161D01*
X894268D01*
X895077Y583496D01*
X895696Y584116D01*
X896031Y584924D01*
Y585800D01*
X895696Y586609D01*
X895077Y587228D01*
X894268Y587563D01*
X893392D01*
X892583Y587228D01*
X892139Y586783D01*
X891112D01*
X890568Y586675D01*
X890107Y586367D01*
X888532Y584792D01*
X888224Y584331D01*
X888116Y583787D01*
Y580497D01*
X887616Y580163D01*
X887188Y580340D01*
X886313D01*
X885504Y580005D01*
X884885Y579386D01*
X884664Y578853D01*
X884597Y578691D01*
X884097Y578791D01*
X884097Y578954D01*
Y579463D01*
X883762Y580272D01*
X883317Y580717D01*
Y583396D01*
X911683Y611762D01*
X1073917D01*
X1091869Y593810D01*
X1092330Y593502D01*
X1092874Y593393D01*
X1106121D01*
X1106665Y593502D01*
X1107126Y593810D01*
X1122775Y609458D01*
X1128035D01*
X1128480Y609014D01*
X1129289Y608678D01*
X1130164D01*
X1130973Y609014D01*
X1131592Y609633D01*
X1131927Y610442D01*
Y611317D01*
X1131592Y612126D01*
X1130973Y612745D01*
X1130164Y613080D01*
X1129289D01*
X1128480Y612745D01*
X1128035Y612300D01*
X1122186D01*
X1121642Y612192D01*
X1121181Y611884D01*
X1105533Y596235D01*
X1093462D01*
X1075511Y614187D01*
X1075049Y614495D01*
X1074506Y614604D01*
X911095D01*
X910551Y614495D01*
X910090Y614187D01*
X880892Y584989D01*
X880583Y584528D01*
X880475Y583984D01*
Y580717D01*
X880031Y580272D01*
X879696Y579463D01*
Y578588D01*
X880031Y577779D01*
X880650Y577160D01*
X881459Y576825D01*
X882334D01*
X883143Y577160D01*
X883762Y577779D01*
X883983Y578312D01*
X884050Y578474D01*
X884550Y578374D01*
X884550Y578211D01*
Y577702D01*
X884885Y576893D01*
X885504Y576274D01*
X886313Y575939D01*
X887169D01*
X895469Y567638D01*
X895372Y567148D01*
X895051Y567016D01*
X894607Y566571D01*
X891874D01*
X891330Y566463D01*
X890869Y566155D01*
X890364Y565650D01*
X883921D01*
X872273Y577298D01*
Y614612D01*
X892862Y635201D01*
X894834D01*
X895278Y634756D01*
X896087Y634421D01*
X896963D01*
X897772Y634756D01*
X898391Y635375D01*
X898726Y636184D01*
Y637060D01*
X898391Y637868D01*
X897772Y638488D01*
X896963Y638823D01*
X896087D01*
X895278Y638488D01*
X894834Y638043D01*
X894130D01*
X893939Y638505D01*
X895139Y639705D01*
X940209D01*
X940653Y639260D01*
X940971Y639129D01*
X940872Y638629D01*
X913330D01*
X913330Y638629D01*
X912633Y638490D01*
X912041Y638095D01*
X904716Y630769D01*
X904091Y630511D01*
X903472Y629892D01*
X903137Y629083D01*
Y628207D01*
X903472Y627398D01*
X904091Y626779D01*
X904900Y626444D01*
X905776D01*
X906584Y626779D01*
X907204Y627398D01*
X907539Y628207D01*
Y628438D01*
X914085Y634984D01*
X1045215D01*
X1052857Y627342D01*
Y627281D01*
X1053192Y626472D01*
X1053811Y625853D01*
X1054620Y625518D01*
X1054681D01*
X1061760Y618439D01*
X1061760Y618439D01*
X1062351Y618044D01*
X1063048Y617905D01*
X1071654D01*
X1071655Y617905D01*
X1072352Y618044D01*
X1072943Y618439D01*
X1091957Y637453D01*
X1154920D01*
X1162109Y630264D01*
Y596185D01*
X1161444Y595801D01*
X1160690Y595047D01*
X1160157Y594123D01*
X1159880Y593093D01*
Y592026D01*
X1160157Y590996D01*
X1160690Y590072D01*
X1161444Y589318D01*
X1162368Y588785D01*
X1163398Y588509D01*
X1164465D01*
X1165495Y588785D01*
X1166419Y589318D01*
X1167173Y590072D01*
X1167707Y590996D01*
X1167983Y592026D01*
Y593093D01*
X1167707Y594123D01*
X1167173Y595047D01*
X1166419Y595801D01*
X1165754Y596185D01*
Y631019D01*
X1165754Y631019D01*
X1165615Y631716D01*
X1165220Y632307D01*
X1156963Y640564D01*
X1156372Y640959D01*
X1155675Y641098D01*
X1155675Y641098D01*
X1131822D01*
X1131544Y641514D01*
X1131673Y641826D01*
Y642701D01*
X1131338Y643510D01*
X1130719Y644130D01*
X1129910Y644464D01*
X1129035D01*
X1128226Y644130D01*
X1127607Y643510D01*
X1127272Y642701D01*
Y641826D01*
X1127401Y641514D01*
X1127123Y641098D01*
X1091203D01*
X1091202Y641098D01*
X1090505Y640959D01*
X1089914Y640564D01*
X1070900Y621550D01*
X1063803D01*
X1063267Y622086D01*
X1063478Y622582D01*
X1064153D01*
X1064962Y622917D01*
X1065581Y623536D01*
X1065916Y624345D01*
Y625220D01*
X1065581Y626029D01*
X1064962Y626648D01*
X1064153Y626983D01*
X1063524D01*
X1048012Y642495D01*
X1047551Y642803D01*
X1047007Y642911D01*
X948499D01*
X946684Y644726D01*
X946224Y645034D01*
X945680Y645142D01*
X943505D01*
X943313Y645604D01*
X943769Y646059D01*
X952768D01*
X953213Y645614D01*
X954022Y645279D01*
X954897D01*
X955706Y645614D01*
X956326Y646234D01*
X956660Y647042D01*
Y647918D01*
X956326Y648727D01*
X955706Y649346D01*
X954897Y649681D01*
X954022D01*
X953213Y649346D01*
X952768Y648901D01*
X943180D01*
X942636Y648793D01*
X942175Y648485D01*
X940487Y646797D01*
X940195Y646832D01*
X940007Y647351D01*
X960812Y668156D01*
X960967D01*
Y745794D01*
X970809Y755636D01*
X982565D01*
X982621Y755692D01*
X992463Y745850D01*
Y668019D01*
X1014116Y646366D01*
X1113929D01*
X1251156Y646366D01*
X1268054Y663264D01*
Y745794D01*
X1277952Y755692D01*
X1336613Y755692D01*
X1346511Y745794D01*
D02*
G37*
G36*
X946905Y640486D02*
X947366Y640178D01*
X947910Y640069D01*
X1046418D01*
X1056404Y630084D01*
X1056121Y629660D01*
X1055495Y629919D01*
X1055434D01*
X1047258Y638095D01*
X1046667Y638490D01*
X1045969Y638629D01*
X1045969Y638629D01*
X942928D01*
X942829Y639129D01*
X943147Y639260D01*
X943766Y639880D01*
X944101Y640689D01*
Y641564D01*
X943968Y641884D01*
X944246Y642300D01*
X945091D01*
X946905Y640486D01*
D02*
G37*
G36*
X820137Y581983D02*
X818638Y580484D01*
X807091D01*
X806647Y580929D01*
X806030Y581184D01*
Y581726D01*
X806503Y581922D01*
X807026Y582444D01*
X819946D01*
X820137Y581983D01*
D02*
G37*
G36*
X863496Y598901D02*
Y582014D01*
X855667Y574185D01*
X834153D01*
X833609Y574077D01*
X833148Y573769D01*
X831785Y572405D01*
X831156D01*
X830348Y572070D01*
X829728Y571451D01*
X829393Y570642D01*
Y569767D01*
X829728Y568958D01*
X830348Y568339D01*
X831156Y568004D01*
X832032D01*
X832841Y568339D01*
X833460Y568958D01*
X833795Y569767D01*
Y570396D01*
X834742Y571343D01*
X855327D01*
X855518Y570881D01*
X852952Y568315D01*
X844676D01*
X844676Y568315D01*
X844132Y568206D01*
X843671Y567898D01*
X828498Y552725D01*
X827869D01*
X827060Y552390D01*
X826441Y551771D01*
X826106Y550962D01*
Y550086D01*
X826441Y549277D01*
X827060Y548658D01*
X827869Y548323D01*
X828744D01*
X829553Y548658D01*
X830172Y549277D01*
X830507Y550086D01*
Y550715D01*
X845265Y565473D01*
X847476D01*
X847668Y565010D01*
X835382Y552725D01*
X834753D01*
X833944Y552390D01*
X833325Y551771D01*
X832990Y550962D01*
Y550086D01*
X833325Y549277D01*
X833944Y548658D01*
X834753Y548323D01*
X835629D01*
X836438Y548658D01*
X837057Y549277D01*
X837392Y550086D01*
Y550715D01*
X849810Y563133D01*
X856993D01*
X857537Y563241D01*
X857998Y563549D01*
X870000Y575551D01*
X881996Y563555D01*
X881789Y563055D01*
X861765D01*
X861221Y562947D01*
X860760Y562639D01*
X843877Y545756D01*
X827724D01*
X803418Y570061D01*
Y577225D01*
X803918Y577432D01*
X804153Y577197D01*
X804962Y576862D01*
X805838D01*
X806647Y577197D01*
X807091Y577642D01*
X819227D01*
X819771Y577750D01*
X820232Y578058D01*
X822318Y580145D01*
X830772D01*
X830872Y579645D01*
X830427Y579461D01*
X829808Y578842D01*
X829473Y578033D01*
Y577157D01*
X829808Y576348D01*
X830427Y575729D01*
X831236Y575394D01*
X832111D01*
X832920Y575729D01*
X833365Y576174D01*
X839473D01*
X840017Y576282D01*
X840478Y576590D01*
X862996Y599108D01*
X863496Y598901D01*
D02*
G37*
G36*
X800576Y574674D02*
Y569472D01*
X800685Y568929D01*
X800993Y568468D01*
X826130Y543330D01*
X826591Y543022D01*
X827135Y542914D01*
X844465D01*
X845009Y543022D01*
X845470Y543330D01*
X862353Y560213D01*
X905910D01*
X906355Y559768D01*
X907164Y559433D01*
X908039D01*
X908848Y559768D01*
X909467Y560387D01*
X909802Y561196D01*
Y562072D01*
X909467Y562881D01*
X908848Y563500D01*
X908039Y563835D01*
X907164D01*
X906355Y563500D01*
X905910Y563055D01*
X898023D01*
X897816Y563555D01*
X898164Y563903D01*
X898499Y564712D01*
X898755Y564922D01*
X898779Y564917D01*
X909013D01*
X911431Y562499D01*
Y541725D01*
X882840Y513134D01*
X882211D01*
X881402Y512799D01*
X880783Y512180D01*
X880448Y511371D01*
Y510495D01*
X880783Y509686D01*
X881402Y509067D01*
X881765Y508917D01*
X881666Y508417D01*
X854499D01*
X849778Y513138D01*
X850037Y513586D01*
X850399Y513489D01*
X851382D01*
X852332Y513744D01*
X853183Y514235D01*
X853878Y514931D01*
X854370Y515782D01*
X854625Y516732D01*
Y517715D01*
X854370Y518665D01*
X854360Y518683D01*
X859007Y523331D01*
X859469Y523140D01*
Y520709D01*
X859449Y520703D01*
X858597Y520212D01*
X857902Y519517D01*
X857411Y518665D01*
X857156Y517715D01*
Y516732D01*
X857411Y515782D01*
X857902Y514931D01*
X858597Y514235D01*
X859449Y513744D01*
X860399Y513489D01*
X861382D01*
X862332Y513744D01*
X863183Y514235D01*
X863879Y514931D01*
X864370Y515782D01*
X864625Y516732D01*
Y517715D01*
X864370Y518665D01*
X863879Y519517D01*
X863183Y520212D01*
X862332Y520703D01*
X862311Y520709D01*
Y524408D01*
X876806Y538902D01*
X901416D01*
X901960Y539010D01*
X902421Y539319D01*
X904602Y541500D01*
X905231D01*
X906040Y541835D01*
X906659Y542454D01*
X906994Y543263D01*
Y544138D01*
X906659Y544947D01*
X906040Y545566D01*
X905231Y545901D01*
X904356D01*
X903547Y545566D01*
X903196Y545921D01*
X904573Y547298D01*
X905185D01*
X905994Y547633D01*
X906613Y548252D01*
X906948Y549061D01*
Y549937D01*
X906613Y550746D01*
X905994Y551365D01*
X905185Y551700D01*
X904310D01*
X903501Y551365D01*
X902882Y550746D01*
X902547Y549937D01*
Y549291D01*
X898378Y545122D01*
X877367D01*
X876824Y545013D01*
X876362Y544705D01*
X852350Y520693D01*
X852332Y520703D01*
X851382Y520958D01*
X850399D01*
X849449Y520703D01*
X848598Y520212D01*
X847902Y519517D01*
X847411Y518665D01*
X847156Y517715D01*
Y516732D01*
X847253Y516370D01*
X846805Y516111D01*
X843082Y519834D01*
X843289Y520334D01*
X843754D01*
X844562Y520669D01*
X845181Y521288D01*
X845516Y522097D01*
Y522972D01*
X845181Y523781D01*
X844562Y524400D01*
X843754Y524735D01*
X842878D01*
X842069Y524400D01*
X841450Y523781D01*
X841115Y522972D01*
Y522508D01*
X840615Y522301D01*
X799321Y563595D01*
Y573480D01*
X799766Y573925D01*
X800101Y574733D01*
X800576Y574674D01*
D02*
G37*
G36*
X1003251Y517684D02*
X1002839Y517514D01*
X1002220Y516894D01*
X1001885Y516086D01*
Y515210D01*
X1002220Y514401D01*
X1002613Y514009D01*
Y509542D01*
X986723D01*
X986179Y509434D01*
X985718Y509126D01*
X985403Y508811D01*
X984912Y508908D01*
X984780Y509228D01*
X984286Y509722D01*
X984464Y510222D01*
X993443D01*
X994028Y510338D01*
X994524Y510670D01*
X1002039Y518184D01*
X1003151D01*
X1003251Y517684D01*
D02*
G37*
G36*
X913496Y539117D02*
Y537695D01*
X898867Y523067D01*
X898238D01*
X897430Y522731D01*
X896811Y522112D01*
X896475Y521304D01*
Y520428D01*
X896811Y519619D01*
X897430Y519000D01*
X898238Y518665D01*
X899114D01*
X899697Y518906D01*
X899980Y518483D01*
X889915Y508417D01*
X883632D01*
X883533Y508917D01*
X883896Y509067D01*
X884515Y509686D01*
X884850Y510495D01*
Y511124D01*
X913034Y539308D01*
X913496Y539117D01*
D02*
G37*
G36*
X1102699Y481160D02*
Y403330D01*
X1093107Y393738D01*
X860379D01*
X850731Y403386D01*
Y482070D01*
X859818Y491158D01*
X976364D01*
Y476549D01*
X899943D01*
X896626Y476386D01*
X893340Y475899D01*
X890117Y475092D01*
X886990Y473973D01*
X883987Y472552D01*
X881138Y470845D01*
X878470Y468866D01*
X876008Y466635D01*
X873778Y464174D01*
X871799Y461506D01*
X870091Y458656D01*
X868671Y455654D01*
X867552Y452526D01*
X866745Y449304D01*
X866257Y446018D01*
X866094Y442700D01*
X866257Y439382D01*
X866745Y436096D01*
X867552Y432874D01*
X868671Y429746D01*
X870091Y426744D01*
X871799Y423895D01*
X873778Y421226D01*
X876008Y418765D01*
X878470Y416534D01*
X881138Y414556D01*
X883987Y412848D01*
X886990Y411427D01*
X890117Y410308D01*
X893340Y409501D01*
X896626Y409014D01*
X899943Y408851D01*
X1053487D01*
X1056804Y409014D01*
X1060090Y409501D01*
X1063313Y410308D01*
X1066440Y411427D01*
X1069443Y412848D01*
X1072292Y414556D01*
X1074960Y416534D01*
X1077422Y418765D01*
X1079652Y421226D01*
X1081631Y423895D01*
X1083339Y426744D01*
X1084759Y429746D01*
X1085878Y432874D01*
X1086685Y436096D01*
X1087173Y439382D01*
X1087336Y442700D01*
X1087173Y446018D01*
X1086685Y449304D01*
X1085878Y452526D01*
X1084759Y455654D01*
X1083339Y458656D01*
X1081631Y461506D01*
X1079652Y464174D01*
X1077422Y466635D01*
X1074960Y468866D01*
X1072292Y470845D01*
X1069443Y472552D01*
X1066440Y473973D01*
X1063313Y475092D01*
X1060090Y475899D01*
X1056804Y476386D01*
X1053487Y476549D01*
X980410D01*
Y491158D01*
X1092702D01*
X1102699Y481160D01*
D02*
G37*
G36*
X1213417Y491349D02*
X1213391Y488332D01*
X1346511D01*
Y479143D01*
Y403511D01*
X1336738Y393738D01*
X1202941Y393738D01*
X1124353Y393487D01*
X1114510Y403330D01*
Y468292D01*
X1186167D01*
X1198529Y480653D01*
X1212236D01*
Y490507D01*
X1205712D01*
Y491704D01*
X1213065D01*
X1213417Y491349D01*
D02*
G37*
%LPC*%
G36*
X821264Y644215D02*
X820389D01*
X819580Y643880D01*
X818960Y643261D01*
X818626Y642452D01*
Y641577D01*
X818960Y640768D01*
X819580Y640149D01*
X820389Y639814D01*
X821264D01*
X822073Y640149D01*
X822692Y640768D01*
X823027Y641577D01*
Y642452D01*
X822692Y643261D01*
X822073Y643880D01*
X821264Y644215D01*
D02*
G37*
G36*
X748042Y639852D02*
X747167D01*
X746358Y639516D01*
X745913Y639072D01*
X745372D01*
X744828Y638964D01*
X744367Y638656D01*
X736749Y631037D01*
X736120D01*
X735311Y630702D01*
X734692Y630083D01*
X734357Y629274D01*
Y628399D01*
X734692Y627590D01*
X735311Y626970D01*
X736120Y626636D01*
X736995D01*
X737804Y626970D01*
X738423Y627590D01*
X738758Y628399D01*
Y629027D01*
X745937Y636206D01*
X746358Y635785D01*
X747167Y635450D01*
X748042D01*
X748851Y635785D01*
X749470Y636404D01*
X749805Y637213D01*
Y638089D01*
X749470Y638897D01*
X748851Y639516D01*
X748042Y639852D01*
D02*
G37*
G36*
X850222Y638376D02*
X849346D01*
X848537Y638041D01*
X847918Y637422D01*
X847583Y636613D01*
Y635738D01*
X847918Y634929D01*
X848537Y634310D01*
X849346Y633975D01*
X850222D01*
X851031Y634310D01*
X851650Y634929D01*
X851985Y635738D01*
Y636613D01*
X851650Y637422D01*
X851031Y638041D01*
X850222Y638376D01*
D02*
G37*
G36*
X800900Y641886D02*
X800125Y641784D01*
X799403Y641485D01*
X798783Y641009D01*
X798307Y640389D01*
X798008Y639667D01*
X797906Y638892D01*
X798008Y638117D01*
X798307Y637395D01*
X798783Y636775D01*
X810157Y625401D01*
X810777Y624925D01*
X811076Y624801D01*
X811499Y624626D01*
X812274Y624524D01*
X822456D01*
X823230Y624626D01*
X823953Y624925D01*
X824573Y625401D01*
X828749Y629576D01*
X829224Y630197D01*
X829523Y630919D01*
X829626Y631694D01*
X829523Y632469D01*
X829224Y633191D01*
X828749Y633811D01*
X828129Y634287D01*
X827406Y634586D01*
X826631Y634688D01*
X825856Y634586D01*
X825134Y634287D01*
X824514Y633811D01*
X823408Y632705D01*
X822984Y632988D01*
X823027Y633091D01*
Y633967D01*
X822692Y634776D01*
X822073Y635395D01*
X821264Y635730D01*
X820389D01*
X819580Y635395D01*
X818960Y634776D01*
X818626Y633967D01*
Y633091D01*
X818960Y632282D01*
X819580Y631663D01*
X820389Y631328D01*
X821264D01*
X821367Y631371D01*
X821650Y630947D01*
X821215Y630512D01*
X813515D01*
X803017Y641009D01*
X802397Y641485D01*
X801675Y641784D01*
X800900Y641886D01*
D02*
G37*
G36*
X740962Y642694D02*
X740087D01*
X739278Y642359D01*
X738659Y641740D01*
X738324Y640931D01*
Y640455D01*
X730644Y632775D01*
X730312Y632279D01*
X730196Y631694D01*
Y627458D01*
X730312Y626872D01*
X730644Y626376D01*
X734359Y622661D01*
X734571Y622519D01*
X734692Y622228D01*
X735311Y621609D01*
X736120Y621274D01*
X736995D01*
X737804Y621609D01*
X738423Y622228D01*
X738758Y623037D01*
Y623912D01*
X738423Y624721D01*
X737804Y625341D01*
X736995Y625675D01*
X736120D01*
X735802Y625544D01*
X733255Y628091D01*
Y631060D01*
X740487Y638292D01*
X740962D01*
X741771Y638627D01*
X742390Y639246D01*
X742725Y640055D01*
Y640931D01*
X742390Y641740D01*
X741771Y642359D01*
X740962Y642694D01*
D02*
G37*
G36*
X627338Y615932D02*
X626462D01*
X625653Y615597D01*
X625034Y614978D01*
X624699Y614169D01*
Y613294D01*
X625034Y612485D01*
X625653Y611866D01*
X626462Y611531D01*
X627338D01*
X628147Y611866D01*
X628766Y612485D01*
X629101Y613294D01*
Y614169D01*
X628766Y614978D01*
X628147Y615597D01*
X627338Y615932D01*
D02*
G37*
G36*
X794940Y600507D02*
X794065D01*
X793256Y600172D01*
X792637Y599553D01*
X792302Y598744D01*
Y597869D01*
X792637Y597060D01*
X793256Y596441D01*
X794065Y596106D01*
X794940D01*
X795749Y596441D01*
X796368Y597060D01*
X796703Y597869D01*
Y598744D01*
X796368Y599553D01*
X795749Y600172D01*
X794940Y600507D01*
D02*
G37*
G36*
X826776Y590754D02*
X825900D01*
X825091Y590419D01*
X824472Y589800D01*
X824137Y588991D01*
Y588116D01*
X824472Y587307D01*
X825091Y586688D01*
X825900Y586353D01*
X826776D01*
X827585Y586688D01*
X828204Y587307D01*
X828539Y588116D01*
Y588991D01*
X828204Y589800D01*
X827585Y590419D01*
X826776Y590754D01*
D02*
G37*
G36*
X684445Y602183D02*
X682615D01*
X680807Y601897D01*
X679066Y601331D01*
X677435Y600500D01*
X675954Y599424D01*
X674659Y598130D01*
X673583Y596649D01*
X672752Y595017D01*
X672186Y593277D01*
X671900Y591468D01*
Y589638D01*
X672186Y587830D01*
X672752Y586089D01*
X673583Y584458D01*
X674659Y582977D01*
X675954Y581682D01*
X677435Y580606D01*
X679066Y579775D01*
X680807Y579210D01*
X682615Y578923D01*
X684445D01*
X686253Y579210D01*
X687994Y579775D01*
X689625Y580606D01*
X691106Y581682D01*
X692401Y582977D01*
X693477Y584458D01*
X694308Y586089D01*
X694874Y587830D01*
X695160Y589638D01*
Y591468D01*
X694874Y593277D01*
X694308Y595017D01*
X693477Y596649D01*
X692401Y598130D01*
X691106Y599424D01*
X689625Y600500D01*
X687994Y601331D01*
X686253Y601897D01*
X684445Y602183D01*
D02*
G37*
G36*
X707628Y592081D02*
X706432D01*
X705276Y591771D01*
X704240Y591173D01*
X703394Y590327D01*
X702796Y589291D01*
X702487Y588136D01*
Y586939D01*
X702796Y585784D01*
X703394Y584748D01*
X704240Y583902D01*
X704944Y583495D01*
Y582918D01*
X704240Y582512D01*
X703394Y581666D01*
X702796Y580630D01*
X702487Y579474D01*
Y578278D01*
X702796Y577122D01*
X703394Y576086D01*
X704240Y575241D01*
X704944Y574834D01*
Y574257D01*
X704240Y573850D01*
X703394Y573004D01*
X702796Y571968D01*
X702487Y570813D01*
Y569616D01*
X702796Y568461D01*
X703394Y567425D01*
X704240Y566579D01*
X704944Y566173D01*
Y565595D01*
X704240Y565189D01*
X703394Y564343D01*
X702796Y563307D01*
X702487Y562151D01*
Y560955D01*
X702796Y559799D01*
X703394Y558764D01*
X704240Y557918D01*
X705276Y557319D01*
X706432Y557010D01*
X707628D01*
X708784Y557319D01*
X709820Y557918D01*
X710666Y558764D01*
X711264Y559799D01*
X711573Y560955D01*
Y562151D01*
X711264Y563307D01*
X710666Y564343D01*
X709820Y565189D01*
X709116Y565595D01*
Y566173D01*
X709820Y566579D01*
X710666Y567425D01*
X711264Y568461D01*
X711573Y569616D01*
Y570813D01*
X711264Y571968D01*
X710666Y573004D01*
X709820Y573850D01*
X709116Y574257D01*
Y574834D01*
X709820Y575241D01*
X710666Y576086D01*
X711264Y577122D01*
X711573Y578278D01*
Y579474D01*
X711264Y580630D01*
X710666Y581666D01*
X709820Y582512D01*
X709116Y582918D01*
Y583495D01*
X709820Y583902D01*
X710666Y584748D01*
X711264Y585784D01*
X711573Y586939D01*
Y588136D01*
X711264Y589291D01*
X710666Y590327D01*
X709820Y591173D01*
X708784Y591771D01*
X707628Y592081D01*
D02*
G37*
G36*
X683929Y570427D02*
X682099D01*
X680291Y570141D01*
X678550Y569575D01*
X676919Y568744D01*
X675438Y567668D01*
X674143Y566374D01*
X673067Y564893D01*
X672236Y563262D01*
X671671Y561521D01*
X671384Y559713D01*
Y557882D01*
X671671Y556074D01*
X672236Y554333D01*
X673067Y552702D01*
X674143Y551221D01*
X675438Y549927D01*
X676919Y548850D01*
X678550Y548019D01*
X680291Y547454D01*
X682099Y547167D01*
X683929D01*
X685738Y547454D01*
X687479Y548019D01*
X689110Y548850D01*
X690591Y549927D01*
X691885Y551221D01*
X692961Y552702D01*
X693792Y554333D01*
X694358Y556074D01*
X694644Y557882D01*
Y559713D01*
X694358Y561521D01*
X693792Y563262D01*
X692961Y564893D01*
X691885Y566374D01*
X690591Y567668D01*
X689110Y568744D01*
X687479Y569575D01*
X685738Y570141D01*
X683929Y570427D01*
D02*
G37*
G36*
X791684Y533810D02*
X790809D01*
X790000Y533475D01*
X789381Y532856D01*
X789046Y532047D01*
Y531172D01*
X789381Y530363D01*
X790000Y529744D01*
X790809Y529409D01*
X791684D01*
X792493Y529744D01*
X793112Y530363D01*
X793447Y531172D01*
Y532047D01*
X793112Y532856D01*
X792493Y533475D01*
X791684Y533810D01*
D02*
G37*
G36*
X774838D02*
X773962D01*
X773153Y533475D01*
X772534Y532856D01*
X772199Y532047D01*
Y531172D01*
X772534Y530363D01*
X773153Y529744D01*
X773962Y529409D01*
X774838D01*
X775647Y529744D01*
X776266Y530363D01*
X776601Y531172D01*
Y532047D01*
X776266Y532856D01*
X775647Y533475D01*
X774838Y533810D01*
D02*
G37*
G36*
X814374Y524735D02*
X813498D01*
X812689Y524400D01*
X812070Y523781D01*
X811735Y522972D01*
Y522097D01*
X812070Y521288D01*
X812689Y520669D01*
X813498Y520334D01*
X814374D01*
X815183Y520669D01*
X815802Y521288D01*
X816137Y522097D01*
Y522972D01*
X815802Y523781D01*
X815183Y524400D01*
X814374Y524735D01*
D02*
G37*
G36*
X677940Y524594D02*
X677065D01*
X676256Y524259D01*
X675637Y523640D01*
X675302Y522831D01*
Y521955D01*
X675637Y521146D01*
X676256Y520527D01*
X677065Y520192D01*
X677940D01*
X678749Y520527D01*
X679368Y521146D01*
X679703Y521955D01*
Y522831D01*
X679368Y523640D01*
X678749Y524259D01*
X677940Y524594D01*
D02*
G37*
G36*
X638246Y523078D02*
X629554D01*
Y514385D01*
X638246D01*
Y523078D01*
D02*
G37*
G36*
X634472Y513078D02*
X633328D01*
X632222Y512782D01*
X631231Y512210D01*
X630422Y511400D01*
X629850Y510409D01*
X629554Y509304D01*
Y508159D01*
X629850Y507054D01*
X630422Y506063D01*
X631231Y505254D01*
X632222Y504681D01*
X633328Y504385D01*
X634472D01*
X635578Y504681D01*
X636569Y505254D01*
X637378Y506063D01*
X637950Y507054D01*
X638246Y508159D01*
Y509304D01*
X637950Y510409D01*
X637378Y511400D01*
X636569Y512210D01*
X635578Y512782D01*
X634472Y513078D01*
D02*
G37*
G36*
X931838Y508508D02*
X930962D01*
X930153Y508173D01*
X929534Y507554D01*
X929199Y506745D01*
Y505869D01*
X929534Y505060D01*
X930153Y504441D01*
X930962Y504106D01*
X931838D01*
X932647Y504441D01*
X933266Y505060D01*
X933601Y505869D01*
Y506745D01*
X933266Y507554D01*
X932647Y508173D01*
X931838Y508508D01*
D02*
G37*
G36*
X675072Y661901D02*
X674196D01*
X673388Y661566D01*
X672768Y660947D01*
X672433Y660138D01*
Y659262D01*
X672768Y658453D01*
X673388Y657834D01*
X674196Y657499D01*
X675072D01*
X675881Y657834D01*
X676125Y658078D01*
X684928D01*
X843316Y499690D01*
Y499345D01*
X843651Y498536D01*
X844270Y497917D01*
X845079Y497582D01*
X845954D01*
X846763Y497917D01*
X847382Y498536D01*
X847717Y499345D01*
Y500220D01*
X847382Y501029D01*
X846763Y501649D01*
X845954Y501983D01*
X845609D01*
X686746Y660847D01*
X686220Y661198D01*
X685599Y661322D01*
X676125D01*
X675881Y661566D01*
X675072Y661901D01*
D02*
G37*
G36*
X793338Y433401D02*
X792462D01*
X791653Y433066D01*
X791034Y432447D01*
X790699Y431638D01*
Y430762D01*
X791034Y429953D01*
X791653Y429334D01*
X792462Y428999D01*
X793338D01*
X794147Y429334D01*
X794766Y429953D01*
X795101Y430762D01*
Y431638D01*
X794766Y432447D01*
X794147Y433066D01*
X793338Y433401D01*
D02*
G37*
G36*
X810838Y708680D02*
X809962D01*
X809153Y708345D01*
X808534Y707726D01*
X808199Y706917D01*
Y706042D01*
X808534Y705233D01*
X809153Y704614D01*
X809962Y704279D01*
X810838D01*
X811647Y704614D01*
X812266Y705233D01*
X812601Y706042D01*
Y706917D01*
X812266Y707726D01*
X811647Y708345D01*
X810838Y708680D01*
D02*
G37*
G36*
X814023Y700901D02*
X813147D01*
X812339Y700566D01*
X811719Y699947D01*
X811384Y699138D01*
Y698262D01*
X811719Y697453D01*
X812339Y696834D01*
X813147Y696499D01*
X814023D01*
X814832Y696834D01*
X815451Y697453D01*
X815786Y698262D01*
Y699138D01*
X815451Y699947D01*
X814832Y700566D01*
X814023Y700901D01*
D02*
G37*
G36*
X1316498Y735566D02*
X1315664D01*
X1314859Y735351D01*
X1314138Y734934D01*
X1313548Y734344D01*
X1313132Y733623D01*
X1312916Y732818D01*
Y731984D01*
X1313132Y731179D01*
X1313548Y730457D01*
X1314138Y729868D01*
X1314859Y729451D01*
X1315664Y729236D01*
X1316498D01*
X1317303Y729451D01*
X1318025Y729868D01*
X1318614Y730457D01*
X1319031Y731179D01*
X1319246Y731984D01*
Y732818D01*
X1319031Y733623D01*
X1318614Y734344D01*
X1318025Y734934D01*
X1317303Y735351D01*
X1316498Y735566D01*
D02*
G37*
G36*
X1299175D02*
X1298342D01*
X1297536Y735351D01*
X1296815Y734934D01*
X1296225Y734344D01*
X1295809Y733623D01*
X1295593Y732818D01*
Y731984D01*
X1295809Y731179D01*
X1296225Y730457D01*
X1296815Y729868D01*
X1297536Y729451D01*
X1298342Y729236D01*
X1299175D01*
X1299980Y729451D01*
X1300702Y729868D01*
X1301291Y730457D01*
X1301708Y731179D01*
X1301924Y731984D01*
Y732818D01*
X1301708Y733623D01*
X1301291Y734344D01*
X1300702Y734934D01*
X1299980Y735351D01*
X1299175Y735566D01*
D02*
G37*
G36*
X968532Y678401D02*
X967657D01*
X966848Y678066D01*
X966229Y677447D01*
X965894Y676638D01*
Y675762D01*
X966229Y674953D01*
X966848Y674334D01*
X967657Y673999D01*
X968532D01*
X969341Y674334D01*
X969960Y674953D01*
X970295Y675762D01*
Y676638D01*
X969960Y677447D01*
X969341Y678066D01*
X968532Y678401D01*
D02*
G37*
G36*
X1007712Y648567D02*
X1006836D01*
X1006027Y648232D01*
X1005408Y647613D01*
X1005073Y646804D01*
Y645928D01*
X1005408Y645119D01*
X1006027Y644500D01*
X1006836Y644165D01*
X1007712D01*
X1008521Y644500D01*
X1009140Y645119D01*
X1009475Y645928D01*
Y646804D01*
X1009140Y647613D01*
X1008521Y648232D01*
X1007712Y648567D01*
D02*
G37*
G36*
X896626Y633834D02*
X895751D01*
X894942Y633499D01*
X894322Y632880D01*
X893987Y632071D01*
Y631195D01*
X894322Y630386D01*
X894942Y629767D01*
X895751Y629432D01*
X896626D01*
X897435Y629767D01*
X898054Y630386D01*
X898389Y631195D01*
Y632071D01*
X898054Y632880D01*
X897435Y633499D01*
X896626Y633834D01*
D02*
G37*
G36*
X1328921Y685422D02*
X1328146Y685320D01*
X1327423Y685020D01*
X1326803Y684545D01*
X1326328Y683925D01*
X1326029Y683203D01*
X1325926Y682428D01*
X1326029Y681653D01*
X1326328Y680931D01*
X1326803Y680310D01*
X1335185Y671929D01*
Y662158D01*
X1305224Y632197D01*
X1260037D01*
X1259365Y632109D01*
X1258739Y631849D01*
X1258201Y631436D01*
X1258101Y631336D01*
X1257688Y630799D01*
X1257428Y630172D01*
X1257340Y629500D01*
X1257428Y628828D01*
X1257688Y628201D01*
X1258101Y627664D01*
X1258638Y627251D01*
X1259265Y626992D01*
X1259937Y626903D01*
X1260609Y626992D01*
X1260637Y627003D01*
X1306300D01*
X1306972Y627092D01*
X1307599Y627351D01*
X1308136Y627764D01*
X1339618Y659245D01*
X1340031Y659783D01*
X1340291Y660410D01*
X1340379Y661082D01*
Y672536D01*
X1340540Y672925D01*
X1340642Y673700D01*
X1340540Y674475D01*
X1340241Y675197D01*
X1339765Y675817D01*
X1331038Y684545D01*
X1330418Y685020D01*
X1329696Y685320D01*
X1328921Y685422D01*
D02*
G37*
G36*
X1125481Y629919D02*
X1124606D01*
X1123797Y629584D01*
X1123178Y628965D01*
X1122843Y628156D01*
Y627281D01*
X1123178Y626472D01*
X1123797Y625853D01*
X1124606Y625518D01*
X1125481D01*
X1126290Y625853D01*
X1126909Y626472D01*
X1127244Y627281D01*
Y628156D01*
X1126909Y628965D01*
X1126290Y629584D01*
X1125481Y629919D01*
D02*
G37*
G36*
X896626Y626165D02*
X895751D01*
X894942Y625830D01*
X894322Y625211D01*
X893987Y624402D01*
Y623526D01*
X894322Y622717D01*
X894942Y622098D01*
X895751Y621763D01*
X896626D01*
X897435Y622098D01*
X898054Y622717D01*
X898389Y623526D01*
Y624402D01*
X898054Y625211D01*
X897435Y625830D01*
X896626Y626165D01*
D02*
G37*
G36*
X1103279Y621928D02*
X1102403D01*
X1101594Y621593D01*
X1100975Y620974D01*
X1100640Y620165D01*
Y619290D01*
X1100975Y618481D01*
X1101594Y617862D01*
X1102403Y617527D01*
X1103279D01*
X1104088Y617862D01*
X1104707Y618481D01*
X1105042Y619290D01*
Y620165D01*
X1104707Y620974D01*
X1104088Y621593D01*
X1103279Y621928D01*
D02*
G37*
G36*
X1055495D02*
X1054620D01*
X1053811Y621593D01*
X1053192Y620974D01*
X1052857Y620165D01*
Y619290D01*
X1053192Y618481D01*
X1053811Y617862D01*
X1054620Y617527D01*
X1055495D01*
X1056304Y617862D01*
X1056923Y618481D01*
X1057258Y619290D01*
Y620165D01*
X1056923Y620974D01*
X1056304Y621593D01*
X1055495Y621928D01*
D02*
G37*
G36*
X1103377Y613624D02*
X1102502D01*
X1101693Y613289D01*
X1101074Y612670D01*
X1100739Y611861D01*
Y610986D01*
X1101074Y610177D01*
X1101693Y609557D01*
X1102502Y609222D01*
X1103377D01*
X1104186Y609557D01*
X1104805Y610177D01*
X1105140Y610986D01*
Y611861D01*
X1104805Y612670D01*
X1104186Y613289D01*
X1103377Y613624D01*
D02*
G37*
G36*
X880169Y609854D02*
X879293D01*
X878484Y609518D01*
X877865Y608899D01*
X877530Y608090D01*
Y607215D01*
X877865Y606406D01*
X878484Y605787D01*
X879293Y605452D01*
X880169D01*
X880978Y605787D01*
X881597Y606406D01*
X881932Y607215D01*
Y608090D01*
X881597Y608899D01*
X880978Y609518D01*
X880169Y609854D01*
D02*
G37*
G36*
X1221488Y605094D02*
X1220613D01*
X1219804Y604759D01*
X1219185Y604140D01*
X1218850Y603331D01*
Y602455D01*
X1219185Y601646D01*
X1219804Y601027D01*
X1220613Y600692D01*
X1221488D01*
X1222297Y601027D01*
X1222917Y601646D01*
X1223252Y602455D01*
Y603331D01*
X1222917Y604140D01*
X1222297Y604759D01*
X1221488Y605094D01*
D02*
G37*
G36*
X929423Y608390D02*
X928356D01*
X927326Y608114D01*
X926402Y607580D01*
X925648Y606826D01*
X925114Y605902D01*
X924838Y604872D01*
Y603805D01*
X925114Y602775D01*
X925648Y601851D01*
X926402Y601097D01*
X927326Y600563D01*
X928356Y600287D01*
X929423D01*
X930453Y600563D01*
X931377Y601097D01*
X932131Y601851D01*
X932664Y602775D01*
X932941Y603805D01*
Y604872D01*
X932664Y605902D01*
X932131Y606826D01*
X931377Y607580D01*
X930453Y608114D01*
X929423Y608390D01*
D02*
G37*
G36*
X1092157Y629684D02*
X1091281D01*
X1090472Y629349D01*
X1089853Y628730D01*
X1089518Y627921D01*
Y627046D01*
X1089853Y626237D01*
X1090472Y625618D01*
X1091281Y625282D01*
X1091757D01*
X1094676Y622364D01*
X1094703Y622322D01*
X1095504Y621521D01*
Y601720D01*
X1095168Y601384D01*
X1094833Y600575D01*
Y599699D01*
X1095168Y598890D01*
X1095787Y598271D01*
X1096596Y597936D01*
X1097472D01*
X1098281Y598271D01*
X1098900Y598890D01*
X1099235Y599699D01*
Y600575D01*
X1098900Y601384D01*
X1098563Y601720D01*
Y622155D01*
X1098447Y622740D01*
X1098115Y623236D01*
X1096894Y624457D01*
X1096866Y624499D01*
X1093920Y627445D01*
Y627921D01*
X1093585Y628730D01*
X1092966Y629349D01*
X1092157Y629684D01*
D02*
G37*
G36*
X1030159Y592023D02*
X1030159Y592023D01*
X1010900D01*
X1010900Y592023D01*
X1010203Y591884D01*
X1009611Y591489D01*
X994477Y576355D01*
X994083Y575764D01*
X993944Y575066D01*
X993944Y575066D01*
Y550707D01*
X980382Y537145D01*
X979705Y536865D01*
X979086Y536246D01*
X978751Y535437D01*
Y534561D01*
X979086Y533753D01*
X979705Y533134D01*
X980514Y532798D01*
X981390D01*
X982199Y533134D01*
X982817Y533753D01*
X983153Y534561D01*
Y534761D01*
X997055Y548663D01*
X997055Y548663D01*
X997450Y549255D01*
X997589Y549952D01*
Y574311D01*
X1011655Y588378D01*
X1017595D01*
X1017697Y587889D01*
X1017697Y587878D01*
X1017080Y587260D01*
X1016902Y586832D01*
X1007517Y577446D01*
X1007078Y576790D01*
X1006924Y576015D01*
Y552121D01*
X1007078Y551347D01*
X1007517Y550691D01*
X1019377Y538831D01*
Y530067D01*
X1019199Y529638D01*
Y528762D01*
X1019534Y527953D01*
X1020153Y527334D01*
X1020962Y526999D01*
X1021838D01*
X1022647Y527334D01*
X1023266Y527953D01*
X1023601Y528762D01*
Y529638D01*
X1023423Y530067D01*
Y539669D01*
X1023269Y540443D01*
X1022831Y541099D01*
X1010970Y552959D01*
Y575177D01*
X1019763Y583970D01*
X1020192Y584148D01*
X1020811Y584767D01*
X1021146Y585576D01*
Y586451D01*
X1020811Y587260D01*
X1020194Y587878D01*
X1020194Y587889D01*
X1020296Y588378D01*
X1029404D01*
X1048056Y569725D01*
X1048056Y569725D01*
X1048647Y569330D01*
X1049345Y569191D01*
X1072610D01*
X1072653Y569148D01*
X1073462Y568813D01*
X1074338D01*
X1075147Y569148D01*
X1075766Y569767D01*
X1076101Y570576D01*
Y571452D01*
X1075766Y572260D01*
X1075147Y572880D01*
X1074338Y573215D01*
X1073462D01*
X1072653Y572880D01*
X1072610Y572836D01*
X1050100D01*
X1031447Y591489D01*
X1030856Y591884D01*
X1030159Y592023D01*
D02*
G37*
G36*
X975930Y593567D02*
X975054D01*
X974245Y593232D01*
X973626Y592613D01*
X973291Y591804D01*
Y590928D01*
X973626Y590119D01*
X974245Y589500D01*
X975054Y589165D01*
X975930D01*
X976739Y589500D01*
X977358Y590119D01*
X977693Y590928D01*
Y591804D01*
X977358Y592613D01*
X976739Y593232D01*
X975930Y593567D01*
D02*
G37*
G36*
X1230092Y593020D02*
X1229217D01*
X1228408Y592685D01*
X1227789Y592066D01*
X1227454Y591257D01*
Y590382D01*
X1227789Y589573D01*
X1228408Y588954D01*
X1229217Y588619D01*
X1230092D01*
X1230901Y588954D01*
X1231520Y589573D01*
X1231855Y590382D01*
Y591257D01*
X1231520Y592066D01*
X1230901Y592685D01*
X1230092Y593020D01*
D02*
G37*
G36*
X1111838Y636401D02*
X1110962D01*
X1110153Y636066D01*
X1109534Y635447D01*
X1109199Y634638D01*
Y633762D01*
X1109377Y633333D01*
Y622247D01*
X1109531Y621472D01*
X1109970Y620816D01*
X1114282Y616504D01*
X1114938Y616065D01*
X1115712Y615911D01*
X1135598D01*
X1141908Y609601D01*
Y596070D01*
X1141444Y595801D01*
X1140690Y595047D01*
X1140156Y594123D01*
X1139880Y593093D01*
Y592026D01*
X1140156Y590996D01*
X1140690Y590072D01*
X1141444Y589318D01*
X1142368Y588785D01*
X1143398Y588509D01*
X1144465D01*
X1145495Y588785D01*
X1146419Y589318D01*
X1147173Y590072D01*
X1147707Y590996D01*
X1147983Y592026D01*
Y593093D01*
X1147707Y594123D01*
X1147173Y595047D01*
X1146419Y595801D01*
X1145955Y596070D01*
Y610439D01*
X1145801Y611213D01*
X1145362Y611870D01*
X1137867Y619365D01*
X1137211Y619803D01*
X1136436Y619957D01*
X1116550D01*
X1113423Y623084D01*
Y633333D01*
X1113601Y633762D01*
Y634638D01*
X1113266Y635447D01*
X1112647Y636066D01*
X1111838Y636401D01*
D02*
G37*
G36*
X1134465Y596611D02*
X1133398D01*
X1132368Y596335D01*
X1131444Y595801D01*
X1130690Y595047D01*
X1130157Y594123D01*
X1129880Y593093D01*
Y592026D01*
X1130157Y590996D01*
X1130690Y590072D01*
X1131444Y589318D01*
X1132368Y588785D01*
X1133398Y588509D01*
X1134465D01*
X1135495Y588785D01*
X1136419Y589318D01*
X1137173Y590072D01*
X1137707Y590996D01*
X1137983Y592026D01*
Y593093D01*
X1137707Y594123D01*
X1137173Y595047D01*
X1136419Y595801D01*
X1135495Y596335D01*
X1134465Y596611D01*
D02*
G37*
G36*
X1236338Y592280D02*
X1235462D01*
X1234653Y591945D01*
X1234034Y591326D01*
X1233699Y590517D01*
Y589642D01*
X1234034Y588833D01*
X1234653Y588214D01*
X1235462Y587879D01*
X1236338D01*
X1237147Y588214D01*
X1237766Y588833D01*
X1238101Y589642D01*
Y590517D01*
X1237766Y591326D01*
X1237147Y591945D01*
X1236338Y592280D01*
D02*
G37*
G36*
X929423Y588390D02*
X928356D01*
X927326Y588114D01*
X926402Y587580D01*
X925648Y586826D01*
X925114Y585902D01*
X924838Y584872D01*
Y583805D01*
X925114Y582775D01*
X925648Y581851D01*
X926402Y581097D01*
X927326Y580563D01*
X928356Y580287D01*
X929423D01*
X930453Y580563D01*
X931377Y581097D01*
X932131Y581851D01*
X932664Y582775D01*
X932941Y583805D01*
Y584872D01*
X932664Y585902D01*
X932131Y586826D01*
X931377Y587580D01*
X930453Y588114D01*
X929423Y588390D01*
D02*
G37*
G36*
X1280890Y602712D02*
X1279060D01*
X1277252Y602425D01*
X1275511Y601860D01*
X1273879Y601029D01*
X1272398Y599953D01*
X1271104Y598658D01*
X1270028Y597177D01*
X1269197Y595546D01*
X1268631Y593805D01*
X1268345Y591997D01*
Y590167D01*
X1268631Y588359D01*
X1269197Y586618D01*
X1270028Y584986D01*
X1271104Y583506D01*
X1272398Y582211D01*
X1273879Y581135D01*
X1275511Y580304D01*
X1277252Y579738D01*
X1279060Y579452D01*
X1280890D01*
X1282698Y579738D01*
X1284439Y580304D01*
X1286070Y581135D01*
X1287551Y582211D01*
X1288846Y583506D01*
X1289922Y584986D01*
X1290753Y586618D01*
X1291318Y588359D01*
X1291605Y590167D01*
Y591997D01*
X1291318Y593805D01*
X1290753Y595546D01*
X1289922Y597177D01*
X1288846Y598658D01*
X1287551Y599953D01*
X1286070Y601029D01*
X1284439Y601860D01*
X1282698Y602425D01*
X1280890Y602712D01*
D02*
G37*
G36*
X901691Y583626D02*
X900815D01*
X900007Y583291D01*
X899387Y582672D01*
X899052Y581863D01*
Y580987D01*
X899387Y580178D01*
X900007Y579559D01*
X900815Y579224D01*
X901691D01*
X902500Y579559D01*
X903119Y580178D01*
X903454Y580987D01*
Y581863D01*
X903119Y582672D01*
X902500Y583291D01*
X901691Y583626D01*
D02*
G37*
G36*
X932941Y578390D02*
X924838D01*
Y570287D01*
X932941D01*
Y578390D01*
D02*
G37*
G36*
X1217319Y572633D02*
X1216444D01*
X1215635Y572298D01*
X1215016Y571679D01*
X1214681Y570870D01*
Y569994D01*
X1215016Y569185D01*
X1215635Y568566D01*
X1216444Y568231D01*
X1217319D01*
X1218128Y568566D01*
X1218748Y569185D01*
X1219083Y569994D01*
Y570870D01*
X1218748Y571679D01*
X1218128Y572298D01*
X1217319Y572633D01*
D02*
G37*
G36*
X1003338Y572405D02*
X1002462D01*
X1001653Y572070D01*
X1001034Y571451D01*
X1000699Y570642D01*
Y569767D01*
X1001034Y568958D01*
X1001653Y568339D01*
X1002462Y568004D01*
X1003338D01*
X1004147Y568339D01*
X1004766Y568958D01*
X1005101Y569767D01*
Y570642D01*
X1004766Y571451D01*
X1004147Y572070D01*
X1003338Y572405D01*
D02*
G37*
G36*
X958494Y568595D02*
X957619D01*
X956810Y568260D01*
X956190Y567641D01*
X955855Y566832D01*
Y565956D01*
X956190Y565147D01*
X956810Y564528D01*
X957619Y564193D01*
X958494D01*
X959303Y564528D01*
X959922Y565147D01*
X960257Y565956D01*
Y566832D01*
X959922Y567641D01*
X959303Y568260D01*
X958494Y568595D01*
D02*
G37*
G36*
X1193970Y563201D02*
X1193094D01*
X1192285Y562866D01*
X1191666Y562247D01*
X1191331Y561438D01*
Y560562D01*
X1191666Y559754D01*
X1192285Y559134D01*
X1193094Y558799D01*
X1193970D01*
X1194779Y559134D01*
X1195398Y559754D01*
X1195733Y560562D01*
Y561438D01*
X1195398Y562247D01*
X1194779Y562866D01*
X1193970Y563201D01*
D02*
G37*
G36*
X1256557Y592869D02*
X1255361D01*
X1254206Y592560D01*
X1253170Y591962D01*
X1252324Y591116D01*
X1251725Y590080D01*
X1251416Y588924D01*
Y587728D01*
X1251725Y586572D01*
X1252324Y585536D01*
X1253170Y584691D01*
X1253874Y584284D01*
Y583707D01*
X1253170Y583300D01*
X1252324Y582454D01*
X1251725Y581418D01*
X1251416Y580263D01*
Y579067D01*
X1251725Y577911D01*
X1252324Y576875D01*
X1253170Y576029D01*
X1253874Y575623D01*
Y575045D01*
X1253170Y574639D01*
X1252324Y573793D01*
X1251725Y572757D01*
X1251416Y571601D01*
Y570405D01*
X1251725Y569249D01*
X1252324Y568214D01*
X1253170Y567368D01*
X1253874Y566961D01*
Y566384D01*
X1253170Y565977D01*
X1252324Y565131D01*
X1251725Y564095D01*
X1251416Y562940D01*
Y561744D01*
X1251725Y560588D01*
X1252324Y559552D01*
X1253170Y558706D01*
X1254206Y558108D01*
X1255361Y557798D01*
X1256557D01*
X1257713Y558108D01*
X1258749Y558706D01*
X1259595Y559552D01*
X1260193Y560588D01*
X1260502Y561744D01*
Y562940D01*
X1260193Y564095D01*
X1259595Y565131D01*
X1258749Y565977D01*
X1258045Y566384D01*
Y566961D01*
X1258749Y567368D01*
X1259595Y568214D01*
X1260193Y569249D01*
X1260502Y570405D01*
Y571601D01*
X1260193Y572757D01*
X1259595Y573793D01*
X1258749Y574639D01*
X1258045Y575045D01*
Y575623D01*
X1258749Y576029D01*
X1259595Y576875D01*
X1260193Y577911D01*
X1260502Y579067D01*
Y580263D01*
X1260193Y581418D01*
X1259595Y582454D01*
X1258749Y583300D01*
X1258045Y583707D01*
Y584284D01*
X1258749Y584691D01*
X1259595Y585536D01*
X1260193Y586572D01*
X1260502Y587728D01*
Y588924D01*
X1260193Y590080D01*
X1259595Y591116D01*
X1258749Y591962D01*
X1257713Y592560D01*
X1256557Y592869D01*
D02*
G37*
G36*
X1007728Y604077D02*
X1006852D01*
X1006043Y603742D01*
X1005424Y603123D01*
X1005089Y602314D01*
Y601439D01*
X1005424Y600630D01*
X1006043Y600011D01*
X1006472Y599833D01*
X1011171Y595134D01*
X1011827Y594696D01*
X1012601Y594542D01*
X1072713D01*
X1078377Y588878D01*
Y562193D01*
X1078531Y561418D01*
X1078969Y560762D01*
X1084558Y555174D01*
X1084735Y554745D01*
X1085354Y554126D01*
X1086163Y553791D01*
X1087039D01*
X1087848Y554126D01*
X1088467Y554745D01*
X1088802Y555554D01*
Y556430D01*
X1088467Y557238D01*
X1087848Y557858D01*
X1087419Y558035D01*
X1082423Y563031D01*
Y589716D01*
X1082269Y590490D01*
X1081831Y591146D01*
X1074981Y597996D01*
X1074325Y598434D01*
X1073551Y598588D01*
X1043386D01*
X1043108Y599004D01*
X1043236Y599312D01*
Y600188D01*
X1042901Y600997D01*
X1042282Y601616D01*
X1041473Y601951D01*
X1040597D01*
X1039789Y601616D01*
X1039169Y600997D01*
X1038834Y600188D01*
Y599312D01*
X1038962Y599004D01*
X1038684Y598588D01*
X1013439D01*
X1009333Y602694D01*
X1009156Y603123D01*
X1008537Y603742D01*
X1007728Y604077D01*
D02*
G37*
G36*
X1280374Y570956D02*
X1278544D01*
X1276736Y570670D01*
X1274995Y570104D01*
X1273364Y569273D01*
X1271883Y568197D01*
X1270588Y566902D01*
X1269512Y565421D01*
X1268681Y563790D01*
X1268116Y562049D01*
X1267829Y560241D01*
Y558411D01*
X1268116Y556603D01*
X1268681Y554862D01*
X1269512Y553231D01*
X1270588Y551750D01*
X1271883Y550455D01*
X1273364Y549379D01*
X1274995Y548548D01*
X1276736Y547983D01*
X1278544Y547696D01*
X1280374D01*
X1282183Y547983D01*
X1283924Y548548D01*
X1285555Y549379D01*
X1287035Y550455D01*
X1288330Y551750D01*
X1289406Y553231D01*
X1290237Y554862D01*
X1290803Y556603D01*
X1291089Y558411D01*
Y560241D01*
X1290803Y562049D01*
X1290237Y563790D01*
X1289406Y565421D01*
X1288330Y566902D01*
X1287035Y568197D01*
X1285555Y569273D01*
X1283924Y570104D01*
X1282183Y570670D01*
X1280374Y570956D01*
D02*
G37*
G36*
X1045554Y540401D02*
X1044679D01*
X1043870Y540066D01*
X1043251Y539447D01*
X1042916Y538638D01*
Y537762D01*
X1043251Y536953D01*
X1043870Y536334D01*
X1044679Y535999D01*
X1045554D01*
X1046363Y536334D01*
X1046982Y536953D01*
X1047317Y537762D01*
Y538638D01*
X1046982Y539447D01*
X1046363Y540066D01*
X1045554Y540401D01*
D02*
G37*
G36*
X1103279Y540401D02*
X1102403D01*
X1101594Y540066D01*
X1100975Y539447D01*
X1100640Y538638D01*
Y537762D01*
X1100975Y536953D01*
X1101594Y536334D01*
X1102403Y535999D01*
X1103279D01*
X1104088Y536334D01*
X1104707Y536953D01*
X1105042Y537762D01*
Y538638D01*
X1104707Y539447D01*
X1104088Y540066D01*
X1103279Y540401D01*
D02*
G37*
G36*
X991718Y527765D02*
X990843D01*
X990034Y527430D01*
X989415Y526811D01*
X989080Y526002D01*
Y525126D01*
X989415Y524317D01*
X990034Y523698D01*
X990843Y523363D01*
X991718D01*
X992527Y523698D01*
X993146Y524317D01*
X993481Y525126D01*
Y526002D01*
X993146Y526811D01*
X992527Y527430D01*
X991718Y527765D01*
D02*
G37*
G36*
X826776Y576900D02*
X825900D01*
X825091Y576565D01*
X824472Y575946D01*
X824137Y575137D01*
Y574261D01*
X824472Y573452D01*
X825091Y572833D01*
X825900Y572498D01*
X826776D01*
X827585Y572833D01*
X828204Y573452D01*
X828539Y574261D01*
Y575137D01*
X828204Y575946D01*
X827585Y576565D01*
X826776Y576900D01*
D02*
G37*
G36*
X883087Y552866D02*
X882211D01*
X881402Y552531D01*
X880783Y551912D01*
X880448Y551103D01*
Y550227D01*
X880783Y549418D01*
X881402Y548799D01*
X882211Y548464D01*
X883087D01*
X883896Y548799D01*
X884515Y549418D01*
X884850Y550227D01*
Y551103D01*
X884515Y551912D01*
X883896Y552531D01*
X883087Y552866D01*
D02*
G37*
G36*
X948616Y487401D02*
X947740D01*
X946931Y487066D01*
X946312Y486447D01*
X945977Y485638D01*
Y484762D01*
X946312Y483953D01*
X946931Y483334D01*
X947740Y482999D01*
X948616D01*
X949424Y483334D01*
X950044Y483953D01*
X950379Y484762D01*
Y485638D01*
X950044Y486447D01*
X949424Y487066D01*
X948616Y487401D01*
D02*
G37*
G36*
X1137838Y444767D02*
X1136962D01*
X1136153Y444432D01*
X1135534Y443813D01*
X1135199Y443004D01*
Y442128D01*
X1135534Y441320D01*
X1136153Y440700D01*
X1136962Y440365D01*
X1137838D01*
X1138647Y440700D01*
X1139266Y441320D01*
X1139601Y442128D01*
Y443004D01*
X1139266Y443813D01*
X1138647Y444432D01*
X1137838Y444767D01*
D02*
G37*
%LPD*%
D11*
X1010900Y590200D02*
X1030159D01*
X1049345Y571014D01*
X1063048Y619728D02*
X1071655D01*
X1091202Y639276D02*
X1155675D01*
X1071655Y619728D02*
X1091202Y639276D01*
X1155675D02*
X1163932Y631019D01*
Y592560D02*
Y631019D01*
X1055058Y627718D02*
X1063048Y619728D01*
X1045969Y636806D02*
X1055058Y627718D01*
X980952Y535138D02*
X995766Y549952D01*
X980952Y534999D02*
Y535138D01*
X905338Y628814D02*
X913330Y636806D01*
X905338Y628645D02*
Y628814D01*
X913330Y636806D02*
X1045969D01*
X1049345Y571014D02*
X1073900D01*
X995766Y575066D02*
X1010900Y590200D01*
X995766Y549952D02*
Y575066D01*
D14*
X911095Y613182D02*
X1074506D01*
X881896Y583984D02*
X911095Y613182D01*
X1047007Y641491D02*
X1063715Y624783D01*
X986723Y508121D02*
X1003455D01*
X1004034Y508700D01*
X983989Y505387D02*
X986723Y508121D01*
X949003Y505387D02*
X983989D01*
X917082Y537308D02*
X949003Y505387D01*
X1004034Y508700D02*
Y515596D01*
X1004086Y515648D01*
X736557Y628836D02*
X745372Y637651D01*
X747605D01*
X836721Y598472D02*
X842890Y592303D01*
X807770Y598472D02*
X836721D01*
X839473Y577595D02*
X862235Y600357D01*
X831674Y577595D02*
X839473D01*
X862235Y600357D02*
Y615947D01*
X1122186Y610879D02*
X1129726D01*
X1106121Y594814D02*
X1122186Y610879D01*
X887014Y635817D02*
Y640388D01*
X870852Y615201D02*
X892273Y636622D01*
X862235Y615947D02*
X862689D01*
X864917Y581425D02*
Y615947D01*
X883448Y645296D02*
X940996D01*
X894550Y641126D02*
X941900D01*
X866764Y615567D02*
X887014Y635817D01*
X884100Y643721D02*
X945680D01*
X862689Y615947D02*
X881446Y634703D01*
Y643293D01*
X892273Y636622D02*
X896525D01*
X870852Y576709D02*
Y615201D01*
X869277Y615853D02*
X894550Y641126D01*
X866764Y580118D02*
Y615567D01*
X864917Y615947D02*
X883177Y634207D01*
Y642798D01*
X940996Y645296D02*
X943180Y647480D01*
X869277Y576838D02*
Y615853D01*
X881446Y643293D02*
X883448Y645296D01*
X883177Y642798D02*
X884100Y643721D01*
X883333Y564228D02*
X890953D01*
X891874Y565150D02*
X896298D01*
X890953Y564228D02*
X891874Y565150D01*
X889537Y579714D02*
Y583787D01*
Y579714D02*
X901338Y567913D01*
X910254D01*
X889537Y583787D02*
X891112Y585362D01*
X893830D01*
X886978Y578139D02*
X898779Y566338D01*
X886751Y578139D02*
X886978D01*
X898779Y566338D02*
X909601D01*
X1092874Y594814D02*
X1106121D01*
X1074506Y613182D02*
X1092874Y594814D01*
X881896Y579025D02*
Y583984D01*
X893830Y580244D02*
X904586Y569488D01*
X910906D01*
X797900Y563006D02*
Y575171D01*
X861765Y561634D02*
X907602D01*
X870852Y576709D02*
X883333Y564228D01*
X844465Y544335D02*
X861765Y561634D01*
X831594Y570205D02*
X834153Y572764D01*
X898676Y520866D02*
X914917Y537106D01*
X945680Y643721D02*
X947910Y641491D01*
X1047007D01*
X943180Y647480D02*
X954460D01*
X856255Y572764D02*
X864917Y581425D01*
X834153Y572764D02*
X856255D01*
X917082Y537308D02*
Y563312D01*
X909601Y566338D02*
X912852Y563087D01*
X910254Y567913D02*
X914917Y563250D01*
X910906Y569488D02*
X917082Y563312D01*
X912852Y541136D02*
Y563087D01*
X914917Y537106D02*
Y563250D01*
X904415Y520907D02*
X923184D01*
X797900Y563006D02*
X853911Y506996D01*
X890503D01*
X904415Y520907D01*
X882649Y510933D02*
X912852Y541136D01*
X827135Y544335D02*
X844465D01*
X801997Y569472D02*
X827135Y544335D01*
X801997Y569472D02*
Y592700D01*
X807770Y598472D01*
X828307Y550524D02*
X844676Y566893D01*
X836120Y581566D02*
X838528Y583974D01*
X856993Y564554D02*
X869277Y576838D01*
X853540Y566893D02*
X866764Y580118D01*
X901416Y540323D02*
X904793Y543701D01*
X876217Y540323D02*
X901416D01*
X877367Y543701D02*
X898966D01*
X850890Y517224D02*
X877367Y543701D01*
X898966D02*
X904747Y549482D01*
X860890Y517224D02*
Y524997D01*
X876217Y540323D01*
X904747Y549482D02*
Y549499D01*
X849221Y564554D02*
X856993D01*
X844676Y566893D02*
X853540D01*
X835191Y550524D02*
X849221Y564554D01*
X821730Y581566D02*
X836120D01*
X819227Y579063D02*
X821730Y581566D01*
X805400Y579063D02*
X819227D01*
D15*
X1073551Y596565D02*
X1080400Y589716D01*
X1007290Y601876D02*
X1012601Y596565D01*
X1073551D01*
X1080400Y562193D02*
X1086625Y555968D01*
X1080400Y562193D02*
Y589716D01*
X1008947Y576015D02*
X1018946Y586014D01*
X1143932Y592560D02*
Y610439D01*
X1136436Y617934D02*
X1143932Y610439D01*
X1115712Y617934D02*
X1136436D01*
X1111400Y622247D02*
Y634200D01*
X978387Y442700D02*
Y496658D01*
X987685Y505956D01*
X1089476D01*
X1153932Y570412D01*
Y592560D01*
X1008947Y552121D02*
X1021400Y539669D01*
X1008947Y552121D02*
Y576015D01*
X1021400Y529200D02*
Y539669D01*
X1105500Y498700D02*
X1131900D01*
X1111400Y622247D02*
X1115712Y617934D01*
X1042022Y562788D02*
X1042915Y561894D01*
X1013869Y562788D02*
X1042022D01*
X1042915Y561894D02*
X1070951D01*
X1073876Y564819D02*
X1073900D01*
X1070951Y561894D02*
X1073876Y564819D01*
X1073900Y556089D02*
Y564819D01*
Y556089D02*
X1098880Y531109D01*
X1110124D01*
D17*
X993443Y511751D02*
X1001405Y519713D01*
X980906Y511751D02*
X993443D01*
X977854Y508700D02*
X980906Y511751D01*
X1053729Y519713D02*
X1073884Y539868D01*
X1073897D01*
X619040Y699322D02*
X622837D01*
X619038Y699324D02*
X619040Y699322D01*
X631625Y708110D02*
X638072D01*
X622837Y699322D02*
X631625Y708110D01*
X805256Y583787D02*
X805443Y583974D01*
X831594D01*
X971414Y508700D02*
X977854D01*
X1001405Y519713D02*
X1053729D01*
X1095785Y623403D02*
Y623417D01*
X1091719Y627483D02*
X1095785Y623417D01*
Y623403D02*
X1097034Y622155D01*
Y600137D02*
Y622155D01*
X831594Y583974D02*
X831781Y584161D01*
X735440Y623743D02*
X736289D01*
X736557Y623475D01*
X731725Y627458D02*
X735440Y623743D01*
X731725Y627458D02*
Y631694D01*
X740524Y640493D01*
D20*
X1243916Y587503D02*
X1245884D01*
Y588487D01*
X1245556Y588815D01*
X1244244D01*
X1243916Y588487D01*
Y587503D01*
X1245884Y590455D02*
X1243916D01*
X1244900Y589471D01*
Y590783D01*
D80*
X1255959Y571003D02*
D03*
Y562342D02*
D03*
Y579665D02*
D03*
Y588326D02*
D03*
X707030Y561553D02*
D03*
Y570215D02*
D03*
Y587537D02*
D03*
Y578876D02*
D03*
D82*
X1173932Y592560D02*
D03*
D83*
X1163932D02*
D03*
X1153932D02*
D03*
X1143932D02*
D03*
X1133932D02*
D03*
X928889Y604339D02*
D03*
Y594339D02*
D03*
Y584339D02*
D03*
D84*
X870890Y517224D02*
D03*
D85*
X860890D02*
D03*
X850890D02*
D03*
D91*
X1298758Y732401D02*
D03*
X1316081D02*
D03*
D111*
X674634Y659700D02*
X685599D01*
X845516Y499783D01*
D112*
X822456Y627518D02*
X826631Y631694D01*
X800900Y638892D02*
X812274Y627518D01*
X822456D01*
X1328921Y682428D02*
X1337648Y673700D01*
D114*
X1259937Y629500D02*
X1260037Y629600D01*
X1283600D01*
X1337782Y661082D02*
Y673566D01*
X1337648Y673700D02*
X1337782Y673566D01*
X1283600Y629600D02*
X1306300D01*
X1337782Y661082D01*
D118*
X1279459Y559326D02*
D03*
X1279975Y591082D02*
D03*
X683014Y558797D02*
D03*
X683530Y590553D02*
D03*
D119*
X667660Y442700D02*
D03*
X1295282D02*
D03*
X746400D02*
D03*
Y706480D02*
D03*
X899943D02*
D03*
Y442700D02*
D03*
X1053487D02*
D03*
Y706480D02*
D03*
X1207030D02*
D03*
Y442700D02*
D03*
D120*
X633900Y508732D02*
D03*
D121*
Y518731D02*
D03*
D122*
X928889Y574338D02*
D03*
D123*
X687345Y442700D02*
D03*
X686158Y449433D02*
D03*
X682739Y455353D02*
D03*
X677502Y459748D02*
D03*
X671078Y462086D02*
D03*
X664242D02*
D03*
X657817Y459748D02*
D03*
X652580Y455353D02*
D03*
X649162Y449433D02*
D03*
X647975Y442700D02*
D03*
X649162Y435967D02*
D03*
X652580Y430047D02*
D03*
X657817Y425652D02*
D03*
X664242Y423314D02*
D03*
X671078D02*
D03*
X677502Y425652D02*
D03*
X682739Y430047D02*
D03*
X686158Y435967D02*
D03*
X648018Y640638D02*
D03*
X1055058Y627718D02*
D03*
Y619728D02*
D03*
X1086601Y555992D02*
D03*
X1041035Y599750D02*
D03*
X1007290Y601876D02*
D03*
X1018900Y580968D02*
D03*
X1018946Y586014D02*
D03*
X1129472Y642264D02*
D03*
X1063715Y624783D02*
D03*
X1111400Y634200D02*
D03*
X982914Y507981D02*
D03*
X1004086Y515648D02*
D03*
X1110124Y538200D02*
D03*
X1128587Y570968D02*
D03*
X1102841Y538200D02*
D03*
X1045117Y538200D02*
D03*
X1073897Y539868D02*
D03*
X1052400Y538200D02*
D03*
X1105500Y498700D02*
D03*
X1164593Y561000D02*
D03*
X1021400Y529200D02*
D03*
X1313780Y435967D02*
D03*
X1310362Y430047D02*
D03*
X1305124Y425652D02*
D03*
X1298700Y423314D02*
D03*
X1291864D02*
D03*
X1285439Y425652D02*
D03*
X1280202Y430047D02*
D03*
X1276784Y435967D02*
D03*
X1275597Y442700D02*
D03*
X1276784Y449433D02*
D03*
X1280202Y455353D02*
D03*
X1285439Y459748D02*
D03*
X1291864Y462086D02*
D03*
X1298700D02*
D03*
X1305124Y459748D02*
D03*
X1310362Y455353D02*
D03*
X1313780Y449433D02*
D03*
X1314967Y442700D02*
D03*
X764898Y435967D02*
D03*
X761480Y430047D02*
D03*
X756243Y425652D02*
D03*
X749818Y423314D02*
D03*
X742982D02*
D03*
X736557Y425652D02*
D03*
X731320Y430047D02*
D03*
X727902Y435967D02*
D03*
X726715Y442700D02*
D03*
X727902Y449433D02*
D03*
X731320Y455353D02*
D03*
X736557Y459748D02*
D03*
X742982Y462086D02*
D03*
X749818D02*
D03*
X756243Y459748D02*
D03*
X761480Y455353D02*
D03*
X764898Y449433D02*
D03*
X766085Y442700D02*
D03*
X764898Y699747D02*
D03*
X761480Y693826D02*
D03*
X756243Y689432D02*
D03*
X749818Y687094D02*
D03*
X742982D02*
D03*
X736557Y689432D02*
D03*
X731320Y693826D02*
D03*
X727902Y699747D02*
D03*
X726715Y706480D02*
D03*
X727902Y713212D02*
D03*
X731320Y719133D02*
D03*
X736557Y723527D02*
D03*
X742982Y725866D02*
D03*
X749818D02*
D03*
X756243Y723527D02*
D03*
X761480Y719133D02*
D03*
X764898Y713212D02*
D03*
X766085Y706480D02*
D03*
X918441Y699747D02*
D03*
X915023Y693826D02*
D03*
X909786Y689432D02*
D03*
X903362Y687094D02*
D03*
X896525D02*
D03*
X890101Y689432D02*
D03*
X884864Y693826D02*
D03*
X881446Y699747D02*
D03*
X880258Y706480D02*
D03*
X881446Y713212D02*
D03*
X884864Y719133D02*
D03*
X890101Y723527D02*
D03*
X896525Y725866D02*
D03*
X903362D02*
D03*
X909786Y723527D02*
D03*
X915023Y719133D02*
D03*
X918441Y713212D02*
D03*
X919628Y706480D02*
D03*
X918441Y435967D02*
D03*
X915023Y430047D02*
D03*
X909786Y425652D02*
D03*
X903362Y423314D02*
D03*
X896525D02*
D03*
X890101Y425652D02*
D03*
X884864Y430047D02*
D03*
X881446Y435967D02*
D03*
X880258Y442700D02*
D03*
X881446Y449433D02*
D03*
X884864Y455353D02*
D03*
X890101Y459748D02*
D03*
X896525Y462086D02*
D03*
X903362D02*
D03*
X909786Y459748D02*
D03*
X915023Y455353D02*
D03*
X918441Y449433D02*
D03*
X919628Y442700D02*
D03*
X1071984Y435967D02*
D03*
X1068566Y430047D02*
D03*
X1063329Y425652D02*
D03*
X1056905Y423314D02*
D03*
X1050068D02*
D03*
X1043644Y425652D02*
D03*
X1038407Y430047D02*
D03*
X1034989Y435967D02*
D03*
X1033802Y442700D02*
D03*
X1034989Y449433D02*
D03*
X1038407Y455353D02*
D03*
X1043644Y459748D02*
D03*
X1050068Y462086D02*
D03*
X1056905D02*
D03*
X1063329Y459748D02*
D03*
X1068566Y455353D02*
D03*
X1071984Y449433D02*
D03*
X1073172Y442700D02*
D03*
X1071984Y699747D02*
D03*
X1068566Y693826D02*
D03*
X1063329Y689432D02*
D03*
X1056905Y687094D02*
D03*
X1050068D02*
D03*
X1043644Y689432D02*
D03*
X1038407Y693826D02*
D03*
X1034989Y699747D02*
D03*
X1033802Y706480D02*
D03*
X1034989Y713212D02*
D03*
X1038407Y719133D02*
D03*
X1043644Y723527D02*
D03*
X1050068Y725866D02*
D03*
X1056905D02*
D03*
X1063329Y723527D02*
D03*
X1068566Y719133D02*
D03*
X1071984Y713212D02*
D03*
X1073172Y706480D02*
D03*
X1225528Y699747D02*
D03*
X1222110Y693826D02*
D03*
X1216873Y689432D02*
D03*
X1210448Y687094D02*
D03*
X1203612D02*
D03*
X1197187Y689432D02*
D03*
X1191950Y693826D02*
D03*
X1188532Y699747D02*
D03*
X1187345Y706480D02*
D03*
X1188532Y713212D02*
D03*
X1191950Y719133D02*
D03*
X1197187Y723527D02*
D03*
X1203612Y725866D02*
D03*
X1210448D02*
D03*
X1216873Y723527D02*
D03*
X1222110Y719133D02*
D03*
X1225528Y713212D02*
D03*
X1226715Y706480D02*
D03*
X1225528Y435967D02*
D03*
X1222110Y430047D02*
D03*
X1216873Y425652D02*
D03*
X1210448Y423314D02*
D03*
X1203612D02*
D03*
X1197187Y425652D02*
D03*
X1191950Y430047D02*
D03*
X1188532Y435967D02*
D03*
X1187345Y442700D02*
D03*
X1188532Y449433D02*
D03*
X1191950Y455353D02*
D03*
X1197187Y459748D02*
D03*
X1203612Y462086D02*
D03*
X1210448D02*
D03*
X1216873Y459748D02*
D03*
X1222110Y455353D02*
D03*
X1225528Y449433D02*
D03*
X1226715Y442700D02*
D03*
X1244766Y629500D02*
D03*
X991280Y525564D02*
D03*
X1235900Y590080D02*
D03*
X747605Y637651D02*
D03*
X858445Y607558D02*
D03*
X842890Y592303D02*
D03*
X619040Y699322D02*
D03*
X638072Y708110D02*
D03*
X948178Y485200D02*
D03*
X1129726Y610879D02*
D03*
X1102841Y619728D02*
D03*
X1106152Y627483D02*
D03*
X1221051Y574857D02*
D03*
X1221051Y602893D02*
D03*
X1193776Y593683D02*
D03*
X1216882Y570432D02*
D03*
X978868Y720700D02*
D03*
X683530Y496885D02*
D03*
X1229655Y590820D02*
D03*
X1230092Y504134D02*
D03*
X1239200Y492775D02*
D03*
X1131900Y498700D02*
D03*
X1125043Y627718D02*
D03*
X813936Y522535D02*
D03*
X843316D02*
D03*
X849784Y636175D02*
D03*
X887014Y640388D02*
D03*
X896525Y636622D02*
D03*
X896188Y631633D02*
D03*
X871125Y642701D02*
D03*
X826631Y631694D02*
D03*
X1260037Y629600D02*
D03*
X1283600D02*
D03*
X1337648Y673700D02*
D03*
X1244900Y579665D02*
D03*
X886751Y578139D02*
D03*
X896298Y565150D02*
D03*
X881896Y579025D02*
D03*
X1102939Y611423D02*
D03*
X893830Y580244D02*
D03*
X797900Y575171D02*
D03*
X805256D02*
D03*
X1013869Y562788D02*
D03*
X907602Y561634D02*
D03*
X1073900Y564819D02*
D03*
X958056Y566394D02*
D03*
X831594Y570205D02*
D03*
X805400Y588364D02*
D03*
X805256Y583787D02*
D03*
X1191575Y570432D02*
D03*
X1193658Y581086D02*
D03*
X801242Y431200D02*
D03*
X674634Y659700D02*
D03*
X845516Y499783D02*
D03*
X903788Y514049D02*
D03*
X898676Y520866D02*
D03*
X980952Y534999D02*
D03*
X1193532Y561000D02*
D03*
X1212741Y520200D02*
D03*
X905338Y628645D02*
D03*
X896188Y623964D02*
D03*
X1115569Y594932D02*
D03*
X1110124Y531109D02*
D03*
X800900Y638892D02*
D03*
X804852Y611601D02*
D03*
X820826Y642014D02*
D03*
X889933Y622491D02*
D03*
X879731Y607653D02*
D03*
X914917Y598109D02*
D03*
X971414Y508700D02*
D03*
X1091719Y627483D02*
D03*
X1097034Y600137D02*
D03*
X941900Y641126D02*
D03*
X1007274Y646366D02*
D03*
X995253Y646366D02*
D03*
X1080400Y642050D02*
D03*
X947344Y522491D02*
D03*
X923184Y520907D02*
D03*
X1073900Y571014D02*
D03*
X1002900Y570205D02*
D03*
X882649Y510933D02*
D03*
X893830Y585362D02*
D03*
X931400Y506307D02*
D03*
X901253Y581425D02*
D03*
X838528Y583974D02*
D03*
X1011900Y531599D02*
D03*
X1073900Y581014D02*
D03*
X975492Y591366D02*
D03*
X904793Y543701D02*
D03*
X904747Y549499D02*
D03*
X874458Y532288D02*
D03*
X954460Y647480D02*
D03*
X831781Y584161D02*
D03*
X831674Y577595D02*
D03*
X826338Y574699D02*
D03*
X859641Y615502D02*
D03*
Y623178D02*
D03*
X824996Y622786D02*
D03*
X794503Y603523D02*
D03*
Y598306D02*
D03*
X736557Y628836D02*
D03*
Y623475D02*
D03*
X740524Y640493D02*
D03*
X805400Y579063D02*
D03*
X826338Y588554D02*
D03*
X781814Y643786D02*
D03*
X828307Y550524D02*
D03*
X835191D02*
D03*
X842641D02*
D03*
X908684Y581573D02*
D03*
X882649Y550665D02*
D03*
X893365Y531988D02*
D03*
X883865D02*
D03*
X813585Y698700D02*
D03*
X820826Y633529D02*
D03*
X1137400Y442566D02*
D03*
X1164900D02*
D03*
X1183802Y643515D02*
D03*
X810400Y706480D02*
D03*
X774400Y531609D02*
D03*
X791247D02*
D03*
X725400Y538676D02*
D03*
X744932Y486200D02*
D03*
X792900Y431200D02*
D03*
X785400D02*
D03*
X960812Y652200D02*
D03*
X968094Y676200D02*
D03*
X664693Y716032D02*
D03*
X636825Y703385D02*
D03*
X619569Y723920D02*
D03*
X626900Y638773D02*
D03*
Y613731D02*
D03*
X677502Y522393D02*
D03*
X667660Y535700D02*
D03*
X1328921Y682428D02*
D03*
X1296216Y707700D02*
D03*
X1301120Y712605D02*
D03*
X1308932Y704200D02*
D03*
X1343254Y679997D02*
D03*
X1336210Y687041D02*
D03*
D124*
X978387Y442700D02*
X1033802D01*
X919628D02*
X978387D01*
X1033802D02*
X1053487D01*
X899943D02*
X919628D01*
M02*
