G04*
G04 #@! TF.GenerationSoftware,Altium Limited,Altium Designer,24.2.2 (26)*
G04*
G04 Layer_Color=16711935*
%FSLAX25Y25*%
%MOIN*%
G70*
G04*
G04 #@! TF.SameCoordinates,E85AF581-5EDA-4222-B011-A7CF2EBE2122*
G04*
G04*
G04 #@! TF.FilePolarity,Negative*
G04*
G01*
G75*
%ADD20C,0.00197*%
%ADD80C,0.07087*%
%ADD81C,0.22260*%
%ADD82R,0.06102X0.06102*%
%ADD83C,0.06102*%
%ADD84R,0.05469X0.05469*%
%ADD85C,0.05469*%
%ADD86C,0.55181*%
%ADD87C,0.07693*%
%ADD88R,0.07693X0.07693*%
%ADD89C,0.07102*%
%ADD90R,0.07102X0.07102*%
%ADD91C,0.04331*%
%ADD92C,0.03402*%
D20*
X1243916Y587503D02*
X1245884D01*
Y588487D01*
X1245556Y588815D01*
X1244244D01*
X1243916Y588487D01*
Y587503D01*
X1245884Y590455D02*
X1243916D01*
X1244900Y589471D01*
Y590783D01*
D80*
X1255959Y571003D02*
D03*
Y562342D02*
D03*
Y579665D02*
D03*
Y588326D02*
D03*
X707030Y561553D02*
D03*
Y570215D02*
D03*
Y587537D02*
D03*
Y578876D02*
D03*
D81*
X1279459Y559326D02*
D03*
X1279975Y591082D02*
D03*
X683014Y558797D02*
D03*
X683530Y590553D02*
D03*
D82*
X1173932Y592560D02*
D03*
D83*
X1163932D02*
D03*
X1153932D02*
D03*
X1143932D02*
D03*
X1133932D02*
D03*
D84*
X870890Y517224D02*
D03*
D85*
X860890D02*
D03*
X850890D02*
D03*
D86*
X667660Y442700D02*
D03*
X1295282D02*
D03*
X746400D02*
D03*
Y706480D02*
D03*
X899943D02*
D03*
Y442700D02*
D03*
X1053487D02*
D03*
Y706480D02*
D03*
X1207030D02*
D03*
Y442700D02*
D03*
D87*
X633900Y508732D02*
D03*
D88*
Y518731D02*
D03*
D89*
X928889Y604339D02*
D03*
Y594339D02*
D03*
Y584339D02*
D03*
D90*
Y574338D02*
D03*
D91*
X1298758Y732401D02*
D03*
X1316081D02*
D03*
D92*
X687345Y442700D02*
D03*
X686158Y449433D02*
D03*
X682739Y455353D02*
D03*
X677502Y459748D02*
D03*
X671078Y462086D02*
D03*
X664242D02*
D03*
X657817Y459748D02*
D03*
X652580Y455353D02*
D03*
X649162Y449433D02*
D03*
X647975Y442700D02*
D03*
X649162Y435967D02*
D03*
X652580Y430047D02*
D03*
X657817Y425652D02*
D03*
X664242Y423314D02*
D03*
X671078D02*
D03*
X677502Y425652D02*
D03*
X682739Y430047D02*
D03*
X686158Y435967D02*
D03*
X648018Y640638D02*
D03*
X1055058Y627718D02*
D03*
Y619728D02*
D03*
X1086601Y555992D02*
D03*
X1041035Y599750D02*
D03*
X1007290Y601876D02*
D03*
X1018900Y580968D02*
D03*
X1018946Y586014D02*
D03*
X1129472Y642264D02*
D03*
X1063715Y624783D02*
D03*
X1111400Y634200D02*
D03*
X982914Y507981D02*
D03*
X1004086Y515648D02*
D03*
X1110124Y538200D02*
D03*
X1128587Y570968D02*
D03*
X1102841Y538200D02*
D03*
X1045117Y538200D02*
D03*
X1073897Y539868D02*
D03*
X1052400Y538200D02*
D03*
X1105500Y498700D02*
D03*
X1164593Y561000D02*
D03*
X1021400Y529200D02*
D03*
X1313780Y435967D02*
D03*
X1310362Y430047D02*
D03*
X1305124Y425652D02*
D03*
X1298700Y423314D02*
D03*
X1291864D02*
D03*
X1285439Y425652D02*
D03*
X1280202Y430047D02*
D03*
X1276784Y435967D02*
D03*
X1275597Y442700D02*
D03*
X1276784Y449433D02*
D03*
X1280202Y455353D02*
D03*
X1285439Y459748D02*
D03*
X1291864Y462086D02*
D03*
X1298700D02*
D03*
X1305124Y459748D02*
D03*
X1310362Y455353D02*
D03*
X1313780Y449433D02*
D03*
X1314967Y442700D02*
D03*
X764898Y435967D02*
D03*
X761480Y430047D02*
D03*
X756243Y425652D02*
D03*
X749818Y423314D02*
D03*
X742982D02*
D03*
X736557Y425652D02*
D03*
X731320Y430047D02*
D03*
X727902Y435967D02*
D03*
X726715Y442700D02*
D03*
X727902Y449433D02*
D03*
X731320Y455353D02*
D03*
X736557Y459748D02*
D03*
X742982Y462086D02*
D03*
X749818D02*
D03*
X756243Y459748D02*
D03*
X761480Y455353D02*
D03*
X764898Y449433D02*
D03*
X766085Y442700D02*
D03*
X764898Y699747D02*
D03*
X761480Y693826D02*
D03*
X756243Y689432D02*
D03*
X749818Y687094D02*
D03*
X742982D02*
D03*
X736557Y689432D02*
D03*
X731320Y693826D02*
D03*
X727902Y699747D02*
D03*
X726715Y706480D02*
D03*
X727902Y713212D02*
D03*
X731320Y719133D02*
D03*
X736557Y723527D02*
D03*
X742982Y725866D02*
D03*
X749818D02*
D03*
X756243Y723527D02*
D03*
X761480Y719133D02*
D03*
X764898Y713212D02*
D03*
X766085Y706480D02*
D03*
X918441Y699747D02*
D03*
X915023Y693826D02*
D03*
X909786Y689432D02*
D03*
X903362Y687094D02*
D03*
X896525D02*
D03*
X890101Y689432D02*
D03*
X884864Y693826D02*
D03*
X881446Y699747D02*
D03*
X880258Y706480D02*
D03*
X881446Y713212D02*
D03*
X884864Y719133D02*
D03*
X890101Y723527D02*
D03*
X896525Y725866D02*
D03*
X903362D02*
D03*
X909786Y723527D02*
D03*
X915023Y719133D02*
D03*
X918441Y713212D02*
D03*
X919628Y706480D02*
D03*
X918441Y435967D02*
D03*
X915023Y430047D02*
D03*
X909786Y425652D02*
D03*
X903362Y423314D02*
D03*
X896525D02*
D03*
X890101Y425652D02*
D03*
X884864Y430047D02*
D03*
X881446Y435967D02*
D03*
X880258Y442700D02*
D03*
X881446Y449433D02*
D03*
X884864Y455353D02*
D03*
X890101Y459748D02*
D03*
X896525Y462086D02*
D03*
X903362D02*
D03*
X909786Y459748D02*
D03*
X915023Y455353D02*
D03*
X918441Y449433D02*
D03*
X919628Y442700D02*
D03*
X1071984Y435967D02*
D03*
X1068566Y430047D02*
D03*
X1063329Y425652D02*
D03*
X1056905Y423314D02*
D03*
X1050068D02*
D03*
X1043644Y425652D02*
D03*
X1038407Y430047D02*
D03*
X1034989Y435967D02*
D03*
X1033802Y442700D02*
D03*
X1034989Y449433D02*
D03*
X1038407Y455353D02*
D03*
X1043644Y459748D02*
D03*
X1050068Y462086D02*
D03*
X1056905D02*
D03*
X1063329Y459748D02*
D03*
X1068566Y455353D02*
D03*
X1071984Y449433D02*
D03*
X1073172Y442700D02*
D03*
X1071984Y699747D02*
D03*
X1068566Y693826D02*
D03*
X1063329Y689432D02*
D03*
X1056905Y687094D02*
D03*
X1050068D02*
D03*
X1043644Y689432D02*
D03*
X1038407Y693826D02*
D03*
X1034989Y699747D02*
D03*
X1033802Y706480D02*
D03*
X1034989Y713212D02*
D03*
X1038407Y719133D02*
D03*
X1043644Y723527D02*
D03*
X1050068Y725866D02*
D03*
X1056905D02*
D03*
X1063329Y723527D02*
D03*
X1068566Y719133D02*
D03*
X1071984Y713212D02*
D03*
X1073172Y706480D02*
D03*
X1225528Y699747D02*
D03*
X1222110Y693826D02*
D03*
X1216873Y689432D02*
D03*
X1210448Y687094D02*
D03*
X1203612D02*
D03*
X1197187Y689432D02*
D03*
X1191950Y693826D02*
D03*
X1188532Y699747D02*
D03*
X1187345Y706480D02*
D03*
X1188532Y713212D02*
D03*
X1191950Y719133D02*
D03*
X1197187Y723527D02*
D03*
X1203612Y725866D02*
D03*
X1210448D02*
D03*
X1216873Y723527D02*
D03*
X1222110Y719133D02*
D03*
X1225528Y713212D02*
D03*
X1226715Y706480D02*
D03*
X1225528Y435967D02*
D03*
X1222110Y430047D02*
D03*
X1216873Y425652D02*
D03*
X1210448Y423314D02*
D03*
X1203612D02*
D03*
X1197187Y425652D02*
D03*
X1191950Y430047D02*
D03*
X1188532Y435967D02*
D03*
X1187345Y442700D02*
D03*
X1188532Y449433D02*
D03*
X1191950Y455353D02*
D03*
X1197187Y459748D02*
D03*
X1203612Y462086D02*
D03*
X1210448D02*
D03*
X1216873Y459748D02*
D03*
X1222110Y455353D02*
D03*
X1225528Y449433D02*
D03*
X1226715Y442700D02*
D03*
X1244766Y629500D02*
D03*
X991280Y525564D02*
D03*
X1235900Y590080D02*
D03*
X747605Y637651D02*
D03*
X858445Y607558D02*
D03*
X842890Y592303D02*
D03*
X619040Y699322D02*
D03*
X638072Y708110D02*
D03*
X948178Y485200D02*
D03*
X1129726Y610879D02*
D03*
X1102841Y619728D02*
D03*
X1106152Y627483D02*
D03*
X1221051Y574857D02*
D03*
X1221051Y602893D02*
D03*
X1193776Y593683D02*
D03*
X1216882Y570432D02*
D03*
X978868Y720700D02*
D03*
X683530Y496885D02*
D03*
X1229655Y590820D02*
D03*
X1230092Y504134D02*
D03*
X1239200Y492775D02*
D03*
X1131900Y498700D02*
D03*
X1125043Y627718D02*
D03*
X813936Y522535D02*
D03*
X843316D02*
D03*
X849784Y636175D02*
D03*
X887014Y640388D02*
D03*
X896525Y636622D02*
D03*
X896188Y631633D02*
D03*
X871125Y642701D02*
D03*
X826631Y631694D02*
D03*
X1260037Y629600D02*
D03*
X1283600D02*
D03*
X1337648Y673700D02*
D03*
X1244900Y579665D02*
D03*
X886751Y578139D02*
D03*
X896298Y565150D02*
D03*
X881896Y579025D02*
D03*
X1102939Y611423D02*
D03*
X893830Y580244D02*
D03*
X797900Y575171D02*
D03*
X805256D02*
D03*
X1013869Y562788D02*
D03*
X907602Y561634D02*
D03*
X1073900Y564819D02*
D03*
X958056Y566394D02*
D03*
X831594Y570205D02*
D03*
X805400Y588364D02*
D03*
X805256Y583787D02*
D03*
X1191575Y570432D02*
D03*
X1193658Y581086D02*
D03*
X801242Y431200D02*
D03*
X674634Y659700D02*
D03*
X845516Y499783D02*
D03*
X903788Y514049D02*
D03*
X898676Y520866D02*
D03*
X980952Y534999D02*
D03*
X1193532Y561000D02*
D03*
X1212741Y520200D02*
D03*
X905338Y628645D02*
D03*
X896188Y623964D02*
D03*
X1115569Y594932D02*
D03*
X1110124Y531109D02*
D03*
X800900Y638892D02*
D03*
X804852Y611601D02*
D03*
X820826Y642014D02*
D03*
X889933Y622491D02*
D03*
X879731Y607653D02*
D03*
X914917Y598109D02*
D03*
X971414Y508700D02*
D03*
X1091719Y627483D02*
D03*
X1097034Y600137D02*
D03*
X941900Y641126D02*
D03*
X1007274Y646366D02*
D03*
X995253Y646366D02*
D03*
X1080400Y642050D02*
D03*
X947344Y522491D02*
D03*
X923184Y520907D02*
D03*
X1073900Y571014D02*
D03*
X1002900Y570205D02*
D03*
X882649Y510933D02*
D03*
X893830Y585362D02*
D03*
X931400Y506307D02*
D03*
X901253Y581425D02*
D03*
X838528Y583974D02*
D03*
X1011900Y531599D02*
D03*
X1073900Y581014D02*
D03*
X975492Y591366D02*
D03*
X904793Y543701D02*
D03*
X904747Y549499D02*
D03*
X874458Y532288D02*
D03*
X954460Y647480D02*
D03*
X831781Y584161D02*
D03*
X831674Y577595D02*
D03*
X826338Y574699D02*
D03*
X859641Y615502D02*
D03*
Y623178D02*
D03*
X824996Y622786D02*
D03*
X794503Y603523D02*
D03*
Y598306D02*
D03*
X736557Y628836D02*
D03*
Y623475D02*
D03*
X740524Y640493D02*
D03*
X805400Y579063D02*
D03*
X826338Y588554D02*
D03*
X781814Y643786D02*
D03*
X828307Y550524D02*
D03*
X835191D02*
D03*
X842641D02*
D03*
X908684Y581573D02*
D03*
X882649Y550665D02*
D03*
X893365Y531988D02*
D03*
X883865D02*
D03*
X813585Y698700D02*
D03*
X820826Y633529D02*
D03*
X1137400Y442566D02*
D03*
X1164900D02*
D03*
X1183802Y643515D02*
D03*
X810400Y706480D02*
D03*
X774400Y531609D02*
D03*
X791247D02*
D03*
X725400Y538676D02*
D03*
X744932Y486200D02*
D03*
X792900Y431200D02*
D03*
X785400D02*
D03*
X960812Y652200D02*
D03*
X968094Y676200D02*
D03*
X664693Y716032D02*
D03*
X636825Y703385D02*
D03*
X619569Y723920D02*
D03*
X626900Y638773D02*
D03*
Y613731D02*
D03*
X677502Y522393D02*
D03*
X667660Y535700D02*
D03*
X1328921Y682428D02*
D03*
X1296216Y707700D02*
D03*
X1301120Y712605D02*
D03*
X1308932Y704200D02*
D03*
X1343254Y679997D02*
D03*
X1336210Y687041D02*
D03*
M02*
