G04*
G04 #@! TF.GenerationSoftware,Altium Limited,Altium Designer,24.2.2 (26)*
G04*
G04 Layer_Color=8388736*
%FSLAX25Y25*%
%MOIN*%
G70*
G04*
G04 #@! TF.SameCoordinates,E85AF581-5EDA-4222-B011-A7CF2EBE2122*
G04*
G04*
G04 #@! TF.FilePolarity,Negative*
G04*
G01*
G75*
%ADD20C,0.00197*%
%ADD24R,0.04724X0.03543*%
%ADD26R,0.01480X0.05764*%
G04:AMPARAMS|DCode=27|XSize=57.64mil|YSize=14.8mil|CornerRadius=7.4mil|HoleSize=0mil|Usage=FLASHONLY|Rotation=90.000|XOffset=0mil|YOffset=0mil|HoleType=Round|Shape=RoundedRectangle|*
%AMROUNDEDRECTD27*
21,1,0.05764,0.00000,0,0,90.0*
21,1,0.04284,0.01480,0,0,90.0*
1,1,0.01480,0.00000,0.02142*
1,1,0.01480,0.00000,-0.02142*
1,1,0.01480,0.00000,-0.02142*
1,1,0.01480,0.00000,0.02142*
%
%ADD27ROUNDEDRECTD27*%
%ADD28R,0.03543X0.04724*%
%ADD29R,0.05512X0.03740*%
%ADD32R,0.03740X0.05512*%
%ADD34R,0.03150X0.04134*%
%ADD35R,0.05727X0.06127*%
G04:AMPARAMS|DCode=41|XSize=47.45mil|YSize=20.95mil|CornerRadius=10.48mil|HoleSize=0mil|Usage=FLASHONLY|Rotation=0.000|XOffset=0mil|YOffset=0mil|HoleType=Round|Shape=RoundedRectangle|*
%AMROUNDEDRECTD41*
21,1,0.04745,0.00000,0,0,0.0*
21,1,0.02650,0.02095,0,0,0.0*
1,1,0.02095,0.01325,0.00000*
1,1,0.02095,-0.01325,0.00000*
1,1,0.02095,-0.01325,0.00000*
1,1,0.02095,0.01325,0.00000*
%
%ADD41ROUNDEDRECTD41*%
%ADD42R,0.04745X0.02095*%
%ADD44R,0.06890X0.10433*%
%ADD46R,0.02362X0.06102*%
%ADD47R,0.06127X0.05727*%
%ADD48R,0.02264X0.01575*%
G04:AMPARAMS|DCode=49|XSize=9.87mil|YSize=36.45mil|CornerRadius=1.98mil|HoleSize=0mil|Usage=FLASHONLY|Rotation=0.000|XOffset=0mil|YOffset=0mil|HoleType=Round|Shape=RoundedRectangle|*
%AMROUNDEDRECTD49*
21,1,0.00987,0.03248,0,0,0.0*
21,1,0.00591,0.03645,0,0,0.0*
1,1,0.00397,0.00295,-0.01624*
1,1,0.00397,-0.00295,-0.01624*
1,1,0.00397,-0.00295,0.01624*
1,1,0.00397,0.00295,0.01624*
%
%ADD49ROUNDEDRECTD49*%
G04:AMPARAMS|DCode=51|XSize=36.45mil|YSize=9.87mil|CornerRadius=1.98mil|HoleSize=0mil|Usage=FLASHONLY|Rotation=0.000|XOffset=0mil|YOffset=0mil|HoleType=Round|Shape=RoundedRectangle|*
%AMROUNDEDRECTD51*
21,1,0.03645,0.00591,0,0,0.0*
21,1,0.03248,0.00987,0,0,0.0*
1,1,0.00397,0.01624,-0.00295*
1,1,0.00397,-0.01624,-0.00295*
1,1,0.00397,-0.01624,0.00295*
1,1,0.00397,0.01624,0.00295*
%
%ADD51ROUNDEDRECTD51*%
%ADD52R,0.03150X0.03150*%
%ADD54R,0.02362X0.09843*%
%ADD55R,0.07874X0.09843*%
G04:AMPARAMS|DCode=58|XSize=61.02mil|YSize=23.62mil|CornerRadius=2.01mil|HoleSize=0mil|Usage=FLASHONLY|Rotation=0.000|XOffset=0mil|YOffset=0mil|HoleType=Round|Shape=RoundedRectangle|*
%AMROUNDEDRECTD58*
21,1,0.06102,0.01961,0,0,0.0*
21,1,0.05701,0.02362,0,0,0.0*
1,1,0.00402,0.02850,-0.00980*
1,1,0.00402,-0.02850,-0.00980*
1,1,0.00402,-0.02850,0.00980*
1,1,0.00402,0.02850,0.00980*
%
%ADD58ROUNDEDRECTD58*%
%ADD59R,0.10433X0.06890*%
G04:AMPARAMS|DCode=60|XSize=43.31mil|YSize=23.62mil|CornerRadius=2.01mil|HoleSize=0mil|Usage=FLASHONLY|Rotation=0.000|XOffset=0mil|YOffset=0mil|HoleType=Round|Shape=RoundedRectangle|*
%AMROUNDEDRECTD60*
21,1,0.04331,0.01961,0,0,0.0*
21,1,0.03929,0.02362,0,0,0.0*
1,1,0.00402,0.01965,-0.00980*
1,1,0.00402,-0.01965,-0.00980*
1,1,0.00402,-0.01965,0.00980*
1,1,0.00402,0.01965,0.00980*
%
%ADD60ROUNDEDRECTD60*%
%ADD61R,0.02756X0.01181*%
%ADD62R,0.02756X0.01181*%
%ADD63C,0.07000*%
%ADD64R,0.06512X0.04937*%
%ADD65R,0.05724X0.05724*%
%ADD66R,0.07890X0.11433*%
%ADD67R,0.03362X0.04347*%
%ADD68R,0.22260X0.12417*%
%ADD69O,0.09661X0.03362*%
%ADD70R,0.06984X0.03402*%
%ADD71R,0.07693X0.05134*%
%ADD72R,0.13992X0.08087*%
%ADD73R,0.05906X0.04724*%
%ADD74R,0.09268X0.06512*%
%ADD75R,0.01181X0.06693*%
%ADD76R,0.13205X0.13205*%
%ADD77R,0.03402X0.06984*%
%ADD78R,0.03756X0.03953*%
%ADD79R,0.06512X0.09268*%
%ADD80C,0.07087*%
%ADD81C,0.22260*%
%ADD82R,0.06102X0.06102*%
%ADD83C,0.06102*%
%ADD84R,0.05469X0.05469*%
%ADD85C,0.05469*%
%ADD86C,0.55181*%
%ADD87C,0.07693*%
%ADD88R,0.07693X0.07693*%
%ADD89C,0.07102*%
%ADD90R,0.07102X0.07102*%
%ADD91C,0.04331*%
%ADD92C,0.03402*%
D20*
X1243916Y587503D02*
X1245884D01*
Y588487D01*
X1245556Y588815D01*
X1244244D01*
X1243916Y588487D01*
Y587503D01*
X1245884Y590455D02*
X1243916D01*
X1244900Y589471D01*
Y590783D01*
D24*
X992068Y583553D02*
D03*
Y575285D02*
D03*
X967151Y574892D02*
D03*
Y583159D02*
D03*
X967193Y556551D02*
D03*
Y564819D02*
D03*
X992068Y556551D02*
D03*
Y564819D02*
D03*
X1149900Y680834D02*
D03*
Y672566D02*
D03*
X1142278Y672731D02*
D03*
Y680999D02*
D03*
X1145195Y442566D02*
D03*
Y450834D02*
D03*
X1153900D02*
D03*
Y442566D02*
D03*
X956400Y478200D02*
D03*
Y469932D02*
D03*
X841418Y680834D02*
D03*
Y672567D02*
D03*
X683530Y503381D02*
D03*
Y511649D02*
D03*
X746900Y501062D02*
D03*
Y492795D02*
D03*
X623900Y663834D02*
D03*
Y655566D02*
D03*
X1225352Y539636D02*
D03*
Y547903D02*
D03*
X1304994Y673700D02*
D03*
Y681968D02*
D03*
X1312672Y673700D02*
D03*
Y681968D02*
D03*
X1221304Y619428D02*
D03*
Y611161D02*
D03*
X1007274Y637916D02*
D03*
Y629649D02*
D03*
X968042Y691227D02*
D03*
Y682960D02*
D03*
X964992Y469932D02*
D03*
Y478200D02*
D03*
X833642Y680834D02*
D03*
Y672567D02*
D03*
X792900Y446834D02*
D03*
Y438566D02*
D03*
X785400D02*
D03*
Y446834D02*
D03*
X671858Y630060D02*
D03*
Y638328D02*
D03*
X671900Y611566D02*
D03*
Y619834D02*
D03*
D26*
X1306373Y690373D02*
D03*
D27*
X1311491D02*
D03*
X1308932Y696830D02*
D03*
D28*
X1132720Y704200D02*
D03*
X1124453D02*
D03*
X1102904Y642050D02*
D03*
X1111172D02*
D03*
X1088766D02*
D03*
X1097034D02*
D03*
X925350Y508964D02*
D03*
X917082D02*
D03*
X902582D02*
D03*
X910850D02*
D03*
X890582Y608400D02*
D03*
X898850D02*
D03*
X898966Y615502D02*
D03*
X890698D02*
D03*
X666355Y514649D02*
D03*
X674623D02*
D03*
X739245Y500789D02*
D03*
X730977D02*
D03*
X737172Y547386D02*
D03*
X745439D02*
D03*
X739140Y491048D02*
D03*
X730872D02*
D03*
X1212741Y528552D02*
D03*
X1221009D02*
D03*
X1337782Y658424D02*
D03*
X1329514D02*
D03*
Y666700D02*
D03*
X1337782D02*
D03*
X1149668Y664700D02*
D03*
X1141400D02*
D03*
X1132720Y696700D02*
D03*
X1124453D02*
D03*
X932266Y520866D02*
D03*
X940534D02*
D03*
X956766Y485200D02*
D03*
X965034D02*
D03*
X841418Y665700D02*
D03*
X833150D02*
D03*
X1004034Y508700D02*
D03*
X995766D02*
D03*
X973580Y451200D02*
D03*
X981847D02*
D03*
Y443421D02*
D03*
X973580D02*
D03*
X878627Y633571D02*
D03*
X870360D02*
D03*
X825731Y698700D02*
D03*
X817464D02*
D03*
Y706480D02*
D03*
X825731D02*
D03*
X662869Y640493D02*
D03*
X654601D02*
D03*
X621735Y716700D02*
D03*
X630002D02*
D03*
X621735Y709078D02*
D03*
X630002D02*
D03*
X1177164Y635200D02*
D03*
X1185432D02*
D03*
X978042Y647522D02*
D03*
X986310D02*
D03*
D29*
X1146420Y687161D02*
D03*
Y694444D02*
D03*
X1164561Y481551D02*
D03*
Y488835D02*
D03*
X1041077Y609541D02*
D03*
Y616824D02*
D03*
X1021400Y519713D02*
D03*
Y512430D02*
D03*
X961786Y462486D02*
D03*
Y455202D02*
D03*
X893365Y545079D02*
D03*
Y537795D02*
D03*
X874458Y545079D02*
D03*
Y537795D02*
D03*
X842662Y538090D02*
D03*
Y545374D02*
D03*
X804852Y603523D02*
D03*
Y596239D02*
D03*
X873411Y622491D02*
D03*
Y615207D02*
D03*
X851752Y615502D02*
D03*
Y622786D02*
D03*
X679209Y734272D02*
D03*
Y741555D02*
D03*
X801200Y439017D02*
D03*
Y446300D02*
D03*
X965386Y434692D02*
D03*
Y441976D02*
D03*
X947600Y633500D02*
D03*
Y626217D02*
D03*
X835020Y694726D02*
D03*
Y687442D02*
D03*
X814402Y596239D02*
D03*
Y603523D02*
D03*
X833052Y615502D02*
D03*
Y622786D02*
D03*
X842620Y615500D02*
D03*
Y622784D02*
D03*
X882880Y615205D02*
D03*
Y622489D02*
D03*
X883865Y545079D02*
D03*
Y537795D02*
D03*
X667660Y522393D02*
D03*
Y529676D02*
D03*
D32*
X1207850Y607596D02*
D03*
X1200567D02*
D03*
X1207406Y581086D02*
D03*
X1200123D02*
D03*
X1102841Y547200D02*
D03*
X1110124D02*
D03*
X1045117Y547200D02*
D03*
X1052400D02*
D03*
X973385Y408851D02*
D03*
X980668D02*
D03*
X901401Y588512D02*
D03*
X908684D02*
D03*
X901401Y598109D02*
D03*
X908684D02*
D03*
X738700Y482900D02*
D03*
X731417D02*
D03*
X817873Y714900D02*
D03*
X825157D02*
D03*
X1124945Y712400D02*
D03*
X1132228D02*
D03*
X980634Y749210D02*
D03*
X973350D02*
D03*
X820012Y588553D02*
D03*
X812729D02*
D03*
X820065Y574741D02*
D03*
X812782D02*
D03*
X901401Y574338D02*
D03*
X908684D02*
D03*
X980963Y434200D02*
D03*
X973680D02*
D03*
D34*
X1200102Y598695D02*
D03*
X1203842D02*
D03*
X1207582D02*
D03*
D35*
X1200119Y570432D02*
D03*
X1207409D02*
D03*
X1174725Y561000D02*
D03*
X1182014D02*
D03*
X1328921Y696062D02*
D03*
X1336210D02*
D03*
X1328921Y707794D02*
D03*
X1336210D02*
D03*
X647255Y715991D02*
D03*
X654545D02*
D03*
D41*
X981246Y425346D02*
D03*
Y417865D02*
D03*
X972975D02*
D03*
Y421606D02*
D03*
D42*
Y425346D02*
D03*
D44*
X654548Y505267D02*
D03*
Y522196D02*
D03*
X674634Y702500D02*
D03*
Y685570D02*
D03*
D46*
X1031600Y602795D02*
D03*
X1026600D02*
D03*
X1021600D02*
D03*
X1016600D02*
D03*
Y624055D02*
D03*
X1021600D02*
D03*
X1026600D02*
D03*
X1031600D02*
D03*
D47*
X1221009Y583530D02*
D03*
Y590820D02*
D03*
X1188475Y483864D02*
D03*
Y491153D02*
D03*
X1215270Y538156D02*
D03*
Y545446D02*
D03*
X1230134Y485485D02*
D03*
Y492775D02*
D03*
X1218844Y485485D02*
D03*
Y492775D02*
D03*
X626900Y623197D02*
D03*
Y630487D02*
D03*
X682700Y619345D02*
D03*
Y612055D02*
D03*
X682742Y637839D02*
D03*
Y630549D02*
D03*
D48*
X1200053Y487162D02*
D03*
Y489130D02*
D03*
Y491099D02*
D03*
Y493067D02*
D03*
X1206651D02*
D03*
Y491099D02*
D03*
Y489130D02*
D03*
Y487162D02*
D03*
D49*
X851016Y564752D02*
D03*
X852591D02*
D03*
X854166D02*
D03*
X855741D02*
D03*
X857316D02*
D03*
X858890D02*
D03*
X860465D02*
D03*
X862040D02*
D03*
X863615D02*
D03*
X865189D02*
D03*
X866764D02*
D03*
X868339D02*
D03*
X869914D02*
D03*
X871489D02*
D03*
Y591799D02*
D03*
X869914D02*
D03*
X868339D02*
D03*
X866764D02*
D03*
X865189D02*
D03*
X863615D02*
D03*
X862040D02*
D03*
X860465D02*
D03*
X858890D02*
D03*
X857316D02*
D03*
X855741D02*
D03*
X854166D02*
D03*
X852591D02*
D03*
X851016D02*
D03*
D51*
X847729Y588512D02*
D03*
Y586937D02*
D03*
Y585362D02*
D03*
Y583787D02*
D03*
Y582212D02*
D03*
Y580638D02*
D03*
Y579063D02*
D03*
Y577488D02*
D03*
Y575913D02*
D03*
Y574338D02*
D03*
Y572764D02*
D03*
Y571189D02*
D03*
Y569614D02*
D03*
Y568039D02*
D03*
X874776D02*
D03*
Y569614D02*
D03*
Y571189D02*
D03*
Y572764D02*
D03*
Y574338D02*
D03*
Y575913D02*
D03*
Y577488D02*
D03*
Y580638D02*
D03*
Y579063D02*
D03*
Y582212D02*
D03*
Y583787D02*
D03*
Y585362D02*
D03*
Y586937D02*
D03*
Y588512D02*
D03*
D52*
X763624Y496732D02*
D03*
X754176Y492991D02*
D03*
Y500472D02*
D03*
X1133311Y680960D02*
D03*
Y688440D02*
D03*
X1123862Y684700D02*
D03*
X973660Y467940D02*
D03*
Y460460D02*
D03*
X983109Y464200D02*
D03*
X825353Y681637D02*
D03*
Y689117D02*
D03*
X815905Y685377D02*
D03*
D54*
X1301120Y722243D02*
D03*
X1304270D02*
D03*
X1307420D02*
D03*
X1310569D02*
D03*
X1313719D02*
D03*
D55*
X1289900Y743700D02*
D03*
X1324939D02*
D03*
X1289939Y722243D02*
D03*
X1324939D02*
D03*
D58*
X640270Y632200D02*
D03*
Y627200D02*
D03*
Y622200D02*
D03*
Y617200D02*
D03*
X661530D02*
D03*
Y622200D02*
D03*
Y627200D02*
D03*
Y632200D02*
D03*
D59*
X658197Y669200D02*
D03*
X675126D02*
D03*
D60*
X645585Y704513D02*
D03*
Y700773D02*
D03*
Y697033D02*
D03*
X656215D02*
D03*
Y700773D02*
D03*
Y704513D02*
D03*
D61*
X834364Y595747D02*
D03*
X834364Y601653D02*
D03*
X824127D02*
D03*
X824127Y595747D02*
D03*
D62*
X834364Y597716D02*
D03*
Y599684D02*
D03*
X824127D02*
D03*
Y597716D02*
D03*
D63*
X1002900Y583553D02*
D03*
X958048Y574892D02*
D03*
Y556551D02*
D03*
X1002900D02*
D03*
X1321900Y662200D02*
D03*
X1321245Y677834D02*
D03*
X1336699Y722243D02*
D03*
X1157609Y680357D02*
D03*
X1100739Y633231D02*
D03*
X1207782Y559300D02*
D03*
X913900Y517200D02*
D03*
X955156Y442007D02*
D03*
X901826Y555654D02*
D03*
X692975Y511763D02*
D03*
X658197Y656700D02*
D03*
X674634Y715991D02*
D03*
X1148923Y483000D02*
D03*
X947349Y470100D02*
D03*
X1235400Y528552D02*
D03*
X913015Y555936D02*
D03*
X746703Y511191D02*
D03*
X745439Y537998D02*
D03*
X1235400Y547903D02*
D03*
X1259671Y614409D02*
D03*
X1296421Y677834D02*
D03*
X1195296Y635200D02*
D03*
X1142039Y704242D02*
D03*
X1007274Y619728D02*
D03*
X986250Y675200D02*
D03*
X976309D02*
D03*
X1145195Y459748D02*
D03*
X932266Y530109D02*
D03*
X995766Y517944D02*
D03*
X886967Y633675D02*
D03*
X851044Y680855D02*
D03*
X834894Y706480D02*
D03*
X792900Y457200D02*
D03*
X645399Y687361D02*
D03*
X655987D02*
D03*
X969506Y647480D02*
D03*
D64*
X975492Y582765D02*
D03*
Y575285D02*
D03*
X984154Y579025D02*
D03*
X975492Y564425D02*
D03*
Y556945D02*
D03*
X984154Y560685D02*
D03*
X985758Y684720D02*
D03*
Y692200D02*
D03*
X977097Y688460D02*
D03*
X674871Y503523D02*
D03*
X666210Y499783D02*
D03*
Y507263D02*
D03*
D65*
X1230529Y629600D02*
D03*
X1222261D02*
D03*
X981290Y657522D02*
D03*
X973022D02*
D03*
D66*
X1235900Y598365D02*
D03*
Y615295D02*
D03*
Y581565D02*
D03*
Y564636D02*
D03*
D67*
X1207582Y588656D02*
D03*
X1200102D02*
D03*
D68*
X1182014Y506062D02*
D03*
Y544251D02*
D03*
D69*
X1058400Y556014D02*
D03*
Y561014D02*
D03*
Y566014D02*
D03*
Y571014D02*
D03*
Y576014D02*
D03*
Y581014D02*
D03*
Y586014D02*
D03*
X1039502Y556014D02*
D03*
Y561014D02*
D03*
Y566014D02*
D03*
Y571014D02*
D03*
Y576014D02*
D03*
Y581014D02*
D03*
Y586014D02*
D03*
X1115932Y555968D02*
D03*
Y560968D02*
D03*
Y565968D02*
D03*
Y570968D02*
D03*
Y575968D02*
D03*
Y580968D02*
D03*
Y585968D02*
D03*
X1097034Y555968D02*
D03*
Y560968D02*
D03*
Y565968D02*
D03*
Y570968D02*
D03*
Y575968D02*
D03*
Y580968D02*
D03*
Y585968D02*
D03*
D70*
X964624Y508857D02*
D03*
Y513858D02*
D03*
X939624Y508857D02*
D03*
Y513858D02*
D03*
X1143400Y640700D02*
D03*
Y635700D02*
D03*
X1168400Y640700D02*
D03*
Y635700D02*
D03*
X837284Y638675D02*
D03*
Y633675D02*
D03*
X862284Y638675D02*
D03*
Y633675D02*
D03*
D71*
X1011900Y522491D02*
D03*
Y508909D02*
D03*
D72*
X978387Y477157D02*
D03*
Y499243D02*
D03*
X759900Y509523D02*
D03*
Y531609D02*
D03*
X1128587Y649156D02*
D03*
Y671242D02*
D03*
X820826Y650500D02*
D03*
Y672586D02*
D03*
D73*
X854484Y544586D02*
D03*
X862751D02*
D03*
Y538287D02*
D03*
X854484D02*
D03*
D74*
X632987Y728842D02*
D03*
X668813D02*
D03*
X632987Y746558D02*
D03*
X668813D02*
D03*
X959426Y619728D02*
D03*
X995253D02*
D03*
X959426Y637444D02*
D03*
X995253D02*
D03*
D75*
X829246Y598700D02*
D03*
D76*
X861252Y578275D02*
D03*
D77*
X736725Y538676D02*
D03*
X731725D02*
D03*
X736725Y513676D02*
D03*
X731725D02*
D03*
X627837Y699322D02*
D03*
X622837D02*
D03*
X627837Y674322D02*
D03*
X622837D02*
D03*
D78*
X1244900Y586289D02*
D03*
Y591998D02*
D03*
D79*
X968042Y738613D02*
D03*
Y702787D02*
D03*
X985758Y738613D02*
D03*
Y702787D02*
D03*
D80*
X1255959Y571003D02*
D03*
Y562342D02*
D03*
Y579665D02*
D03*
Y588326D02*
D03*
X707030Y561553D02*
D03*
Y570215D02*
D03*
Y587537D02*
D03*
Y578876D02*
D03*
D81*
X1279459Y559326D02*
D03*
X1279975Y591082D02*
D03*
X683014Y558797D02*
D03*
X683530Y590553D02*
D03*
D82*
X1173932Y592560D02*
D03*
D83*
X1163932D02*
D03*
X1153932D02*
D03*
X1143932D02*
D03*
X1133932D02*
D03*
D84*
X870890Y517224D02*
D03*
D85*
X860890D02*
D03*
X850890D02*
D03*
D86*
X667660Y442700D02*
D03*
X1295282D02*
D03*
X746400D02*
D03*
Y706480D02*
D03*
X899943D02*
D03*
Y442700D02*
D03*
X1053487D02*
D03*
Y706480D02*
D03*
X1207030D02*
D03*
Y442700D02*
D03*
D87*
X633900Y508732D02*
D03*
D88*
Y518731D02*
D03*
D89*
X928889Y604339D02*
D03*
Y594339D02*
D03*
Y584339D02*
D03*
D90*
Y574338D02*
D03*
D91*
X1298758Y732401D02*
D03*
X1316081D02*
D03*
D92*
X687345Y442700D02*
D03*
X686158Y449433D02*
D03*
X682739Y455353D02*
D03*
X677502Y459748D02*
D03*
X671078Y462086D02*
D03*
X664242D02*
D03*
X657817Y459748D02*
D03*
X652580Y455353D02*
D03*
X649162Y449433D02*
D03*
X647975Y442700D02*
D03*
X649162Y435967D02*
D03*
X652580Y430047D02*
D03*
X657817Y425652D02*
D03*
X664242Y423314D02*
D03*
X671078D02*
D03*
X677502Y425652D02*
D03*
X682739Y430047D02*
D03*
X686158Y435967D02*
D03*
X648018Y640638D02*
D03*
X1055058Y627718D02*
D03*
Y619728D02*
D03*
X1086601Y555992D02*
D03*
X1041035Y599750D02*
D03*
X1007290Y601876D02*
D03*
X1018900Y580968D02*
D03*
X1018946Y586014D02*
D03*
X1129472Y642264D02*
D03*
X1063715Y624783D02*
D03*
X1111400Y634200D02*
D03*
X982914Y507981D02*
D03*
X1004086Y515648D02*
D03*
X1110124Y538200D02*
D03*
X1128587Y570968D02*
D03*
X1102841Y538200D02*
D03*
X1045117Y538200D02*
D03*
X1073897Y539868D02*
D03*
X1052400Y538200D02*
D03*
X1105500Y498700D02*
D03*
X1164593Y561000D02*
D03*
X1021400Y529200D02*
D03*
X1313780Y435967D02*
D03*
X1310362Y430047D02*
D03*
X1305124Y425652D02*
D03*
X1298700Y423314D02*
D03*
X1291864D02*
D03*
X1285439Y425652D02*
D03*
X1280202Y430047D02*
D03*
X1276784Y435967D02*
D03*
X1275597Y442700D02*
D03*
X1276784Y449433D02*
D03*
X1280202Y455353D02*
D03*
X1285439Y459748D02*
D03*
X1291864Y462086D02*
D03*
X1298700D02*
D03*
X1305124Y459748D02*
D03*
X1310362Y455353D02*
D03*
X1313780Y449433D02*
D03*
X1314967Y442700D02*
D03*
X764898Y435967D02*
D03*
X761480Y430047D02*
D03*
X756243Y425652D02*
D03*
X749818Y423314D02*
D03*
X742982D02*
D03*
X736557Y425652D02*
D03*
X731320Y430047D02*
D03*
X727902Y435967D02*
D03*
X726715Y442700D02*
D03*
X727902Y449433D02*
D03*
X731320Y455353D02*
D03*
X736557Y459748D02*
D03*
X742982Y462086D02*
D03*
X749818D02*
D03*
X756243Y459748D02*
D03*
X761480Y455353D02*
D03*
X764898Y449433D02*
D03*
X766085Y442700D02*
D03*
X764898Y699747D02*
D03*
X761480Y693826D02*
D03*
X756243Y689432D02*
D03*
X749818Y687094D02*
D03*
X742982D02*
D03*
X736557Y689432D02*
D03*
X731320Y693826D02*
D03*
X727902Y699747D02*
D03*
X726715Y706480D02*
D03*
X727902Y713212D02*
D03*
X731320Y719133D02*
D03*
X736557Y723527D02*
D03*
X742982Y725866D02*
D03*
X749818D02*
D03*
X756243Y723527D02*
D03*
X761480Y719133D02*
D03*
X764898Y713212D02*
D03*
X766085Y706480D02*
D03*
X918441Y699747D02*
D03*
X915023Y693826D02*
D03*
X909786Y689432D02*
D03*
X903362Y687094D02*
D03*
X896525D02*
D03*
X890101Y689432D02*
D03*
X884864Y693826D02*
D03*
X881446Y699747D02*
D03*
X880258Y706480D02*
D03*
X881446Y713212D02*
D03*
X884864Y719133D02*
D03*
X890101Y723527D02*
D03*
X896525Y725866D02*
D03*
X903362D02*
D03*
X909786Y723527D02*
D03*
X915023Y719133D02*
D03*
X918441Y713212D02*
D03*
X919628Y706480D02*
D03*
X918441Y435967D02*
D03*
X915023Y430047D02*
D03*
X909786Y425652D02*
D03*
X903362Y423314D02*
D03*
X896525D02*
D03*
X890101Y425652D02*
D03*
X884864Y430047D02*
D03*
X881446Y435967D02*
D03*
X880258Y442700D02*
D03*
X881446Y449433D02*
D03*
X884864Y455353D02*
D03*
X890101Y459748D02*
D03*
X896525Y462086D02*
D03*
X903362D02*
D03*
X909786Y459748D02*
D03*
X915023Y455353D02*
D03*
X918441Y449433D02*
D03*
X919628Y442700D02*
D03*
X1071984Y435967D02*
D03*
X1068566Y430047D02*
D03*
X1063329Y425652D02*
D03*
X1056905Y423314D02*
D03*
X1050068D02*
D03*
X1043644Y425652D02*
D03*
X1038407Y430047D02*
D03*
X1034989Y435967D02*
D03*
X1033802Y442700D02*
D03*
X1034989Y449433D02*
D03*
X1038407Y455353D02*
D03*
X1043644Y459748D02*
D03*
X1050068Y462086D02*
D03*
X1056905D02*
D03*
X1063329Y459748D02*
D03*
X1068566Y455353D02*
D03*
X1071984Y449433D02*
D03*
X1073172Y442700D02*
D03*
X1071984Y699747D02*
D03*
X1068566Y693826D02*
D03*
X1063329Y689432D02*
D03*
X1056905Y687094D02*
D03*
X1050068D02*
D03*
X1043644Y689432D02*
D03*
X1038407Y693826D02*
D03*
X1034989Y699747D02*
D03*
X1033802Y706480D02*
D03*
X1034989Y713212D02*
D03*
X1038407Y719133D02*
D03*
X1043644Y723527D02*
D03*
X1050068Y725866D02*
D03*
X1056905D02*
D03*
X1063329Y723527D02*
D03*
X1068566Y719133D02*
D03*
X1071984Y713212D02*
D03*
X1073172Y706480D02*
D03*
X1225528Y699747D02*
D03*
X1222110Y693826D02*
D03*
X1216873Y689432D02*
D03*
X1210448Y687094D02*
D03*
X1203612D02*
D03*
X1197187Y689432D02*
D03*
X1191950Y693826D02*
D03*
X1188532Y699747D02*
D03*
X1187345Y706480D02*
D03*
X1188532Y713212D02*
D03*
X1191950Y719133D02*
D03*
X1197187Y723527D02*
D03*
X1203612Y725866D02*
D03*
X1210448D02*
D03*
X1216873Y723527D02*
D03*
X1222110Y719133D02*
D03*
X1225528Y713212D02*
D03*
X1226715Y706480D02*
D03*
X1225528Y435967D02*
D03*
X1222110Y430047D02*
D03*
X1216873Y425652D02*
D03*
X1210448Y423314D02*
D03*
X1203612D02*
D03*
X1197187Y425652D02*
D03*
X1191950Y430047D02*
D03*
X1188532Y435967D02*
D03*
X1187345Y442700D02*
D03*
X1188532Y449433D02*
D03*
X1191950Y455353D02*
D03*
X1197187Y459748D02*
D03*
X1203612Y462086D02*
D03*
X1210448D02*
D03*
X1216873Y459748D02*
D03*
X1222110Y455353D02*
D03*
X1225528Y449433D02*
D03*
X1226715Y442700D02*
D03*
X1244766Y629500D02*
D03*
X991280Y525564D02*
D03*
X1235900Y590080D02*
D03*
X747605Y637651D02*
D03*
X858445Y607558D02*
D03*
X842890Y592303D02*
D03*
X619040Y699322D02*
D03*
X638072Y708110D02*
D03*
X948178Y485200D02*
D03*
X1129726Y610879D02*
D03*
X1102841Y619728D02*
D03*
X1106152Y627483D02*
D03*
X1221051Y574857D02*
D03*
X1221051Y602893D02*
D03*
X1193776Y593683D02*
D03*
X1216882Y570432D02*
D03*
X978868Y720700D02*
D03*
X683530Y496885D02*
D03*
X1229655Y590820D02*
D03*
X1230092Y504134D02*
D03*
X1239200Y492775D02*
D03*
X1131900Y498700D02*
D03*
X1125043Y627718D02*
D03*
X813936Y522535D02*
D03*
X843316D02*
D03*
X849784Y636175D02*
D03*
X887014Y640388D02*
D03*
X896525Y636622D02*
D03*
X896188Y631633D02*
D03*
X871125Y642701D02*
D03*
X826631Y631694D02*
D03*
X1260037Y629600D02*
D03*
X1283600D02*
D03*
X1337648Y673700D02*
D03*
X1244900Y579665D02*
D03*
X886751Y578139D02*
D03*
X896298Y565150D02*
D03*
X881896Y579025D02*
D03*
X1102939Y611423D02*
D03*
X893830Y580244D02*
D03*
X797900Y575171D02*
D03*
X805256D02*
D03*
X1013869Y562788D02*
D03*
X907602Y561634D02*
D03*
X1073900Y564819D02*
D03*
X958056Y566394D02*
D03*
X831594Y570205D02*
D03*
X805400Y588364D02*
D03*
X805256Y583787D02*
D03*
X1191575Y570432D02*
D03*
X1193658Y581086D02*
D03*
X801242Y431200D02*
D03*
X674634Y659700D02*
D03*
X845516Y499783D02*
D03*
X903788Y514049D02*
D03*
X898676Y520866D02*
D03*
X980952Y534999D02*
D03*
X1193532Y561000D02*
D03*
X1212741Y520200D02*
D03*
X905338Y628645D02*
D03*
X896188Y623964D02*
D03*
X1115569Y594932D02*
D03*
X1110124Y531109D02*
D03*
X800900Y638892D02*
D03*
X804852Y611601D02*
D03*
X820826Y642014D02*
D03*
X889933Y622491D02*
D03*
X879731Y607653D02*
D03*
X914917Y598109D02*
D03*
X971414Y508700D02*
D03*
X1091719Y627483D02*
D03*
X1097034Y600137D02*
D03*
X941900Y641126D02*
D03*
X1007274Y646366D02*
D03*
X995253Y646366D02*
D03*
X1080400Y642050D02*
D03*
X947344Y522491D02*
D03*
X923184Y520907D02*
D03*
X1073900Y571014D02*
D03*
X1002900Y570205D02*
D03*
X882649Y510933D02*
D03*
X893830Y585362D02*
D03*
X931400Y506307D02*
D03*
X901253Y581425D02*
D03*
X838528Y583974D02*
D03*
X1011900Y531599D02*
D03*
X1073900Y581014D02*
D03*
X975492Y591366D02*
D03*
X904793Y543701D02*
D03*
X904747Y549499D02*
D03*
X874458Y532288D02*
D03*
X954460Y647480D02*
D03*
X831781Y584161D02*
D03*
X831674Y577595D02*
D03*
X826338Y574699D02*
D03*
X859641Y615502D02*
D03*
Y623178D02*
D03*
X824996Y622786D02*
D03*
X794503Y603523D02*
D03*
Y598306D02*
D03*
X736557Y628836D02*
D03*
Y623475D02*
D03*
X740524Y640493D02*
D03*
X805400Y579063D02*
D03*
X826338Y588554D02*
D03*
X781814Y643786D02*
D03*
X828307Y550524D02*
D03*
X835191D02*
D03*
X842641D02*
D03*
X908684Y581573D02*
D03*
X882649Y550665D02*
D03*
X893365Y531988D02*
D03*
X883865D02*
D03*
X813585Y698700D02*
D03*
X820826Y633529D02*
D03*
X1137400Y442566D02*
D03*
X1164900D02*
D03*
X1183802Y643515D02*
D03*
X810400Y706480D02*
D03*
X774400Y531609D02*
D03*
X791247D02*
D03*
X725400Y538676D02*
D03*
X744932Y486200D02*
D03*
X792900Y431200D02*
D03*
X785400D02*
D03*
X960812Y652200D02*
D03*
X968094Y676200D02*
D03*
X664693Y716032D02*
D03*
X636825Y703385D02*
D03*
X619569Y723920D02*
D03*
X626900Y638773D02*
D03*
Y613731D02*
D03*
X677502Y522393D02*
D03*
X667660Y535700D02*
D03*
X1328921Y682428D02*
D03*
X1296216Y707700D02*
D03*
X1301120Y712605D02*
D03*
X1308932Y704200D02*
D03*
X1343254Y679997D02*
D03*
X1336210Y687041D02*
D03*
M02*
